<svg width="170" height="170" viewBox="0 0 170 170" fill="none" xmlns="http://www.w3.org/2000/svg">
<path d="M66.9057 0L67.0582 0.708862C28.6181 9.14084 0.717529 44.1795 0.717529 84.0237C0.715073 89.1376 1.16754 94.2664 2.06018 99.2635L1.35197 99.3903C0.454422 94.3485 -0.00297546 89.1774 -0.000518799 84.0212C-0.000518799 64.2695 6.78404 44.978 19.1064 29.7034C31.2591 14.6452 48.2316 4.09659 66.9057 0ZM123.024 7.1087C151.999 21.7938 170 51.2659 170 84.0237C170 91.2071 169.122 98.3432 167.393 105.235L166.697 105.056C168.411 98.2213 169.281 91.1474 169.281 84.0237C169.281 51.542 151.434 22.3186 122.702 7.75789L123.024 7.1087ZM29.8746 148.515C45.17 161.904 64.7491 169.276 84.9995 169.276C103.403 169.274 120.89 163.381 135.563 152.236L135.996 152.818C121.194 164.055 103.561 169.998 84.9995 170C64.5745 170 44.8307 162.565 29.405 149.064L29.8746 148.515Z" fill="url(#paint0_linear_1357_379)"/>
<defs>
<linearGradient id="paint0_linear_1357_379" x1="-5.1238" y1="13.259" x2="192.884" y2="158.534" gradientUnits="userSpaceOnUse">
<stop stop-color="#006CE4"/>
<stop offset="1" stop-color="#00B98D"/>
</linearGradient>
</defs>
</svg>
