<svg width="38" height="38" viewBox="0 0 38 38"  xmlns="http://www.w3.org/2000/svg">
<path d="M1.50049 12.125H0.250488V9.62499C0.251419 8.79648 0.580958 8.00216 1.16681 7.41631C1.75266 6.83046 2.54697 6.50092 3.37549 6.49999H24.6255V5.24999H23.3755C23.2519 5.25 23.131 5.21334 23.0282 5.14467C22.9255 5.07599 22.8454 4.97838 22.798 4.86417C22.7507 4.74997 22.7384 4.6243 22.7625 4.50305C22.7866 4.38181 22.8461 4.27045 22.9335 4.18304L26.6835 0.433039C26.7416 0.374999 26.8105 0.328959 26.8863 0.297548C26.9621 0.266137 27.0434 0.249969 27.1255 0.249969C27.2076 0.249969 27.2888 0.266137 27.3647 0.297548C27.4405 0.328959 27.5094 0.374999 27.5674 0.433039L31.3174 4.18304C31.4049 4.27045 31.4644 4.38181 31.4885 4.50305C31.5126 4.6243 31.5002 4.74997 31.4529 4.86417C31.4056 4.97838 31.3255 5.07599 31.2227 5.14467C31.1199 5.21334 30.9991 5.25 30.8755 5.24999H29.6255V6.49999H32.1255C32.954 6.50092 33.7483 6.83046 34.3342 7.41631C34.92 8.00216 35.2496 8.79648 35.2505 9.62499V22.125H34.0005V9.62499C33.9999 9.12789 33.8022 8.65131 33.4507 8.29981C33.0992 7.9483 32.6226 7.75057 32.1255 7.74999H29.6255V19H28.3755V4.62499C28.3755 4.45923 28.4413 4.30026 28.5585 4.18305C28.6758 4.06584 28.8347 3.99999 29.0005 3.99999H29.3667L27.1255 1.75882L24.8843 3.99999H25.2505C25.4162 3.99999 25.5752 4.06584 25.6924 4.18305C25.8096 4.30026 25.8755 4.45923 25.8755 4.62499V19.625H24.6255V7.74999H3.37549C2.87839 7.75057 2.40181 7.9483 2.0503 8.29981C1.6988 8.65131 1.50107 9.12789 1.50049 9.62499V12.125ZM3.37549 31.5H13.7854L12.2854 36.5H10.8755V37.75H24.6255V36.5H23.2156L22.4117 33.8203L21.2143 34.1797L21.9105 36.5H13.5902L15.0902 31.5H19.6255V30.25H3.37549C2.87839 30.2494 2.40181 30.0517 2.0503 29.7002C1.6988 29.3487 1.50107 28.8721 1.50049 28.375V27.75H19.0005V26.5H1.50049V13.375H0.250488V28.375C0.251419 29.2035 0.580958 29.9978 1.16681 30.5837C1.75266 31.1695 2.54697 31.4991 3.37549 31.5ZM22.1255 20.875V10.875H19.6255V25.25H3.37549V24H5.87549V19C5.87549 18.8342 5.94134 18.6753 6.05855 18.5581C6.17576 18.4408 6.33473 18.375 6.50049 18.375H10.2505C10.4162 18.375 10.5752 18.4408 10.6924 18.5581C10.8096 18.6753 10.8755 18.8342 10.8755 19V24H12.1255V14.625C12.1255 14.4592 12.1913 14.3003 12.3085 14.1831C12.4258 14.0658 12.5847 14 12.7505 14H16.5005C16.6662 14 16.8252 14.0658 16.9424 14.1831C17.0596 14.3003 17.1255 14.4592 17.1255 14.625V24H18.3755V10.25C18.3755 10.0842 18.4413 9.92526 18.5585 9.80805C18.6758 9.69084 18.8347 9.62499 19.0005 9.62499H22.7505C22.9162 9.62499 23.0752 9.69084 23.1924 9.80805C23.3096 9.92526 23.3755 10.0842 23.3755 10.25V20.875H22.1255ZM9.62549 19.625H7.12549V24H9.62549V19.625ZM15.8755 15.25H13.3755V24H15.8755V15.25ZM3.37549 8.99999V10.25H4.62549V8.99999H3.37549ZM7.12549 8.99999H5.87549V10.25H7.12549V8.99999ZM8.37549 8.99999V10.25H9.62549V8.99999H8.37549ZM37.201 34.5494C37.5515 34.9018 37.7489 35.3781 37.7505 35.875C37.7507 36.1213 37.7024 36.3652 37.6082 36.5928C37.5141 36.8204 37.376 37.0272 37.2018 37.2013C37.0277 37.3755 36.8209 37.5136 36.5933 37.6077C36.3657 37.7019 36.1218 37.7502 35.8755 37.75C35.3791 37.7457 34.9038 37.5486 34.5499 37.2005L31.5583 34.209C29.9847 35.1373 28.1265 35.4597 26.3321 35.1159C24.5378 34.772 22.9304 33.7855 21.8114 32.3413C20.6924 30.897 20.1386 29.0942 20.2539 27.2708C20.3691 25.4475 21.1454 23.7287 22.4373 22.4368C23.7292 21.1449 25.448 20.3686 27.2713 20.2534C29.0947 20.1381 30.8975 20.6919 32.3418 21.8109C33.786 22.9299 34.7725 24.5373 35.1164 26.3316C35.4602 28.126 35.1378 29.9842 34.2095 31.5578L37.201 34.5494ZM34.0005 27.75C34.0005 26.5139 33.6339 25.3055 32.9472 24.2777C32.2604 23.2499 31.2843 22.4488 30.1423 21.9757C29.0002 21.5027 27.7436 21.3789 26.5312 21.6201C25.3188 21.8612 24.2051 22.4565 23.3311 23.3306C22.457 24.2047 21.8617 25.3183 21.6206 26.5307C21.3794 27.7431 21.5032 28.9997 21.9762 30.1418C22.4493 31.2838 23.2504 32.2599 24.2782 32.9467C25.306 33.6334 26.5144 34 27.7505 34C29.4075 33.9981 30.9961 33.339 32.1678 32.1673C33.3395 30.9956 33.9986 29.407 34.0005 27.75ZM36.3171 35.4334L33.4743 32.5905C33.2047 32.9088 32.9093 33.2042 32.591 33.4738L35.4339 36.3166C35.4913 36.377 35.5603 36.4254 35.6366 36.4588C35.713 36.4922 35.7953 36.5099 35.8787 36.511C35.962 36.5121 36.0448 36.4965 36.122 36.4651C36.1992 36.4337 36.2694 36.3871 36.3284 36.3282C36.3873 36.2692 36.4338 36.1991 36.4653 36.1218C36.4967 36.0446 36.5123 35.9619 36.5112 35.8785C36.5101 35.7951 36.4923 35.7128 36.459 35.6365C36.4256 35.5601 36.3772 35.4911 36.3167 35.4337L36.3171 35.4334ZM32.7505 27.75C32.7505 28.7389 32.4572 29.7056 31.9078 30.5278C31.3584 31.3501 30.5775 31.991 29.6639 32.3694C28.7503 32.7478 27.7449 32.8468 26.775 32.6539C25.8051 32.461 24.9142 31.9848 24.215 31.2855C23.5157 30.5863 23.0395 29.6954 22.8466 28.7254C22.6536 27.7555 22.7527 26.7502 23.1311 25.8366C23.5095 24.9229 24.1504 24.1421 24.9726 23.5926C25.7949 23.0432 26.7616 22.75 27.7505 22.75C29.0761 22.7515 30.347 23.2787 31.2844 24.2161C32.2217 25.1535 32.749 26.4244 32.7505 27.75ZM31.5005 27.75C31.5005 27.0083 31.2806 26.2833 30.8685 25.6666C30.4564 25.0499 29.8708 24.5693 29.1856 24.2854C28.5003 24.0016 27.7463 23.9274 27.0189 24.072C26.2915 24.2167 25.6233 24.5739 25.0988 25.0983C24.5744 25.6228 24.2172 26.291 24.0725 27.0184C23.9278 27.7458 24.0021 28.4998 24.2859 29.1851C24.5698 29.8703 25.0504 30.4559 25.6671 30.868C26.2838 31.2801 27.0088 31.5 27.7505 31.5C28.7447 31.4989 29.6979 31.1035 30.4009 30.4004C31.104 29.6974 31.4994 28.7442 31.5005 27.75ZM25.2505 27.75H26.5005C26.5009 27.4186 26.6327 27.1009 26.867 26.8665C27.1014 26.6322 27.4191 26.5004 27.7505 26.5V25.25C27.0877 25.2507 26.4522 25.5144 25.9835 25.983C25.5149 26.4517 25.2512 27.0872 25.2505 27.75ZM33.3755 3.99999H34.6255C34.6244 3.00577 34.229 2.05258 33.5259 1.34955C32.8229 0.646528 31.8697 0.251088 30.8755 0.249992V1.49999C31.5383 1.50074 32.1738 1.76437 32.6424 2.23305C33.1111 2.70173 33.3747 3.33718 33.3755 3.99999Z"/>
</svg>
