<svg width="49" height="50" viewBox="0 0 49 50" fill="none" xmlns="http://www.w3.org/2000/svg">
<path d="M10.9184 11.1061C10.7399 11.1401 10.5788 11.2354 10.4629 11.3755C10.3471 11.5156 10.2837 11.6917 10.2837 11.8734V15.6853C10.2837 15.867 10.3471 16.0431 10.4629 16.1832C10.5788 16.3233 10.7399 16.4186 10.9184 16.4526L13.1065 16.8706C13.3489 17.7313 13.6927 18.5602 14.1306 19.3398L12.8781 21.1837C12.776 21.3341 12.7295 21.5153 12.7466 21.6963C12.7637 21.8772 12.8434 22.0466 12.972 22.1751L15.6673 24.8704C15.7958 24.9989 15.9651 25.0786 16.1461 25.0958C16.327 25.1129 16.5083 25.0664 16.6587 24.9643L18.5025 23.7119C19.4319 24.2338 20.4305 24.6214 21.4686 24.8633C21.4751 24.8648 21.4814 24.8655 21.4882 24.8668V27.5058C21.4882 27.713 21.5705 27.9117 21.717 28.0582C21.8635 28.2047 22.0622 28.287 22.2694 28.287H26.2152C26.4224 28.287 26.6211 28.2047 26.7676 28.0582C26.9142 27.9117 26.9965 27.713 26.9965 27.5058V24.7784C27.9135 24.5347 28.7961 24.1764 29.6234 23.7118L31.4674 24.9643C31.6177 25.0664 31.799 25.1129 31.98 25.0958C32.1609 25.0786 32.3302 24.9989 32.4588 24.8704L35.1541 22.1751C35.2826 22.0466 35.3623 21.8772 35.3794 21.6963C35.3966 21.5153 35.3501 21.3341 35.2479 21.1837L33.9954 19.3398C34.4334 18.5602 34.7771 17.7313 35.0194 16.8706L37.2076 16.4526C37.3862 16.4186 37.5472 16.3233 37.6631 16.1832C37.779 16.0431 37.8424 15.867 37.8424 15.6853V11.8734C37.8424 11.6917 37.779 11.5156 37.6631 11.3755C37.5472 11.2354 37.3862 11.1401 37.2076 11.1061L35.0194 10.6881C34.7771 9.82737 34.4334 8.99851 33.9954 8.21895L35.2479 6.375C35.3501 6.22464 35.3966 6.04337 35.3794 5.86241C35.3623 5.68145 35.2826 5.51212 35.1541 5.38359L32.4588 2.68828C32.3302 2.55976 32.1609 2.48009 31.9799 2.46298C31.799 2.44586 31.6177 2.49239 31.4674 2.59453L29.6233 3.84687C28.8438 3.40892 28.0149 3.06516 27.1542 2.82285L26.7362 0.634766C26.7021 0.456224 26.6069 0.295154 26.4668 0.179291C26.3268 0.0634285 26.1507 2.53752e-05 25.9689 0L22.157 0C21.9753 2.53752e-05 21.7992 0.0634285 21.6591 0.179291C21.5191 0.295154 21.4238 0.456224 21.3897 0.634766L20.9718 2.82285C20.1111 3.06523 19.2822 3.40902 18.5026 3.84697L16.6587 2.59443C16.5083 2.49229 16.3271 2.44577 16.1461 2.46288C15.9651 2.47999 15.7958 2.55967 15.6673 2.68818L12.972 5.3835C12.8434 5.51202 12.7638 5.68132 12.7466 5.86226C12.7295 6.0432 12.776 6.22445 12.8781 6.3748L14.1306 8.21875C13.6926 8.99835 13.3489 9.82724 13.1066 10.688L10.9184 11.1061ZM25.4338 19.4264V26.7254H23.051V19.5453C23.0509 19.3773 22.9968 19.2138 22.8965 19.0791C22.7962 18.9443 22.6552 18.8455 22.4943 18.7972C21.4644 18.4868 20.5497 17.8782 19.8657 17.048C19.1817 16.2179 18.7591 15.2036 18.6515 14.1334C18.5438 13.0632 18.7559 11.9851 19.2609 11.0354C19.7658 10.0857 20.541 9.30698 21.4885 8.79775V12.883C21.4885 13.6135 21.7786 14.314 22.2951 14.8305C22.8116 15.347 23.5122 15.6372 24.2426 15.6372C24.9731 15.6372 25.6736 15.347 26.1901 14.8305C26.7066 14.314 26.9968 13.6135 26.9968 12.883V9.00752C27.8491 9.55355 28.5323 10.3265 28.9693 11.2396C29.4064 12.1526 29.5801 13.1695 29.4708 14.1759C29.3616 15.1822 28.9737 16.1381 28.3509 16.9361C27.7281 17.7341 26.895 18.3425 25.9453 18.6929C25.7953 18.748 25.6658 18.8479 25.5743 18.979C25.4828 19.11 25.4337 19.266 25.4337 19.4259L25.4338 19.4264ZM14.5003 11.5399C14.7427 10.5006 15.1542 9.50821 15.7184 8.60234C15.7983 8.47397 15.8392 8.32518 15.8361 8.17403C15.8331 8.02288 15.7863 7.87585 15.7014 7.75078L14.5336 6.03203L16.3152 4.25L18.034 5.41768C18.159 5.50261 18.306 5.54944 18.4572 5.55249C18.6083 5.55554 18.7571 5.51468 18.8854 5.43486C19.7913 4.87061 20.7838 4.45904 21.8231 4.2166C21.9703 4.18225 22.1044 4.10594 22.2091 3.99691C22.3138 3.88788 22.3846 3.75082 22.413 3.60234L22.8032 1.5625H25.3227L25.7125 3.60234C25.7408 3.75081 25.8116 3.88786 25.9163 3.99688C26.021 4.10591 26.155 4.18223 26.3022 4.2166C27.3416 4.45907 28.334 4.87061 29.2399 5.43477C29.3683 5.51462 29.5171 5.55551 29.6682 5.55247C29.8194 5.54944 29.9664 5.50261 30.0915 5.41768L31.8102 4.25L33.5919 6.03154L32.424 7.75029C32.3391 7.87534 32.2922 8.02234 32.2892 8.17348C32.2861 8.32461 32.327 8.47338 32.4068 8.60176C32.9711 9.50764 33.3827 10.5001 33.6252 11.5395C33.6595 11.6867 33.7358 11.8208 33.8449 11.9255C33.9539 12.0302 34.091 12.101 34.2394 12.1294L36.2798 12.5195V15.0391L34.2399 15.4288C34.0915 15.4572 33.9544 15.528 33.8454 15.6327C33.7363 15.7374 33.66 15.8715 33.6257 16.0187C33.3833 17.058 32.9717 18.0505 32.4074 18.9563C32.3276 19.0847 32.2867 19.2335 32.2897 19.3847C32.2928 19.5358 32.3396 19.6829 32.4246 19.8079L33.5924 21.5267L31.8107 23.3082L30.092 22.1405C29.9669 22.0556 29.8199 22.0088 29.6688 22.0057C29.5177 22.0027 29.3689 22.0435 29.2405 22.1233C28.5391 22.5596 27.7851 22.905 26.9967 23.1512V19.947C28.254 19.3665 29.3111 18.4264 30.0342 17.2453C30.7574 16.0642 31.1142 14.6953 31.0595 13.3115C31.0048 11.9277 30.5411 10.5912 29.727 9.47085C28.9129 8.35053 27.785 7.4967 26.4857 7.01729C26.3676 6.97373 26.2408 6.95936 26.1159 6.97539C25.9911 6.99143 25.8719 7.03739 25.7687 7.10937C25.6654 7.18136 25.5811 7.27722 25.5228 7.38881C25.4646 7.50041 25.4342 7.62442 25.4342 7.75029V12.8831C25.4342 13.1991 25.3086 13.5021 25.0852 13.7256C24.8618 13.949 24.5587 14.0745 24.2428 14.0745C23.9268 14.0745 23.6237 13.949 23.4003 13.7256C23.1769 13.5021 23.0514 13.1991 23.0514 12.8831V7.63076C23.0513 7.50897 23.0228 7.38887 22.9681 7.28005C22.9135 7.17123 22.8341 7.0767 22.7364 7.00402C22.6386 6.93133 22.5253 6.8825 22.4053 6.86142C22.2854 6.84034 22.1621 6.8476 22.0455 6.88262C20.6221 7.31544 19.3719 8.18702 18.4735 9.37285C17.5579 10.5873 17.0627 12.0669 17.0627 13.5879C17.0627 15.1088 17.5579 16.5884 18.4735 17.8029C19.251 18.8286 20.2937 19.6227 21.4892 20.0995V23.2563C20.5713 23.0077 19.6947 22.6261 18.8873 22.1235C18.7589 22.0437 18.6101 22.0028 18.459 22.0059C18.3078 22.0089 18.1608 22.0558 18.0357 22.1407L16.317 23.3084L14.5353 21.5269L15.7031 19.8081C15.788 19.6831 15.8349 19.5361 15.8379 19.3849C15.841 19.2338 15.8001 19.085 15.7203 18.9566C15.156 18.0508 14.7445 17.0583 14.502 16.0189C14.4677 15.8717 14.3914 15.7376 14.2824 15.6329C14.1733 15.5282 14.0363 15.4574 13.8878 15.429L11.8462 15.0391V12.5195L13.886 12.1299C14.0345 12.1015 14.1716 12.0307 14.2806 11.926C14.3896 11.8213 14.4659 11.6872 14.5003 11.5399V11.5399ZM7.56883 23.4315C7.18769 23.4094 6.80596 23.4632 6.44579 23.5898L4.44383 14.1039C4.43042 14.0402 4.4091 13.9785 4.38036 13.9201C4.16448 13.4816 3.81571 13.1224 3.38375 12.8937C2.95179 12.665 2.45868 12.5784 1.97465 12.6464C1.49062 12.7143 1.04038 12.9332 0.68806 13.272C0.335742 13.6108 0.0993236 14.0521 0.0124855 14.5331C0.00175655 14.5923 -0.00207755 14.6526 0.00105979 14.7127L0.888267 31.6699C0.911701 32.2475 1.08736 32.8086 1.39746 33.2964C1.70756 33.7842 2.14107 34.1814 2.65409 34.4478L7.95682 37.2798C7.9965 37.2985 8.03135 37.326 8.05866 37.3603C8.08598 37.3946 8.10503 37.4348 8.11434 37.4776L9.14833 41.3015L8.43045 41.716C8.11879 41.8964 7.89142 42.1931 7.79822 42.5409C7.70501 42.8888 7.75359 43.2594 7.93329 43.5715L11.2525 49.3207C11.3414 49.4754 11.4601 49.611 11.6017 49.7195C11.7434 49.8281 11.9051 49.9074 12.0776 49.953C12.1933 49.9842 12.3126 50 12.4324 50.0001C12.6698 50 12.9029 49.9372 13.1082 49.8181L22.7566 44.2474C23.0683 44.0669 23.2957 43.7703 23.3889 43.4225C23.4821 43.0746 23.4336 42.704 23.254 42.3919L19.9346 36.6427C19.7541 36.331 19.4575 36.1036 19.1096 36.0104C18.7618 35.9172 18.3912 35.9657 18.0791 36.1453L18.04 36.1679L17.5764 32.0726C17.5294 31.6176 17.3876 31.1775 17.16 30.7807C16.9325 30.3839 16.6243 30.0393 16.2554 29.7689L7.99051 23.5859C7.86809 23.4943 7.72147 23.4406 7.56883 23.4315ZM21.7988 42.9965L12.5035 48.3632L9.38827 42.9673L18.6836 37.6007L21.7988 42.9965ZM16.0237 32.2485L16.564 37.0201L10.5483 40.4934L9.62235 37.0703C9.55772 36.8214 9.44159 36.5888 9.28145 36.3875C9.12131 36.1863 8.92072 36.0208 8.69266 35.902L3.38993 33.0699C3.11491 32.9297 2.8825 32.7184 2.71692 32.4579C2.55133 32.1973 2.45861 31.8972 2.44842 31.5887L1.56747 14.7375C1.60762 14.5966 1.68767 14.4703 1.79797 14.3739C1.90828 14.2775 2.04412 14.215 2.18912 14.1941C2.33412 14.1732 2.48208 14.1946 2.61517 14.2559C2.74825 14.3171 2.86076 14.4156 2.93915 14.5394L5.06405 24.6109C4.98815 24.7143 4.91928 24.8227 4.8579 24.9354C4.59657 25.4177 4.47715 25.9641 4.51344 26.5115C4.54973 27.0588 4.74026 27.5847 5.06297 28.0283C5.10869 28.0908 5.16346 28.1462 5.22547 28.1926L9.37391 31.2962C9.53983 31.4203 9.74825 31.4734 9.95333 31.4439C10.1584 31.4143 10.3434 31.3045 10.4675 31.1386C10.5916 30.9727 10.6447 30.7642 10.6151 30.5592C10.5856 30.3541 10.4758 30.1691 10.3098 30.045L6.26649 27.0198C6.14771 26.8278 6.07977 26.6086 6.06907 26.383C6.05836 26.1574 6.10525 25.9329 6.2053 25.7304C6.30536 25.5279 6.4553 25.3543 6.641 25.2258C6.8267 25.0972 7.04205 25.0181 7.26678 24.9958L15.3193 31.0202C15.5181 31.1623 15.6839 31.3456 15.8054 31.5576C15.927 31.7695 16.0014 32.0052 16.0237 32.2485V32.2485ZM17.6965 40.5774C17.593 40.3979 17.5651 40.1847 17.6188 39.9846C17.6726 39.7845 17.8037 39.6139 17.9832 39.5104L18.0389 39.4784C18.1278 39.4267 18.226 39.393 18.328 39.3793C18.43 39.3656 18.5336 39.3722 18.633 39.3986C18.7325 39.4251 18.8257 39.471 18.9073 39.5336C18.9889 39.5962 19.0574 39.6743 19.1088 39.7634C19.1602 39.8526 19.1934 39.951 19.2067 40.053C19.2199 40.155 19.2129 40.2587 19.186 40.358C19.1591 40.4573 19.1128 40.5503 19.0498 40.6316C18.9869 40.713 18.9085 40.7811 18.8191 40.8321L18.7635 40.8642C18.6746 40.9155 18.5765 40.9488 18.4747 40.9621C18.373 40.9755 18.2696 40.9686 18.1705 40.942C18.0714 40.9154 17.9785 40.8695 17.8972 40.8069C17.8159 40.7444 17.7476 40.6664 17.6965 40.5774V40.5774ZM40.1693 37.2801L45.4721 34.448C45.9851 34.1817 46.4186 33.7844 46.7286 33.2965C47.0387 32.8087 47.2143 32.2475 47.2377 31.6699L48.1245 14.7124C48.1276 14.6523 48.1238 14.592 48.1131 14.5328C48.0262 14.0518 47.7898 13.6105 47.4375 13.2717C47.0852 12.9329 46.6349 12.714 46.1509 12.6461C45.6669 12.5781 45.1738 12.6647 44.7418 12.8934C44.3098 13.1221 43.9611 13.4813 43.7452 13.9198C43.7165 13.9782 43.6951 14.0399 43.6817 14.1036L41.6802 23.5898C41.32 23.4631 40.9383 23.4093 40.5571 23.4315C40.4043 23.4406 40.2576 23.4942 40.135 23.5859L31.8703 29.769C31.5013 30.0394 31.1931 30.3841 30.9656 30.7809C30.7381 31.1777 30.5962 31.6178 30.5493 32.0728L30.0856 36.168L30.0466 36.1454C29.7345 35.9658 29.3638 35.9173 29.016 36.0105C28.6682 36.1037 28.3715 36.3311 28.1911 36.6428L24.8719 42.3926C24.6922 42.7047 24.6437 43.0753 24.7369 43.4231C24.8302 43.771 25.0575 44.0676 25.3692 44.248L35.0177 49.8188C35.223 49.938 35.4561 50.0008 35.6935 50.0009C35.8134 50.0008 35.9326 49.985 36.0483 49.9538C36.2208 49.9082 36.3826 49.8289 36.5242 49.7203C36.6658 49.6118 36.7845 49.4763 36.8733 49.3216L40.1927 43.5724C40.3723 43.2603 40.4209 42.8897 40.3277 42.5418C40.2345 42.194 40.0071 41.8973 39.6955 41.7169L38.9776 41.3023L40.0116 37.4784C40.0208 37.4354 40.0399 37.3952 40.0672 37.3608C40.0946 37.3264 40.1295 37.2988 40.1693 37.2801V37.2801ZM35.6224 48.3632L26.3272 42.9965L29.4425 37.6007L38.7378 42.9673L35.6224 48.3632ZM38.5033 37.07L37.5775 40.4934L31.5619 37.0201L32.1021 32.2485C32.1244 32.0052 32.1988 31.7695 32.3204 31.5576C32.442 31.3456 32.6078 31.1623 32.8065 31.0202L40.8591 24.9958C41.0838 25.0181 41.2991 25.0972 41.4849 25.2258C41.6706 25.3543 41.8205 25.5279 41.9205 25.7304C42.0206 25.9329 42.0675 26.1574 42.0568 26.383C42.0461 26.6086 41.9781 26.8278 41.8594 27.0198L37.8157 30.045C37.6498 30.1691 37.54 30.3541 37.5104 30.5592C37.4809 30.7642 37.534 30.9727 37.6581 31.1386C37.7822 31.3045 37.9671 31.4143 38.1722 31.4439C38.3773 31.4734 38.5857 31.4203 38.7516 31.2962L42.9001 28.1926C42.9621 28.1462 43.0169 28.0908 43.0626 28.0283C43.4257 27.5326 43.6214 26.934 43.6213 26.3195C43.6211 25.705 43.4252 25.1065 43.0618 24.6109L45.1867 14.5394C45.2651 14.4156 45.3776 14.3171 45.5107 14.2559C45.6438 14.1946 45.7917 14.1732 45.9367 14.1941C46.0817 14.215 46.2176 14.2775 46.3279 14.3739C46.4382 14.4703 46.5182 14.5966 46.5584 14.7375L45.6772 31.5886C45.667 31.8971 45.5743 32.1972 45.4087 32.4578C45.2431 32.7183 45.0107 32.9296 44.7357 33.0698L39.433 35.9019C39.205 36.0208 39.0044 36.1862 38.8443 36.3875C38.6842 36.5888 38.5682 36.8214 38.5036 37.0703L38.5033 37.07ZM30.0869 39.4784L30.1425 39.5104C30.2318 39.5614 30.3102 39.6296 30.3732 39.7109C30.4361 39.7923 30.4824 39.8853 30.5093 39.9846C30.5362 40.0839 30.5433 40.1876 30.53 40.2896C30.5168 40.3916 30.4835 40.49 30.4321 40.5791C30.3808 40.6683 30.3123 40.7464 30.2306 40.809C30.149 40.8716 30.0558 40.9174 29.9564 40.9439C29.857 40.9704 29.7533 40.977 29.6513 40.9633C29.5494 40.9496 29.4511 40.9159 29.3622 40.8642L29.3065 40.8321C29.2176 40.7809 29.1397 40.7126 29.0772 40.6313C29.0147 40.5499 28.9688 40.4571 28.9422 40.358C28.9156 40.2589 28.9087 40.1555 28.9221 40.0538C28.9354 39.9521 28.9686 39.854 29.0199 39.7651C29.0711 39.6762 29.1393 39.5983 29.2207 39.5358C29.3021 39.4733 29.3949 39.4274 29.494 39.4008C29.5931 39.3741 29.6964 39.3673 29.7982 39.3806C29.8999 39.3939 29.998 39.4272 30.0869 39.4784V39.4784Z"/>
</svg>
