<svg width="50" height="50" viewBox="0 0 50 50" fill="none" xmlns="http://www.w3.org/2000/svg">
<path d="M47.445 43.5729H46.8315L45.2985 35.5415C44.7873 32.8577 43.6342 30.5391 41.9636 28.8364C40.6273 27.4743 39.0396 26.6125 37.4026 26.3416C37.7725 25.5812 38.1986 24.836 38.6199 24.1C39.7468 22.131 40.8112 20.271 40.7801 18.2566C40.7035 13.4765 38.8338 8.85898 35.5153 5.25469C32.4858 1.96436 28.641 0 25.2306 0C21.8603 0 18.0499 1.92764 15.0375 5.15645C14.7573 5.45693 14.7769 5.92461 15.0814 6.20117C15.3856 6.47764 15.8598 6.4584 16.1402 6.15801C18.8737 3.22793 22.272 1.47871 25.2306 1.47871C31.1676 1.47871 38.386 8.2583 39.2062 16.9281C38.2091 14.5691 36.5023 12.7641 34.1498 11.6165C30.9746 10.0665 28.1405 9.34453 25.2305 9.34453C22.3214 9.34453 19.4865 10.0664 16.3087 11.6164C13.8998 12.7913 12.205 14.6229 11.2397 17.0843C11.491 14.0966 12.5061 11.1894 14.2084 8.61133C14.4344 8.26914 14.3364 7.81113 13.9896 7.58828C13.6429 7.36543 13.1787 7.46191 12.9527 7.8041C10.8695 10.959 9.7383 14.5735 9.68119 18.2565C9.64913 20.2351 10.4841 22.0843 11.3682 24.0421C11.7057 24.7896 12.0474 25.5465 12.3425 26.3207C8.52669 26.8915 5.22471 30.5931 4.27973 35.5414L2.74923 43.5729H2.55505C1.14619 43.5729 0 44.7051 0 46.0968V47.4789C0 48.869 1.14619 50 2.55505 50H47.445C48.8538 50 50 48.869 50 47.4789V46.0967C50 44.7051 48.8538 43.5729 47.445 43.5729V43.5729ZM43.8256 35.8149L45.3065 43.5729H38.0244L39.0674 31.766C39.1102 31.2653 38.9384 30.7797 38.5834 30.3988C38.2085 29.9964 37.678 29.7656 37.1281 29.7656H36.3392C36.4026 29.0796 36.5688 28.4104 36.8017 27.7547C40.0706 28.0675 42.9769 31.359 43.8256 35.8149V35.8149ZM34.153 20.5344C34.2396 20.2839 34.3149 20.0324 34.3748 19.7809C34.5005 19.2622 34.567 18.6989 34.567 18.1519V13.5552C36.9387 15.1088 38.3103 17.5565 38.6525 20.8489C38.2899 21.6688 37.8092 22.5094 37.3149 23.3729C36.2321 25.2649 35.0184 27.387 34.8359 29.7655H30.4325V25.5632C32.1341 24.2232 33.4993 22.4154 34.1488 20.5467C34.15 20.5426 34.1517 20.5386 34.153 20.5344V20.5344ZM26.8608 25.8962C26.2071 26.1289 25.6556 26.2518 25.1294 26.2814C24.6009 26.2516 24.0486 26.1288 23.3955 25.8963C21.2224 25.1216 19.2268 23.3156 18.1354 21.2667C18.8418 21.3514 19.5557 21.3945 20.2647 21.3945C21.4404 21.3945 22.6028 21.278 23.6942 21.0452C24.0102 20.9785 24.6925 20.7151 25.2301 20.2739C25.7679 20.7157 26.4505 20.9787 26.7655 21.0448C28.5014 21.4152 30.3528 21.4896 32.1901 21.27C31.0754 23.2941 29.0313 25.1224 26.8608 25.8962V25.8962ZM28.9337 26.5693V29.7655H21.3222V26.5625C21.8294 26.852 22.3532 27.0971 22.8866 27.2872C23.6992 27.5765 24.4001 27.7269 25.0926 27.7604C25.1048 27.7609 25.1171 27.7612 25.1294 27.7612C25.1416 27.7612 25.1539 27.7609 25.1661 27.7604C25.8564 27.727 26.5564 27.5766 27.3697 27.2871C27.903 27.0969 28.4268 26.8545 28.9337 26.5693V26.5693ZM17.2945 12.7894C20.1268 11.4506 22.6577 10.8233 25.2306 10.8233C27.7751 10.8233 30.277 11.436 33.0683 12.7438V14.565H17.2945V12.7894ZM17.2945 16.0437H33.0683V18.1519C33.0683 18.5849 33.016 19.0292 32.9165 19.4396C32.8975 19.5192 32.8766 19.5989 32.8542 19.6786C30.908 20.0181 28.9214 19.9921 27.0797 19.599C26.6975 19.5188 26.0468 19.1063 25.9759 18.9036C25.97 18.8781 25.9629 18.8529 25.9544 18.8282C25.8438 18.5057 25.5276 18.2945 25.1834 18.3156C24.8456 18.3361 24.5611 18.5755 24.4858 18.9001C24.4104 19.1081 23.7616 19.5188 23.3788 19.5996C21.5595 19.9878 19.4389 20.0137 17.4924 19.6783C17.471 19.601 17.4506 19.5235 17.4321 19.446C17.3407 19.0607 17.2944 18.6852 17.2944 18.3296V16.0437H17.2945ZM11.8375 21.3395C12.1053 17.8261 13.4346 15.2379 15.7959 13.625V18.3295C15.7959 18.7984 15.8554 19.2875 15.9732 19.7839C16.0329 20.0343 16.1073 20.2843 16.1926 20.5333C16.1944 20.5391 16.1966 20.5446 16.1985 20.5503C16.8402 22.4114 18.1697 24.2054 19.8235 25.5373V29.7655H14.6754C14.5351 27.4229 13.5848 25.3176 12.7371 23.4402C12.4143 22.7252 12.0995 22.0261 11.8375 21.3395V21.3395ZM5.75252 35.815C6.20264 33.4582 7.26045 31.3453 8.73117 29.8656C9.94881 28.6405 11.3814 27.9047 12.8176 27.7529C12.9978 28.4074 13.1255 29.077 13.1735 29.7655H13.1279C12.5789 29.7655 12.0495 29.9958 11.6755 30.3974C11.3205 30.7784 11.1485 31.2645 11.1913 31.7644L12.1739 43.5729H4.27408L5.75252 35.815ZM48.5014 47.4789C48.5014 48.0537 48.0274 48.5213 47.445 48.5213H2.55505C1.9726 48.5213 1.49863 48.0536 1.49863 47.4789V46.0967C1.49863 45.5204 1.9726 45.0515 2.55505 45.0515H23.3968C23.8106 45.0515 24.1461 44.7204 24.1461 44.3121C24.1461 43.9038 23.8106 43.5728 23.3968 43.5728H13.6775L12.6847 31.6416C12.6754 31.5336 12.7307 31.4495 12.7787 31.398C12.8684 31.3017 12.9989 31.2441 13.1278 31.2441H20.5728H29.683H37.1281C37.256 31.2441 37.3908 31.3036 37.4801 31.3993C37.528 31.4508 37.5832 31.5345 37.5742 31.6395L36.5201 43.5727H26.7242C26.3104 43.5727 25.9749 43.9037 25.9749 44.312C25.9749 44.7203 26.3104 45.0514 26.7242 45.0514H46.206C46.2071 45.0514 46.2082 45.0515 46.2093 45.0515C46.2103 45.0515 46.2114 45.0514 46.2124 45.0514H47.4449C48.0273 45.0514 48.5013 45.5202 48.5013 46.0966V47.4789H48.5014Z" fill="#E40037"/>
</svg>
