<svg width="50" height="50" viewBox="0 0 50 50" fill="none" xmlns="http://www.w3.org/2000/svg">
<path d="M48.877 43.0107H46.4333C46.6216 42.6069 46.7285 42.1499 46.7285 41.6656L46.7277 19.7843C46.7277 19.3389 46.3998 18.9779 45.9953 18.9779C45.5907 18.9779 45.2629 19.339 45.2629 19.7843L45.2637 41.6656C45.2637 42.4068 44.7161 43.0097 44.043 43.0097L5.95801 43.0107C5.28486 43.0107 4.7373 42.4078 4.7373 41.6666L4.73633 13.7107C4.73633 12.9695 5.28389 12.3666 5.95703 12.3666L25.3915 12.3656C25.1396 12.8551 25.1021 13.4499 25.2999 13.9785L22.7038 13.9786C22.7023 13.9786 22.7009 13.9784 22.6994 13.9784H21.3737C21.3717 13.9784 21.3697 13.9786 21.3678 13.9786L6.93359 13.9795C6.529 13.9795 6.20117 14.3406 6.20117 14.7859L6.20186 31.8174C6.20186 32.2629 6.52979 32.6238 6.93428 32.6238C7.33887 32.6238 7.6667 32.2628 7.6667 31.8174L7.66602 15.5924L19.6942 15.5918C19.5943 16.0312 19.4825 16.5689 19.4295 16.9833C19.4208 17.0515 19.3816 17.1137 19.3247 17.1498L18.0999 17.9266C18.0429 17.9629 17.974 17.9694 17.9154 17.9433C17.4995 17.7586 16.905 17.5649 16.4793 17.4349C15.7415 17.2095 14.9578 17.5614 14.5745 18.2907L13.9126 19.55C13.5281 20.2814 13.6431 21.2055 14.192 21.7973C14.5065 22.1362 14.9555 22.604 15.309 22.9073C15.358 22.9492 15.3872 23.0171 15.3872 23.0891V24.6407C15.3872 24.7126 15.3579 24.7808 15.309 24.8227C14.9555 25.1259 14.5064 25.5937 14.192 25.9326C13.6431 26.5244 13.5281 27.4486 13.9126 28.1798L14.5745 29.4392C14.9578 30.1685 15.7411 30.5208 16.4795 30.2949C16.905 30.165 17.4995 29.9712 17.9157 29.7865C17.9737 29.7607 18.0427 29.7669 18.0998 29.8032L19.3247 30.58C19.3816 30.6161 19.4208 30.6783 19.4295 30.7465C19.492 31.2346 19.636 31.8948 19.7459 32.3624C19.9379 33.1802 20.6072 33.7514 21.3736 33.7514H22.6993C23.4657 33.7514 24.1351 33.1802 24.327 32.3625C24.4369 31.8947 24.581 31.2346 24.6435 30.7465C24.6522 30.6783 24.6914 30.6161 24.7482 30.58L25.9732 29.8032C26.0303 29.7669 26.099 29.7606 26.1575 29.7866C26.5734 29.9712 27.168 30.165 27.5937 30.295C28.3313 30.5201 29.1151 30.1685 29.4984 29.4392L30.1604 28.1798C30.5448 27.4484 30.4299 26.5244 29.881 25.9326C29.5664 25.5937 29.1175 25.1259 28.764 24.8228C28.7149 24.7807 28.6856 24.7126 28.6856 24.6407V23.0891C28.6856 23.0171 28.7148 22.9491 28.7639 22.9071C29.1174 22.604 29.5664 22.1362 29.8809 21.7973C30.4298 21.2055 30.5447 20.2813 30.1603 19.55L29.4983 18.2907C29.115 17.5614 28.3318 17.2093 27.5934 17.435C27.1679 17.5649 26.5733 17.7586 26.1571 17.9434C26.0991 17.969 26.0302 17.9628 25.973 17.9267L24.748 17.1497C24.6912 17.1137 24.6521 17.0515 24.6434 16.9834C24.5902 16.5689 24.4784 16.031 24.3786 15.5915L26.1355 15.5914C26.5398 16.2313 27.2723 16.5285 27.9649 16.3166C28.3906 16.1866 28.9854 15.9928 29.4012 15.8082C29.4592 15.7825 29.5281 15.7886 29.5853 15.8249L30.8102 16.6016C30.8671 16.6378 30.9063 16.7 30.9149 16.7682C30.9775 17.2563 31.1215 17.9165 31.2313 18.3841C31.4233 19.2019 32.0927 19.7731 32.8591 19.7731H34.1848C34.9512 19.7731 35.6205 19.2019 35.8124 18.3842C35.9224 17.9164 36.0665 17.2563 36.1289 16.7682C36.1377 16.7 36.1769 16.6378 36.2337 16.6016L37.4586 15.8249C37.5158 15.7886 37.5846 15.7823 37.643 15.8083C38.0589 15.9929 38.6534 16.1867 39.0791 16.3167C39.7714 16.528 40.504 16.2313 40.9084 15.5914H42.3328L42.3338 39.784L7.66699 39.7849L7.6668 35.2981C7.6668 34.8527 7.33887 34.4917 6.93438 34.4917C6.52979 34.4917 6.20195 34.8528 6.20195 35.2981L6.20215 40.5914C6.20215 41.0369 6.53008 41.3978 6.93457 41.3978L43.0664 41.3968C43.2606 41.3968 43.447 41.3118 43.5844 41.1605C43.7217 41.0093 43.7988 40.8043 43.7988 40.5903L43.7979 14.7849C43.7979 14.3394 43.4699 13.9784 43.0654 13.9784H41.7442C41.9421 13.4498 41.9044 12.855 41.6525 12.3655H44.042C44.7151 12.3655 45.2627 12.9684 45.2627 13.7096L45.2628 16.3635C45.2628 16.809 45.5907 17.1699 45.9952 17.1699C46.3998 17.1699 46.7276 16.8089 46.7276 16.3635L46.7275 13.7096C46.7275 12.0792 45.5228 10.7526 44.042 10.7526H40.1884C40.1778 10.7243 40.1713 10.6939 40.1713 10.6622V9.11056C40.1713 9.03862 40.2005 8.97066 40.2497 8.92862C40.6031 8.62529 41.0521 8.15754 41.3666 7.81873C41.9155 7.227 42.0305 6.30281 41.646 5.57152L40.9841 4.31216C40.6008 3.58291 39.8174 3.23054 39.0791 3.45646C38.6531 3.58657 38.0582 3.78033 37.6429 3.96485C37.5849 3.99044 37.5159 3.98431 37.4588 3.94818L36.2338 3.17119C36.177 3.13517 36.1378 3.07302 36.1291 3.00485C36.0665 2.51635 35.9225 1.85635 35.8127 1.38893C35.6207 0.571184 34.9514 0 34.185 0H32.8593C32.0929 0 31.4235 0.571184 31.2316 1.38882C31.1218 1.85646 30.9776 2.51635 30.9151 3.00474C30.9064 3.07302 30.8673 3.13517 30.8104 3.1713L29.5855 3.94807C29.5282 3.98452 29.4594 3.99065 29.4014 3.96485C28.9864 3.78055 28.3913 3.58657 27.9649 3.45635C27.2271 3.23108 26.4435 3.58291 26.0602 4.31216L25.3982 5.57152C25.0138 6.30292 25.1287 7.227 25.6776 7.81873C25.9919 8.15744 26.4407 8.62497 26.7946 8.92873C26.8437 8.97066 26.8729 9.03862 26.8729 9.11056V10.6622C26.8729 10.6938 26.8663 10.7243 26.8558 10.7526L5.95703 10.7537C4.47627 10.7537 3.27148 12.0802 3.27148 13.7107L3.27246 41.6666C3.27246 42.1505 3.3793 42.6072 3.56719 43.0107H1.12305C0.503809 43.0107 0 43.5655 0 44.2473V46.3978C0 48.3841 1.46758 50 3.27148 50H37.4868C37.8914 50 38.2192 49.639 38.2192 49.1935C38.2192 48.7481 37.8914 48.3871 37.4868 48.3871H3.27148C2.27529 48.3871 1.46484 47.4947 1.46484 46.3978V44.6236H19.7754V45.1075C19.7754 46.2636 20.6297 47.2043 21.6797 47.2043H28.3203C29.3703 47.2043 30.2246 46.2636 30.2246 45.1075V44.6236H48.5352V46.3978C48.5352 47.4947 47.7247 48.3871 46.7285 48.3871H40.648C40.2435 48.3871 39.9156 48.7481 39.9156 49.1935C39.9156 49.639 40.2435 50 40.648 50H46.7285C48.5324 50 50 48.3841 50 46.3978V44.2473C50 43.5655 49.4962 43.0107 48.877 43.0107V43.0107ZM22.9089 15.7711C23.0508 16.3754 23.1517 16.8858 23.193 17.2085C23.2653 17.7733 23.5658 18.2612 24.0172 18.5474L25.2422 19.3243C25.6928 19.6099 26.226 19.6518 26.7051 19.4391C26.9803 19.3169 27.4349 19.1571 27.9848 18.9891C28.0802 18.9597 28.1812 19.0048 28.2306 19.0985L28.8925 20.3579C28.9414 20.4509 28.9265 20.5689 28.8561 20.6447C28.4497 21.0827 28.0972 21.4345 27.8636 21.6348C27.4551 21.9852 27.2208 22.5152 27.2208 23.0891V24.6407C27.2208 25.2145 27.455 25.7446 27.8636 26.095C28.0973 26.2954 28.4497 26.6472 28.8561 27.0852C28.9265 27.161 28.9414 27.279 28.8925 27.372L28.2306 28.6314C28.1812 28.725 28.0798 28.7696 27.985 28.7409C27.4348 28.5729 26.9803 28.413 26.7053 28.2909C26.2257 28.078 25.6925 28.1198 25.242 28.4057L24.0171 29.1824C23.5656 29.4688 23.2652 29.9568 23.1929 30.5214V30.5215C23.1516 30.844 23.0507 31.3545 22.9087 31.9589C22.8839 32.0646 22.7978 32.1386 22.6992 32.1386H21.3735C21.275 32.1386 21.1889 32.0646 21.164 31.9588C21.0221 31.3545 20.9212 30.844 20.8799 30.5214C20.8075 29.9568 20.5071 29.4688 20.0557 29.1824L18.8309 28.4057C18.5701 28.2403 18.2818 28.1566 17.9923 28.1566C17.7812 28.1566 17.5696 28.2011 17.3677 28.2908C17.0925 28.413 16.6379 28.5728 16.088 28.7408C15.9924 28.7703 15.8914 28.725 15.8422 28.6314L15.1803 27.372C15.1313 27.279 15.1463 27.161 15.2167 27.0852C15.623 26.6472 15.9756 26.2954 16.2093 26.0949C16.6178 25.7445 16.852 25.2145 16.852 24.6407V23.0891C16.852 22.5152 16.6177 21.9851 16.2092 21.6349C15.9755 21.4345 15.623 21.0827 15.2167 20.6447C15.1463 20.5689 15.1313 20.4509 15.1803 20.3579L15.8422 19.0985C15.8915 19.0049 15.9931 18.9602 16.0878 18.989C16.638 19.157 17.0925 19.3169 17.3675 19.439C17.8467 19.6518 18.3799 19.61 18.8308 19.3242L20.0556 18.5475C20.507 18.2612 20.8075 17.7733 20.8799 17.2084C20.9212 16.8858 21.0221 16.3754 21.1641 15.771C21.1886 15.6664 21.2732 15.5932 21.3704 15.5916L22.7015 15.5915C22.7992 15.5927 22.8842 15.6661 22.9089 15.7711V15.7711ZM26.7024 6.66614C26.632 6.59034 26.6171 6.47238 26.666 6.37937L27.3279 5.12001C27.3771 5.02635 27.4786 4.98162 27.5735 5.01044C28.1246 5.17872 28.579 5.33861 28.8532 5.46044C29.3324 5.67335 29.8657 5.63152 30.3165 5.34571L31.5413 4.56893C31.9928 4.2827 32.2933 3.79474 32.3656 3.2299C32.4069 2.9071 32.5078 2.39667 32.6498 1.79248C32.6746 1.68678 32.7607 1.6128 32.8593 1.6128H34.185C34.2835 1.6128 34.3696 1.68678 34.3945 1.79258C34.5364 2.39667 34.6373 2.9071 34.6786 3.23001C34.751 3.79474 35.0515 4.2827 35.5028 4.56883L36.7279 5.34582C37.1786 5.63152 37.7118 5.67345 38.1909 5.46044C38.4654 5.33851 38.9199 5.17883 39.4705 5.01055C39.5657 4.98119 39.6671 5.02625 39.7163 5.12001L40.3782 6.37937C40.4271 6.47238 40.4122 6.59034 40.3418 6.66614C39.9355 7.1041 39.583 7.45593 39.3496 7.65615C38.9409 8.00658 38.7065 8.53658 38.7065 9.11056V10.6622C38.7065 11.236 38.9408 11.7662 39.3493 12.1165C39.5831 12.3169 39.9355 12.6687 40.3418 13.1067C40.4122 13.1825 40.4271 13.3005 40.3782 13.3935L39.7163 14.6528C39.6671 14.7465 39.5656 14.7912 39.4707 14.7624C38.9205 14.5943 38.466 14.4344 38.191 14.3124C37.7119 14.0996 37.1784 14.1412 36.7277 14.4271L35.5028 15.2039C35.0514 15.4902 34.751 15.9783 34.6786 16.5428V16.5429C34.6373 16.8655 34.5364 17.376 34.3944 17.9804C34.3696 18.0861 34.2835 18.16 34.185 18.16H32.8593C32.7607 18.16 32.6746 18.0861 32.6497 17.9803C32.5078 17.376 32.4069 16.8655 32.3656 16.5428C32.2933 15.9783 31.9929 15.4902 31.5414 15.2039L30.3166 14.4271C30.0559 14.2618 29.7676 14.1781 29.478 14.1781C29.267 14.1781 29.0554 14.2226 28.8534 14.3123C28.5786 14.4343 28.124 14.5941 27.5737 14.7623C27.4783 14.7916 27.3771 14.7466 27.3279 14.6528L27.1982 14.4061C27.1941 14.3976 27.1896 14.3895 27.1853 14.3813L26.666 13.3935C26.6171 13.3005 26.632 13.1825 26.7024 13.1067C27.1085 12.669 27.461 12.3172 27.695 12.1164C28.1035 11.7659 28.3377 11.2359 28.3377 10.6622V9.11056C28.3377 8.53668 28.1034 8.00658 27.695 7.65636C27.4609 7.45561 27.1085 7.10389 26.7024 6.66614V6.66614ZM28.7598 45.1075C28.7598 45.3743 28.5626 45.5914 28.3203 45.5914H21.6797C21.4374 45.5914 21.2402 45.3743 21.2402 45.1075V44.6236H28.7598V45.1075Z"/>
</svg>
