<svg width="50" height="50" viewBox="0 0 50 50" fill="none" xmlns="http://www.w3.org/2000/svg">
<path d="M49.2679 33.6521C48.1747 32.1686 46.0666 31.7782 44.505 32.7932L35.5259 38.7272C35.1356 38.9614 35.0575 39.4299 35.2917 39.8203C35.5259 40.2107 35.9944 40.2888 36.3848 40.0545L45.2858 34.1205C46.1447 33.574 47.3159 33.7301 47.9405 34.589C48.6432 35.526 48.409 36.7752 47.472 37.4779L33.2617 47.1597C31.7001 48.2528 29.7481 48.5651 27.9523 48.0186L9.2914 42.9435V35.2136C12.4146 35.2136 15.3816 34.6671 17.8801 33.4959C19.0513 32.9493 20.4567 32.9493 21.706 33.4959L31.3878 37.6341C32.0905 37.9464 32.4028 38.6491 32.1686 39.3518C31.9343 39.9765 31.3097 40.3668 30.607 40.2888L21.4717 38.6491C21.0033 38.571 20.6129 38.8833 20.5348 39.2737C20.4567 39.6641 20.769 40.1326 21.1594 40.2107L30.2947 41.8504C31.7782 42.0846 33.1055 41.3038 33.574 39.8984C34.0424 38.4149 33.3397 36.8533 31.9343 36.2287L26.3907 33.8863C26.3907 33.8082 26.3907 33.7301 26.3907 33.7301V23.9703C27.2496 24.2826 28.1865 24.5168 29.2016 24.5168C30.2166 24.5168 31.1535 24.3606 32.0124 23.9703V33.7301C32.0124 34.1986 32.3247 34.5109 32.7932 34.5109C33.2617 34.5109 33.574 34.1986 33.574 33.7301V28.9673C35.2917 28.3427 36.8533 27.4057 38.1806 26.1565L41.538 27.5619C41.9284 27.7181 42.3188 27.5619 42.5531 27.2496L44.9735 23.1114C45.2077 22.7991 45.0516 22.3306 44.7393 22.0964L41.8503 19.9101C42.0846 18.8951 42.2407 17.8801 42.2407 16.787C42.2407 15.6939 42.0846 14.6789 41.8503 13.6638L44.7393 11.4776C45.0516 11.2434 45.1297 10.7749 44.9735 10.4626L42.5531 6.3244C42.3188 6.01208 41.9284 5.85593 41.538 6.01208L38.2587 7.41751C36.7752 5.934 34.9013 4.91898 32.8713 4.29435L32.4809 0.702711C32.4028 0.312316 32.0905 0 31.7001 0H26.8592C26.4688 0 26.1565 0.312316 26.0784 0.702711L25.6099 4.29435C23.5799 4.8409 21.784 5.934 20.2225 7.41751L16.8651 6.01208C16.4747 5.85593 16.0843 6.01208 15.85 6.3244L13.4296 10.4626C13.1954 10.7749 13.3515 11.2434 13.6638 11.4776L16.5528 13.6638C16.3185 14.6789 16.1624 15.6939 16.1624 16.787C16.1624 17.8801 16.3185 18.8951 16.5528 19.9101L13.6638 22.0964C13.3515 22.3306 13.2734 22.7991 13.4296 23.1114L15.85 27.2496C16.0843 27.5619 16.4747 27.7181 16.8651 27.5619L20.2225 26.1565C21.5498 27.4057 23.1114 28.3427 24.8291 28.9673V33.2617L22.2525 32.1686C20.6129 31.4658 18.739 31.4658 17.1774 32.1686C14.835 33.1836 12.1022 33.7301 9.21332 33.7301V32.5589C9.21332 32.0905 8.90101 31.7782 8.43253 31.7782H2.967C2.57661 31.7782 2.26429 32.0905 2.18621 32.4028L0 45.9885C0 46.2228 3.4904e-08 46.457 0.156158 46.6132C0.312316 46.7693 0.546553 46.8474 0.78079 46.8474H8.43253C8.90101 46.8474 9.21332 46.5351 9.21332 46.0666V44.5831L27.4838 49.5021C29.7481 50.1267 32.1686 49.7363 34.1205 48.409L48.409 38.7272C50.1267 37.6341 50.5171 35.2917 49.2679 33.6521V33.6521ZM23.1114 16.5527C23.1895 14.9912 23.8141 13.4296 24.9072 12.3365V14.2885C24.9072 16.7089 26.8592 18.6609 29.2796 18.6609C31.7001 18.6609 33.6521 16.7089 33.6521 14.2885V12.3365C34.8232 13.5077 35.4479 15.0692 35.4479 16.7089C35.4479 20.0663 32.7151 22.8771 29.2796 22.8771C25.8442 22.9552 23.0333 20.0663 23.1114 16.5527ZM21.0813 24.5949C20.8471 24.3606 20.5348 24.2826 20.2225 24.4387L17.0212 25.8442L15.3035 22.8771L18.1143 20.769C18.3486 20.5348 18.5047 20.2225 18.4266 19.9101C18.1143 18.8951 17.9582 17.802 17.9582 16.7089C17.9582 15.6158 18.1143 14.5227 18.4266 13.5077C18.5047 13.1954 18.4266 12.883 18.1143 12.6488L15.3035 10.5407L17.0212 7.57366L20.2225 8.97909C20.5348 9.13524 20.8471 9.05716 21.0813 8.82293C22.5648 7.26135 24.5168 6.16824 26.6249 5.62169C26.9373 5.54361 27.1715 5.30937 27.2496 4.91898L27.64 1.4835H31.0754L31.4658 4.91898C31.4658 5.23129 31.7782 5.54361 32.0905 5.62169C34.1986 6.16824 36.0725 7.26135 37.556 8.82293C37.7902 9.05716 38.1026 9.13524 38.4149 8.97909L41.6161 7.57366L43.3339 10.5407L40.523 12.6488C40.2888 12.883 40.1326 13.1954 40.2107 13.5077C40.523 14.5227 40.6792 15.6158 40.6792 16.7089C40.6792 17.802 40.523 18.8951 40.2107 19.9101C40.1326 20.2225 40.2107 20.5348 40.523 20.769L43.3339 22.8771L41.6161 25.8442L38.4149 24.4387C38.1026 24.2826 37.7902 24.3606 37.556 24.5949C36.4629 25.7661 35.1356 26.6249 33.7301 27.1715V23.0333C35.9163 21.5498 37.0875 19.1294 37.0875 16.6308C37.0875 13.8981 35.6821 11.3995 33.3397 9.99411C33.1055 9.83795 32.7932 9.83795 32.5589 9.99411C32.3247 10.1503 32.1686 10.3845 32.1686 10.6968V14.2104C32.1686 15.772 30.9193 17.0212 29.3577 17.0212C27.7961 17.0212 26.5469 15.772 26.5469 14.2104V10.6968C26.5469 10.3845 26.3907 10.1503 26.1565 9.99411C25.9222 9.83795 25.6099 9.83795 25.3757 9.99411C23.1114 11.3995 21.706 13.82 21.6279 16.4747C21.5498 19.2074 22.8771 21.5498 24.9853 23.0333V27.2496C23.5018 26.6249 22.1744 25.7661 21.0813 24.5949V24.5949ZM7.65174 45.2858H1.71774L3.66971 33.2617H7.65174V45.2858Z"/>
</svg>
