<svg width="20" height="20" viewBox="0 0 20 20" fill="none" xmlns="http://www.w3.org/2000/svg">
<g clip-path="url(#clip0_3033_106)">
<rect width="20" height="20" fill="white"/>
<path d="M10.0008 5.45471C7.43705 5.45471 5.19782 6.91671 3.99916 9.09083H0L2.00083 5.45471H10.0008Z" fill="url(#paint0_linear_3033_106)"/>
<path d="M20 5.45471L19.9774 5.4951L17.9992 9.09171H10.0008C8.71769 9.09171 7.59849 9.82227 7.00293 10.9102C6.70514 11.445 6.53701 12.0649 6.53701 12.7287C6.53701 14.736 8.08699 16.3648 10.0008 16.3648C11.913 16.3648 13.4647 14.736 13.4647 12.7287V19.0289C13.0682 19.2686 12.6474 19.4706 12.2058 19.6251C11.5132 19.8684 10.7712 20.0018 10.0008 20.0018C6.17482 20.0018 3.07236 16.745 3.07236 12.7287C3.07236 12.1018 3.14848 11.4924 3.29068 10.9102C3.44793 10.2648 3.68884 9.65368 3.99917 9.09171C5.19783 6.91671 7.43705 5.45559 10.0008 5.45559H20V5.45471Z" fill="url(#paint1_linear_3033_106)"/>
<path d="M16.9284 0H13.4646V3.63612H16.9284V0Z" fill="url(#paint2_linear_3033_106)"/>
<path d="M16.9293 10.9093V12.7278C16.9293 13.9826 16.6265 15.1627 16.0945 16.1918L16.0928 16.1953L15.9263 16.4991L15.9146 16.5211C15.3099 17.5555 14.4667 18.4195 13.4655 19.028V10.9093H16.9293Z" fill="url(#paint3_linear_3033_106)"/>
<path d="M10.0008 14.5463C10.9576 14.5463 11.7331 13.7321 11.7331 12.7278C11.7331 11.7235 10.9576 10.9093 10.0008 10.9093C9.04408 10.9093 8.26849 11.7235 8.26849 12.7278C8.26849 13.7321 9.04408 14.5463 10.0008 14.5463Z" fill="url(#paint4_linear_3033_106)"/>
</g>
<defs>
<linearGradient id="paint0_linear_3033_106" x1="5.00041" y1="5.45471" x2="5.00041" y2="9.09083" gradientUnits="userSpaceOnUse">
<stop stop-color="#F86CA7"/>
<stop offset="1" stop-color="#FF7F18"/>
</linearGradient>
<linearGradient id="paint1_linear_3033_106" x1="11.5362" y1="5.45471" x2="11.5362" y2="20.0018" gradientUnits="userSpaceOnUse">
<stop stop-color="#F86CA7"/>
<stop offset="1" stop-color="#FF7F18"/>
</linearGradient>
<linearGradient id="paint2_linear_3033_106" x1="15.1965" y1="0" x2="15.1965" y2="3.63612" gradientUnits="userSpaceOnUse">
<stop stop-color="#F86CA7"/>
<stop offset="1" stop-color="#FF7F18"/>
</linearGradient>
<linearGradient id="paint3_linear_3033_106" x1="15.1974" y1="10.9093" x2="15.1974" y2="19.028" gradientUnits="userSpaceOnUse">
<stop stop-color="#F86CA7"/>
<stop offset="1" stop-color="#FF7F18"/>
</linearGradient>
<linearGradient id="paint4_linear_3033_106" x1="10.0008" y1="10.9093" x2="10.0008" y2="14.5463" gradientUnits="userSpaceOnUse">
<stop stop-color="#F86CA7"/>
<stop offset="1" stop-color="#FF7F18"/>
</linearGradient>
<clipPath id="clip0_3033_106">
<rect width="20" height="20" fill="white"/>
</clipPath>
</defs>
</svg>
