<svg width="200" height="200" viewBox="0 0 45 45" fill="none" xmlns="http://www.w3.org/2000/svg">
  <!-- Cloud shape -->
  <path d="M32.1073 7.1095C28.8082 7.1095 26.1338 9.78394 26.1338 13.083C26.1338 16.382 28.8082 19.0565 32.1073 19.0565C35.4063 19.0565 38.0808 16.382 38.0808 13.083C38.077 9.78544 35.4048 7.11314 32.1073 7.1095ZM32.1073 17.5631C29.6329 17.5631 27.6272 15.5573 27.6272 13.083C27.6272 10.6087 29.6329 8.60287 32.1073 8.60287C34.5816 8.60287 36.5874 10.6087 36.5874 13.083C36.5845 15.5561 34.5804 17.5602 32.1073 17.5631Z" fill="#F86CA7"/>

  <!-- Cloud service icon -->
  <path d="M42.3593 11.8166C42.3593 11.8166 42.3593 11.8166 42.3592 11.8166L42.3577 11.8152L39.4531 11.4007C39.0448 11.3426 38.761 10.9645 38.8191 10.5562C38.847 10.36 38.9518 10.1831 39.1103 10.0642L41.4579 8.30348C41.7878 8.05605 41.8547 7.58806 41.6072 7.25812L38.9192 3.67403C38.6717 3.34408 38.2038 3.27726 37.8738 3.52469L35.527 5.28538C35.1984 5.53468 34.7301 5.47046 34.4808 5.14192C34.3597 4.98241 34.3078 4.7809 34.3368 4.58274L34.7519 1.67813C34.8104 1.26988 34.527 0.891592 34.1188 0.832978C34.1185 0.832978 34.1183 0.832884 34.118 0.832884L29.6856 0.199694C29.2775 0.141079 28.899 0.424447 28.8404 0.832698C28.8404 0.832791 28.8404 0.832791 28.8404 0.832884L28.4252 3.73749C28.3671 4.14575 27.989 4.42958 27.5807 4.37143C27.3845 4.34352 27.2076 4.23871 27.0887 4.08022L25.3287 1.73264C25.0813 1.4027 24.6133 1.33587 24.2834 1.5833L22.0396 3.26708C21.0245 3.15919 20.0007 3.15919 18.9856 3.26708C12.3377 4.02693 7.12442 9.32859 6.47639 15.9884C6.45623 16.1997 6.44876 16.4095 6.43831 16.6193H6.2143C5.86 16.62 5.55488 16.8696 5.48404 17.2167L4.96808 19.6703L2.90125 18.2449C2.60463 18.0402 2.20403 18.0767 1.94923 18.3315L-0.290833 20.5715C0.163609 20.8263 0.200009 21.2263 0.404231 21.5228L1.82294 23.5859L-0.631103 24.1019C-0.974392 24.1771 -1.21875 24.4815 -1.21704 24.8329V27.8196C-1.21722 28.1728 -0.969779 28.4778 -0.624155 28.5506L1.8302 29.0666L0.411491 31.1297C0.207269 31.4262 0.243669 31.8263 0.498099 32.081L2.73816 34.321C2.99297 34.5758 3.39356 34.6123 3.69019 34.4076L5.75328 32.9852L6.26924 35.4396C6.34008 35.7867 6.6452 36.0363 7.0005 36.0369H10.7358C11.089 36.0371 11.394 35.7897 11.4668 35.444L11.9828 32.9897L14.0458 34.4084C14.3424 34.6126 14.7424 34.5762 14.9971 34.3218L16.1567 33.1584V35.2865C16.1601 36.3488 16.7292 37.3287 17.6501 37.8581V42.0067C17.6501 43.6562 18.9873 44.9934 20.6369 44.9934H23.6236C25.2731 44.9934 26.6103 43.6562 26.6103 42.0067V37.8581C27.5312 37.3287 28.1003 36.3488 28.1037 35.2865V33.1584L29.2634 34.3218C29.5182 34.5762 29.9183 34.6126 30.2149 34.4084L32.2779 32.9897L32.7938 35.444C32.8651 35.7897 33.1702 36.0371 33.5234 36.0369H37.2587C37.6131 36.0363 37.9182 35.7867 37.9891 35.4396L38.5051 32.9852L40.5682 34.4076C40.865 34.6123 41.2657 34.5758 41.5206 34.321L43.7612 32.081C44.0156 31.8263 44.052 31.4262 43.8478 31.1297L42.4291 29.0666L45.8843 28.5506C46.229 28.4778 46.4754 28.1728 46.4752 27.8196V24.8329C46.476 24.4815 46.2315 24.1771 45.8873 24.1019L42.4231 23.5859L43.8418 21.5228C44.0454 21.2263 44.0818 20.8263 43.6281 20.5715L42.3593 11.8166ZM20.6369 42.2928C19.6255 42.2928 18.7983 41.4656 18.7983 40.4542V36.7653C18.7983 35.7539 19.6255 34.9267 20.6369 34.9267H26.5753C27.5867 34.9267 28.4139 35.7539 28.4139 36.7653V40.4542C28.4139 41.4656 27.5867 42.2928 26.5753 42.2928H20.6369ZM35.6501 31.1085C35.2185 31.5401 34.8961 32.0641 34.7198 32.6564H10.7358C10.5594 32.0641 10.2371 31.5401 9.80545 31.1085L8.07284 29.3759L9.80545 27.6433C10.2371 27.2117 10.5594 26.6877 10.7358 26.0955H34.7198C34.8961 26.6877 35.2185 27.2117 35.6501 27.6433L37.3827 29.3759L35.6501 31.1085ZM42.3593 16.1556C41.2894 16.1556 40.4172 15.2833 40.4172 14.2135C40.4172 13.1436 41.2894 12.2714 42.3593 12.2714C43.4292 12.2714 44.3014 13.1436 44.3014 14.2135C44.3014 15.2833 43.4292 16.1556 42.3593 16.1556Z" fill="#F86CA7"/>

  <!-- Text labels -->
  <!-- <text x="15" y="30" font-family="Verdana" font-size="5" fill="black">Azure</text>
  <text x="15" y="35" font-family="Verdana" font-size="5" fill="black">Storage</text>
  <text x="15" y="40" font-family="Verdana" font-size="5" fill="black">Account</text> -->
</svg>
