<svg width="45" height="45" viewBox="0 0 45 45" fill="none" xmlns="http://www.w3.org/2000/svg">
<g clip-path="url(#clip0_1446_2050)">
<path d="M37.1461 37.7098H22.7365V37.3892C22.7365 37.0251 22.4414 36.73 22.0773 36.73C21.7131 36.73 21.418 37.0251 21.418 37.3892V37.7098H13.8184C13.4543 37.7098 13.1592 38.0049 13.1592 38.369C13.1592 38.7331 13.4543 39.0283 13.8184 39.0283H21.418V39.3489C21.418 39.713 21.7131 40.0081 22.0773 40.0081C22.4414 40.0081 22.7365 39.713 22.7365 39.3489V39.0283H37.1462C37.5104 39.0283 37.8054 38.7331 37.8054 38.369C37.8054 38.0049 37.5103 37.7098 37.1461 37.7098Z" fill="url(#paint0_linear_1446_2050)"/>
<path d="M7.19804 34.7842C5.22138 34.7842 3.61328 36.3923 3.61328 38.3689C3.61328 40.3456 5.22138 41.9537 7.19804 41.9537C9.1747 41.9537 10.7828 40.3456 10.7828 38.3689C10.7828 36.3923 9.1747 34.7842 7.19804 34.7842ZM7.19804 40.6352C5.94839 40.6352 4.93176 39.6186 4.93176 38.3689C4.93176 37.1193 5.94839 36.1027 7.19804 36.1027C8.44769 36.1027 9.46432 37.1193 9.46432 38.3689C9.46432 39.6186 8.4476 40.6352 7.19804 40.6352Z" fill="url(#paint1_linear_1446_2050)"/>
<path d="M16.9589 26.7616C17.0873 27.1017 17.4687 27.2739 17.8085 27.1456C18.1491 27.0171 18.321 26.6367 18.1924 26.2961L15.5087 19.1846C15.5065 19.1785 15.504 19.1724 15.5016 19.1665C15.3742 18.8568 15.0756 18.6567 14.74 18.6567C14.4049 18.657 14.1063 18.8577 13.9793 19.1679C13.9773 19.1729 13.9753 19.1779 13.9735 19.1829L11.265 26.2941C11.1354 26.6343 11.3063 27.0152 11.6465 27.1447C11.9863 27.2745 12.3676 27.1036 12.4972 26.7633L13.01 25.4169H16.4516C16.4515 25.417 16.9587 26.7609 16.9589 26.7616ZM13.5121 24.0985L14.7386 20.8782L15.9539 24.0985H13.5121Z" fill="url(#paint2_linear_1446_2050)"/>
<path d="M28.1403 27.1206C29.1464 27.1206 29.9918 26.4753 30.1507 25.5862C30.2706 24.9138 29.9698 24.037 28.7655 23.5927C28.4707 23.4839 28.1786 23.3676 27.8885 23.2466C27.744 23.1863 27.4344 23.0993 27.465 22.8868C27.4742 22.8226 27.5222 22.6659 27.7671 22.592C28.3635 22.4125 28.9254 22.8515 28.9447 22.867C29.2232 23.0975 29.6364 23.0606 29.8696 22.7832C30.1038 22.5045 30.0678 22.0886 29.7891 21.8544C29.7445 21.8169 28.6813 20.9398 27.3868 21.3296C26.7224 21.5297 26.2524 22.0547 26.1598 22.6996C26.0727 23.3065 26.3358 23.8904 26.8462 24.2236C27.2686 24.4993 27.8392 24.6564 28.309 24.8297C28.4493 24.8814 28.9029 25.0722 28.8526 25.3545C28.8141 25.5698 28.5309 25.8021 28.1402 25.8021C27.7101 25.8021 27.2971 25.6297 27.0354 25.3409C26.7909 25.071 26.374 25.0507 26.1043 25.2951C25.8345 25.5396 25.8139 25.9565 26.0585 26.2263C26.5736 26.7945 27.3324 27.1206 28.1403 27.1206Z" fill="url(#paint3_linear_1446_2050)"/>
<path d="M21.7004 27.1203C22.3152 27.1203 22.887 26.932 23.3609 26.61C23.4284 26.9023 23.6903 27.1203 24.0032 27.1203C24.3674 27.1203 24.6625 26.8252 24.6625 26.4611V19.5933C24.6625 19.2292 24.3674 18.9341 24.0032 18.9341C23.6391 18.9341 23.344 19.2292 23.344 19.5933V21.6951C22.8734 21.3801 22.3079 21.1961 21.7004 21.1961C20.067 21.1961 18.7383 22.5249 18.7383 24.1582C18.7383 25.7916 20.067 27.1203 21.7004 27.1203ZM21.7004 22.5145C22.6067 22.5145 23.344 23.2519 23.344 24.1581C23.344 25.0644 22.6066 25.8018 21.7004 25.8018C20.7941 25.8018 20.0568 25.0644 20.0568 24.1581C20.0568 23.2519 20.794 22.5145 21.7004 22.5145Z" fill="url(#paint4_linear_1446_2050)"/>
<path d="M36.8404 0.0458984C36.0453 0.0458984 35.2594 0.160166 34.5042 0.38545C34.1554 0.489609 33.9569 0.856761 34.0611 1.20572C34.1651 1.55459 34.5324 1.75288 34.8812 1.6489C35.5138 1.46009 36.1731 1.36437 36.8404 1.36437C40.6126 1.36437 43.6815 4.43326 43.6815 8.2055C43.6815 11.9777 40.6126 15.0466 36.8404 15.0466C33.0682 15.0466 29.9994 11.9777 29.9994 8.2055C29.9994 6.15562 30.9073 4.231 32.4907 2.9251C32.7715 2.6934 32.8114 2.2779 32.5798 1.99707C32.348 1.71614 31.9325 1.67641 31.6517 1.90802C30.611 2.76653 29.8149 3.84926 29.31 5.05769H1.97692C0.886894 5.05769 0 5.94449 0 7.03452V42.9774C0 44.0675 0.886894 44.9543 1.97692 44.9543H39.4201C40.5102 44.9543 41.397 44.0675 41.397 42.9774V14.971C43.5691 13.5034 44.9999 11.0183 44.9999 8.20541C45 3.70625 41.3396 0.0458984 36.8404 0.0458984ZM1.31848 7.03452C1.31848 6.6715 1.61381 6.37607 1.97692 6.37607H28.8871C28.7512 6.96965 28.6809 7.58265 28.6809 8.20541C28.6809 8.70661 28.7263 9.19735 28.8133 9.67376H1.31848V7.03452ZM40.0787 42.9774C40.0787 43.3405 39.7833 43.6358 39.4202 43.6358H1.97692C1.61381 43.6358 1.31848 43.3405 1.31848 42.9774V10.9922H29.171C29.3883 11.5883 29.6732 12.1521 30.0163 12.6744H4.87546C4.16752 12.6744 3.59161 13.2503 3.59161 13.9583V31.8864C3.59161 32.5943 4.16761 33.1702 4.87546 33.1702H11.06C11.4241 33.1702 11.7192 32.8751 11.7192 32.511C11.7192 32.1469 11.4241 31.8517 11.06 31.8517H4.91V13.9929H31.094C32.4918 15.3809 34.388 16.2675 36.487 16.3575V31.8518H14.0999C13.7357 31.8518 13.4406 32.147 13.4406 32.5111C13.4406 32.8751 13.7357 33.1703 14.0999 33.1703H36.5217C37.2296 33.1703 37.8055 32.5944 37.8055 31.8865V16.3082C38.6039 16.2137 39.3674 16.0035 40.0786 15.6948V42.9774H40.0787Z" fill="url(#paint5_linear_1446_2050)"/>
<path d="M37.0035 10.9741C36.2671 10.9741 35.5566 10.6752 35.1029 10.1744C34.8584 9.90467 34.4415 9.8841 34.1717 10.1286C33.9018 10.3732 33.8813 10.79 34.1259 11.0598C34.6492 11.6374 35.3831 12.0408 36.1812 12.2073V12.9481C36.1812 13.3121 36.4763 13.6073 36.8404 13.6073C37.2046 13.6073 37.4997 13.3121 37.4997 12.9481V12.2516C38.6093 12.0663 39.5135 11.2732 39.6938 10.2634C39.9733 8.69765 38.5214 7.84442 37.2454 7.44967C36.6077 7.25233 36.0055 7.06599 35.7823 6.62061C35.5396 6.13594 35.8595 5.66392 36.3494 5.51634C37.4207 5.19349 38.3937 5.96884 38.4183 5.98888C38.6969 6.22094 39.111 6.18428 39.3447 5.90643C39.5789 5.62771 39.543 5.21186 39.2642 4.97761C39.222 4.9421 38.5149 4.35881 37.4998 4.17387V3.46295C37.4998 3.09887 37.2047 2.80371 36.8405 2.80371C36.4764 2.80371 36.1813 3.09887 36.1813 3.46295V4.19787C36.1111 4.21386 36.0404 4.2325 35.9692 4.25386C35.3256 4.44776 34.8091 4.9007 34.5523 5.49683C34.3114 6.05569 34.3297 6.66465 34.6037 7.21137C35.0785 8.15936 36.0639 8.46419 36.8557 8.70925C37.4347 8.88839 38.5416 9.21669 38.3961 10.0317C38.3132 10.4948 37.7697 10.9741 37.0035 10.9741Z" fill="url(#paint6_linear_1446_2050)"/>
<path d="M7.56298 37.8221C7.4924 37.7738 7.41241 37.7391 7.32653 37.7223C6.92308 37.6433 6.53809 37.9617 6.53809 38.3692C6.53809 38.7162 6.85118 39.0285 7.19732 39.0285C7.55252 39.0285 7.85656 38.7282 7.85656 38.3692C7.85665 38.1482 7.73948 37.9428 7.56298 37.8221Z" fill="url(#paint7_linear_1446_2050)"/>
</g>
<defs>
<linearGradient id="paint0_linear_1446_2050" x1="12.6663" y1="38.3691" x2="37.8054" y2="38.3691" gradientUnits="userSpaceOnUse">
<stop stop-color="#F86CA7"/>
<stop offset="1" stop-color="#FF7F18"/>
</linearGradient>
<linearGradient id="paint1_linear_1446_2050" x1="3.46989" y1="38.3689" x2="10.7828" y2="38.3689" gradientUnits="userSpaceOnUse">
<stop stop-color="#F86CA7"/>
<stop offset="1" stop-color="#FF7F18"/>
</linearGradient>
<linearGradient id="paint2_linear_1446_2050" x1="11.0814" y1="22.9224" x2="18.2351" y2="22.9224" gradientUnits="userSpaceOnUse">
<stop stop-color="#F86CA7"/>
<stop offset="1" stop-color="#FF7F18"/>
</linearGradient>
<linearGradient id="paint3_linear_1446_2050" x1="25.8019" y1="24.1753" x2="30.1751" y2="24.1753" gradientUnits="userSpaceOnUse">
<stop stop-color="#F86CA7"/>
<stop offset="1" stop-color="#FF7F18"/>
</linearGradient>
<linearGradient id="paint4_linear_1446_2050" x1="18.6198" y1="23.0272" x2="24.6625" y2="23.0272" gradientUnits="userSpaceOnUse">
<stop stop-color="#F86CA7"/>
<stop offset="1" stop-color="#FF7F18"/>
</linearGradient>
<linearGradient id="paint5_linear_1446_2050" x1="-0.899998" y1="22.5001" x2="44.9999" y2="22.5001" gradientUnits="userSpaceOnUse">
<stop stop-color="#F86CA7"/>
<stop offset="1" stop-color="#FF7F18"/>
</linearGradient>
<linearGradient id="paint6_linear_1446_2050" x1="33.8396" y1="8.20551" x2="39.7287" y2="8.20551" gradientUnits="userSpaceOnUse">
<stop stop-color="#F86CA7"/>
<stop offset="1" stop-color="#FF7F18"/>
</linearGradient>
<linearGradient id="paint7_linear_1446_2050" x1="6.51172" y1="38.3693" x2="7.85656" y2="38.3693" gradientUnits="userSpaceOnUse">
<stop stop-color="#F86CA7"/>
<stop offset="1" stop-color="#FF7F18"/>
</linearGradient>
<clipPath id="clip0_1446_2050">
<rect width="45" height="45" fill="white"/>
</clipPath>
</defs>
</svg>
