<svg width="45" height="45" viewBox="0 0 45 45" fill="none" xmlns="http://www.w3.org/2000/svg">
<path d="M44.3408 16.269C43.9768 16.269 43.6816 16.5641 43.6816 16.9282V36.6504C43.6816 37.9346 42.6368 38.9795 41.3525 38.9795H3.64746C2.3632 38.9795 1.31836 37.9346 1.31836 36.6504V33.7378C1.31836 33.3737 1.02322 33.0787 0.65918 33.0787C0.295137 33.0787 0 33.3737 0 33.7378V36.6504C0 38.6616 1.63626 40.2978 3.64746 40.2978H41.3525C43.3637 40.2978 45 38.6616 45 36.6504V16.9282C45 16.5642 44.7049 16.269 44.3408 16.269Z" fill="url(#paint0_linear_1446_2099)"/>
<path d="M41.3525 4.70215H22.5C22.136 4.70215 21.8408 4.9972 21.8408 5.36133C21.8408 5.72546 22.136 6.02051 22.5 6.02051H41.3525C42.6368 6.02051 43.6816 7.06535 43.6816 8.34961V11.7334H35.858V9.00624C35.858 7.91719 34.9719 7.03125 33.8779 7.03125C32.7889 7.03125 31.9029 7.91719 31.9029 9.00624V11.7334H1.31836V8.34961C1.31836 7.06535 2.3632 6.02051 3.64746 6.02051H19.6596C20.0236 6.02051 20.3187 5.72546 20.3187 5.36133C20.3187 4.9972 20.0236 4.70215 19.6596 4.70215H3.64746C1.63626 4.70215 0 6.33841 0 8.34961V30.8927C0 31.2568 0.295137 31.5519 0.65918 31.5519C1.02322 31.5519 1.31836 31.2568 1.31836 30.8927V13.0518H31.9029C31.9219 27.0521 31.8373 27.2217 31.9414 27.5123L32.8417 30.216C32.8482 30.2357 32.8556 30.2549 32.864 30.2738C33.2532 31.1561 34.5069 31.1576 34.8969 30.2738C34.9052 30.2549 34.9127 30.2356 34.9192 30.216L35.8195 27.5123C35.9142 27.2479 35.8382 27.645 35.858 13.0518H43.6816V14.092C43.6816 14.4562 43.9768 14.7512 44.3408 14.7512C44.7049 14.7512 45 14.4562 45 14.092V8.34961C45 6.33841 43.3637 4.70215 41.3525 4.70215ZM33.2213 20.3902H34.5396V26.6308H33.2213V20.3902ZM33.2213 19.0718V10.7667H34.5396V12.3722C34.5394 12.379 34.5393 12.3857 34.5393 12.3926C34.5393 12.3994 34.5394 12.4062 34.5396 12.413V19.0718H33.2213ZM33.2213 9.00624C33.2213 8.64422 33.5159 8.34961 33.883 8.34961C34.245 8.34961 34.5396 8.64422 34.5396 9.00624V9.44833H33.2213V9.00624ZM33.8804 29.1627L33.4763 27.9491H34.2845L33.8804 29.1627Z" fill="url(#paint1_linear_1446_2099)"/>
<path d="M3.55957 8.84814C3.55957 9.98703 4.48611 10.9136 5.625 10.9136C6.76389 10.9136 7.69043 9.98703 7.69043 8.84814C7.69043 7.70926 6.76389 6.78271 5.625 6.78271C4.48611 6.78271 3.55957 7.70926 3.55957 8.84814ZM6.37207 8.84814C6.37207 9.26009 6.03694 9.59521 5.625 9.59521C5.21306 9.59521 4.87793 9.26009 4.87793 8.84814C4.87793 8.4362 5.21306 8.10107 5.625 8.10107C6.03694 8.10107 6.37207 8.4362 6.37207 8.84814Z" fill="url(#paint2_linear_1446_2099)"/>
<path d="M8.56934 8.84814C8.56934 9.98703 9.49588 10.9136 10.6348 10.9136C11.7737 10.9136 12.7002 9.98703 12.7002 8.84814C12.7002 7.70926 11.7737 6.78271 10.6348 6.78271C9.49588 6.78271 8.56934 7.70926 8.56934 8.84814ZM11.3818 8.84814C11.3818 9.26009 11.0467 9.59521 10.6348 9.59521C10.2228 9.59521 9.8877 9.26009 9.8877 8.84814C9.8877 8.4362 10.2228 8.10107 10.6348 8.10107C11.0467 8.10107 11.3818 8.4362 11.3818 8.84814Z" fill="url(#paint3_linear_1446_2099)"/>
<path d="M13.5791 8.84814C13.5791 9.98703 14.5056 10.9136 15.6445 10.9136C16.7834 10.9136 17.71 9.98703 17.71 8.84814C17.71 7.70926 16.7834 6.78271 15.6445 6.78271C14.5056 6.78271 13.5791 7.70926 13.5791 8.84814ZM16.3916 8.84814C16.3916 9.26009 16.0565 9.59521 15.6445 9.59521C15.2326 9.59521 14.8975 9.26009 14.8975 8.84814C14.8975 8.4362 15.2326 8.10107 15.6445 8.10107C16.0565 8.10107 16.3916 8.4362 16.3916 8.84814Z" fill="url(#paint4_linear_1446_2099)"/>
<path d="M12.9199 23.4617C13.4772 23.4617 13.9307 23.0082 13.9307 22.4509V17.8806C13.9307 17.3233 13.4772 16.8699 12.9199 16.8699H8.34961C7.79229 16.8699 7.33887 17.3233 7.33887 17.8806V22.4509C7.33887 23.0082 7.79229 23.4617 8.34961 23.4617H12.9199ZM8.65723 18.1882H12.6123V22.1433H8.65723V18.1882Z" fill="url(#paint5_linear_1446_2099)"/>
<path d="M17.0508 17.4463H27.0218C27.3858 17.4463 27.681 17.1512 27.681 16.7871C27.681 16.423 27.3858 16.1279 27.0218 16.1279H17.0508C16.6867 16.1279 16.3916 16.423 16.3916 16.7871C16.3916 17.1512 16.6867 17.4463 17.0508 17.4463Z" fill="url(#paint6_linear_1446_2099)"/>
<path d="M17.0508 20.825H27.0218C27.3858 20.825 27.681 20.5299 27.681 20.1658C27.681 19.8016 27.3858 19.5066 27.0218 19.5066H17.0508C16.6867 19.5066 16.3916 19.8016 16.3916 20.1658C16.3916 20.5299 16.6867 20.825 17.0508 20.825Z" fill="url(#paint7_linear_1446_2099)"/>
<path d="M17.0508 24.1697H27.0218C27.3858 24.1697 27.681 23.8746 27.681 23.5105C27.681 23.1464 27.3858 22.8513 27.0218 22.8513H17.0508C16.6867 22.8513 16.3916 23.1464 16.3916 23.5105C16.3916 23.8746 16.6867 24.1697 17.0508 24.1697Z" fill="url(#paint8_linear_1446_2099)"/>
<path d="M6.37207 26.855C6.37207 27.2191 6.66721 27.5142 7.03125 27.5142H27.0218C27.3858 27.5142 27.681 27.2191 27.681 26.855C27.681 26.4908 27.3858 26.1958 27.0218 26.1958H7.03125C6.66721 26.1958 6.37207 26.4908 6.37207 26.855Z" fill="url(#paint9_linear_1446_2099)"/>
<path d="M7.03125 30.8586H27.0218C27.3858 30.8586 27.681 30.5636 27.681 30.1995C27.681 29.8353 27.3858 29.5403 27.0218 29.5403H7.03125C6.66721 29.5403 6.37207 29.8353 6.37207 30.1995C6.37207 30.5636 6.66721 30.8586 7.03125 30.8586Z" fill="url(#paint10_linear_1446_2099)"/>
<path d="M7.03125 34.2031H38.0552C38.4193 34.2031 38.7144 33.9081 38.7144 33.5439C38.7144 33.1798 38.4193 32.8848 38.0552 32.8848H7.03125C6.66721 32.8848 6.37207 33.1798 6.37207 33.5439C6.37207 33.9081 6.66721 34.2031 7.03125 34.2031Z" fill="url(#paint11_linear_1446_2099)"/>
<defs>
<linearGradient id="paint0_linear_1446_2099" x1="-0.9" y1="28.2834" x2="45" y2="28.2834" gradientUnits="userSpaceOnUse">
<stop stop-color="#F86CA7"/>
<stop offset="1" stop-color="#FF7F18"/>
</linearGradient>
<linearGradient id="paint1_linear_1446_2099" x1="-0.9" y1="18.127" x2="45" y2="18.127" gradientUnits="userSpaceOnUse">
<stop stop-color="#F86CA7"/>
<stop offset="1" stop-color="#FF7F18"/>
</linearGradient>
<linearGradient id="paint2_linear_1446_2099" x1="3.47695" y1="8.84815" x2="7.69043" y2="8.84815" gradientUnits="userSpaceOnUse">
<stop stop-color="#F86CA7"/>
<stop offset="1" stop-color="#FF7F18"/>
</linearGradient>
<linearGradient id="paint3_linear_1446_2099" x1="8.48672" y1="8.84815" x2="12.7002" y2="8.84815" gradientUnits="userSpaceOnUse">
<stop stop-color="#F86CA7"/>
<stop offset="1" stop-color="#FF7F18"/>
</linearGradient>
<linearGradient id="paint4_linear_1446_2099" x1="13.4965" y1="8.84815" x2="17.71" y2="8.84815" gradientUnits="userSpaceOnUse">
<stop stop-color="#F86CA7"/>
<stop offset="1" stop-color="#FF7F18"/>
</linearGradient>
<linearGradient id="paint5_linear_1446_2099" x1="7.20703" y1="20.1658" x2="13.9307" y2="20.1658" gradientUnits="userSpaceOnUse">
<stop stop-color="#F86CA7"/>
<stop offset="1" stop-color="#FF7F18"/>
</linearGradient>
<linearGradient id="paint6_linear_1446_2099" x1="16.1658" y1="16.7871" x2="27.681" y2="16.7871" gradientUnits="userSpaceOnUse">
<stop stop-color="#F86CA7"/>
<stop offset="1" stop-color="#FF7F18"/>
</linearGradient>
<linearGradient id="paint7_linear_1446_2099" x1="16.1658" y1="20.1658" x2="27.681" y2="20.1658" gradientUnits="userSpaceOnUse">
<stop stop-color="#F86CA7"/>
<stop offset="1" stop-color="#FF7F18"/>
</linearGradient>
<linearGradient id="paint8_linear_1446_2099" x1="16.1658" y1="23.5105" x2="27.681" y2="23.5105" gradientUnits="userSpaceOnUse">
<stop stop-color="#F86CA7"/>
<stop offset="1" stop-color="#FF7F18"/>
</linearGradient>
<linearGradient id="paint9_linear_1446_2099" x1="5.94589" y1="26.855" x2="27.681" y2="26.855" gradientUnits="userSpaceOnUse">
<stop stop-color="#F86CA7"/>
<stop offset="1" stop-color="#FF7F18"/>
</linearGradient>
<linearGradient id="paint10_linear_1446_2099" x1="5.94589" y1="30.1995" x2="27.681" y2="30.1995" gradientUnits="userSpaceOnUse">
<stop stop-color="#F86CA7"/>
<stop offset="1" stop-color="#FF7F18"/>
</linearGradient>
<linearGradient id="paint11_linear_1446_2099" x1="5.72522" y1="33.5439" x2="38.7144" y2="33.5439" gradientUnits="userSpaceOnUse">
<stop stop-color="#F86CA7"/>
<stop offset="1" stop-color="#FF7F18"/>
</linearGradient>
</defs>
</svg>
