<svg width="45" height="45" viewBox="0 0 45 45" fill="none" xmlns="http://www.w3.org/2000/svg">
<g clip-path="url(#clip0_1446_2074)">
<path d="M22.5 33.75H4.39453C2.94056 33.75 1.75781 32.5673 1.75781 31.1133V4.39453C1.75781 2.94056 2.94056 1.75781 4.39453 1.75781H35.8594C37.3133 1.75781 38.4961 2.94056 38.4961 4.39453V21.3107C38.4961 21.7962 38.8895 22.1896 39.375 22.1896C39.8605 22.1896 40.2539 21.7962 40.2539 21.3107V4.39453C40.2539 1.97136 38.2825 0 35.8594 0H4.39453C1.97136 0 0 1.97136 0 4.39453V31.1133C0 33.5365 1.97136 35.5078 4.39453 35.5078H22.5C22.9855 35.5078 23.3789 35.1144 23.3789 34.6289C23.3789 34.1434 22.9855 33.75 22.5 33.75Z" fill="url(#paint0_linear_1446_2074)"/>
<path d="M39.9964 25.2895C40.1598 25.1261 40.2539 24.8995 40.2539 24.6685C40.2539 24.436 40.1598 24.2105 39.9964 24.047C39.833 23.8833 39.6061 23.7896 39.375 23.7896C39.1439 23.7896 38.917 23.8833 38.7536 24.047C38.5902 24.2105 38.4961 24.4371 38.4961 24.6685C38.4961 24.8995 38.5902 25.1261 38.7536 25.2895C38.917 25.4529 39.1439 25.5474 39.375 25.5474C39.6061 25.547 39.833 25.4529 39.9964 25.2895Z" fill="url(#paint1_linear_1446_2074)"/>
<path d="M44.1211 33.75H40.9817C40.6188 32.7269 39.6417 31.9922 38.4961 31.9922C37.3504 31.9922 36.3733 32.7269 36.0104 33.75H26.0664C25.5809 33.75 25.1875 34.1434 25.1875 34.6289C25.1875 35.1144 25.5809 35.5078 26.0664 35.5078H36.0104C36.3733 36.5309 37.3504 37.2656 38.4961 37.2656C39.6417 37.2656 40.6188 36.5309 40.9817 35.5078H44.1211C44.6065 35.5078 45 35.1144 45 34.6289C45 34.1434 44.6065 33.75 44.1211 33.75ZM38.4961 35.5078C38.0113 35.5078 37.6172 35.1137 37.6172 34.6289C37.6172 34.1441 38.0113 33.75 38.4961 33.75C38.9808 33.75 39.375 34.1441 39.375 34.6289C39.375 35.1137 38.9808 35.5078 38.4961 35.5078Z" fill="url(#paint2_linear_1446_2074)"/>
<path d="M44.1214 39.106H34.1771C33.8142 38.0832 32.8374 37.3481 31.6914 37.3481C30.5457 37.3481 29.569 38.0832 29.2061 39.106H26.0664C25.5813 39.106 25.1875 39.4994 25.1875 39.9849C25.1875 40.4703 25.5813 40.8638 26.0664 40.8638H29.2061C29.569 41.8869 30.5457 42.6216 31.6914 42.6216C32.8374 42.6216 33.8142 41.8869 34.1771 40.8638H44.1214C44.6069 40.8638 45.0003 40.4703 45.0003 39.9849C45.0003 39.4994 44.6069 39.106 44.1214 39.106ZM31.6917 40.8638C31.207 40.8638 30.8128 40.4696 30.8128 39.9849C30.8128 39.5004 31.207 39.106 31.6917 39.106C32.1762 39.106 32.5707 39.5004 32.5707 39.9849C32.5707 40.4696 32.1762 40.8638 31.6917 40.8638Z" fill="url(#paint3_linear_1446_2074)"/>
<path d="M31.6914 26.6362C30.5454 26.6362 29.5686 27.3713 29.2057 28.394H26.0664C25.5809 28.394 25.1875 28.7875 25.1875 29.2729C25.1875 29.7584 25.5809 30.1519 26.0664 30.1519H29.2057C29.5686 31.175 30.5454 31.9097 31.6914 31.9097C32.8371 31.9097 33.8142 31.175 34.1767 30.1519H44.1211C44.6065 30.1519 45 29.7584 45 29.2729C45 28.7875 44.6065 28.394 44.1211 28.394H34.1767C33.8142 27.3713 32.8371 26.6362 31.6914 26.6362ZM31.6914 30.1519C31.2066 30.1519 30.8125 29.7577 30.8125 29.2729C30.8125 28.7885 31.2066 28.394 31.6914 28.394C32.1758 28.394 32.5703 28.7885 32.5703 29.2729C32.5703 29.7577 32.1758 30.1519 31.6914 30.1519Z" fill="url(#paint4_linear_1446_2074)"/>
<path d="M29.9733 18.3226C29.9733 12.8933 25.5561 8.47607 20.1268 8.47607C14.6975 8.47607 10.2803 12.8933 10.2803 18.3226C10.2803 23.7519 14.6975 28.1694 20.1268 28.1694C25.5561 28.1694 29.9733 23.7519 29.9733 18.3226ZM20.1268 26.4116C15.6667 26.4116 12.0381 22.7827 12.0381 18.3226C12.0381 13.8625 15.6667 10.2339 20.1268 10.2339C24.5869 10.2339 28.2155 13.8625 28.2155 18.3226C28.2155 22.7827 24.5869 26.4116 20.1268 26.4116Z" fill="url(#paint5_linear_1446_2074)"/>
<path d="M24.3622 16.6041L19.5941 13.5478C18.9964 13.1647 18.238 13.1382 17.6149 13.4788C16.9914 13.8197 16.6045 14.4724 16.6045 15.1827V21.2952C16.6045 22.0052 16.9914 22.6582 17.6145 22.9991C17.9057 23.1581 18.2263 23.2371 18.5463 23.2371C18.9113 23.2371 19.2755 23.1344 19.5941 22.9301L24.3626 19.8739C24.9222 19.5151 25.2562 18.904 25.2562 18.239C25.2562 17.5739 24.9222 16.9628 24.3622 16.6041ZM23.414 18.3938L18.6455 21.4501C18.5844 21.4892 18.5216 21.4913 18.4581 21.4566C18.3942 21.4219 18.3623 21.3677 18.3623 21.2952V15.1827C18.3623 15.1103 18.3946 15.056 18.4581 15.021C18.4876 15.0049 18.5175 14.9966 18.547 14.9966C18.5803 14.9966 18.6133 15.0069 18.6455 15.0279L23.414 18.0841C23.4837 18.1288 23.4984 18.193 23.4984 18.239C23.4984 18.285 23.4837 18.3488 23.414 18.3938Z" fill="url(#paint6_linear_1446_2074)"/>
<path d="M4.21875 15.8372V24.4065C4.21875 24.892 4.6122 25.2854 5.09766 25.2854C5.58311 25.2854 5.97656 24.892 5.97656 24.4065V15.8372C5.97656 15.352 5.58311 14.9583 5.09766 14.9583C4.6122 14.9583 4.21875 15.352 4.21875 15.8372Z" fill="url(#paint7_linear_1446_2074)"/>
<path d="M5.71907 11.6174C5.55565 11.4529 5.32871 11.3599 5.09766 11.3599C4.8666 11.3599 4.63966 11.4529 4.47624 11.6174C4.31282 11.7797 4.21875 12.0067 4.21875 12.2388C4.21875 12.4698 4.31282 12.6968 4.47624 12.8598C4.63966 13.0236 4.8666 13.1177 5.09766 13.1177C5.32871 13.1177 5.55565 13.0236 5.71907 12.8598C5.88249 12.6957 5.97656 12.4698 5.97656 12.2388C5.97656 12.0067 5.88249 11.7808 5.71907 11.6174Z" fill="url(#paint8_linear_1446_2074)"/>
</g>
<defs>
<linearGradient id="paint0_linear_1446_2074" x1="-0.805078" y1="17.7539" x2="40.2539" y2="17.7539" gradientUnits="userSpaceOnUse">
<stop stop-color="#F86CA7"/>
<stop offset="1" stop-color="#FF7F18"/>
</linearGradient>
<linearGradient id="paint1_linear_1446_2074" x1="38.4609" y1="24.6685" x2="40.2539" y2="24.6685" gradientUnits="userSpaceOnUse">
<stop stop-color="#F86CA7"/>
<stop offset="1" stop-color="#FF7F18"/>
</linearGradient>
<linearGradient id="paint2_linear_1446_2074" x1="24.7913" y1="34.6289" x2="45" y2="34.6289" gradientUnits="userSpaceOnUse">
<stop stop-color="#F86CA7"/>
<stop offset="1" stop-color="#FF7F18"/>
</linearGradient>
<linearGradient id="paint3_linear_1446_2074" x1="24.7912" y1="39.9849" x2="45.0003" y2="39.9849" gradientUnits="userSpaceOnUse">
<stop stop-color="#F86CA7"/>
<stop offset="1" stop-color="#FF7F18"/>
</linearGradient>
<linearGradient id="paint4_linear_1446_2074" x1="24.7913" y1="29.273" x2="45" y2="29.273" gradientUnits="userSpaceOnUse">
<stop stop-color="#F86CA7"/>
<stop offset="1" stop-color="#FF7F18"/>
</linearGradient>
<linearGradient id="paint5_linear_1446_2074" x1="9.88641" y1="18.3228" x2="29.9733" y2="18.3228" gradientUnits="userSpaceOnUse">
<stop stop-color="#F86CA7"/>
<stop offset="1" stop-color="#FF7F18"/>
</linearGradient>
<linearGradient id="paint6_linear_1446_2074" x1="16.4315" y1="18.2389" x2="25.2562" y2="18.2389" gradientUnits="userSpaceOnUse">
<stop stop-color="#F86CA7"/>
<stop offset="1" stop-color="#FF7F18"/>
</linearGradient>
<linearGradient id="paint7_linear_1446_2074" x1="4.18359" y1="20.1218" x2="5.97656" y2="20.1218" gradientUnits="userSpaceOnUse">
<stop stop-color="#F86CA7"/>
<stop offset="1" stop-color="#FF7F18"/>
</linearGradient>
<linearGradient id="paint8_linear_1446_2074" x1="4.18359" y1="12.2388" x2="5.97656" y2="12.2388" gradientUnits="userSpaceOnUse">
<stop stop-color="#F86CA7"/>
<stop offset="1" stop-color="#FF7F18"/>
</linearGradient>
<clipPath id="clip0_1446_2074">
<rect width="45" height="45" fill="white"/>
</clipPath>
</defs>
</svg>
