<svg width="36" height="36" viewBox="0 0 36 36" xmlns="http://www.w3.org/2000/svg">
<path d="M0.631578 12.7742C0.464073 12.7742 0.303429 12.8354 0.184985 12.9443C0.066541 13.0532 0 13.2008 0 13.3548V15.6774C0 15.8314 0.066541 15.9791 0.184985 16.088C0.303429 16.1969 0.464073 16.2581 0.631578 16.2581H2.00866C2.20671 17.0472 2.53516 17.8037 2.98255 18.5013L1.44813 19.912C1.38948 19.9659 1.34295 20.0299 1.31121 20.1004C1.27947 20.1708 1.26313 20.2463 1.26313 20.3226C1.26313 20.3988 1.27947 20.4743 1.31121 20.5448C1.34295 20.6152 1.38948 20.6792 1.44813 20.7332L3.34286 22.4751C3.40151 22.529 3.47114 22.5718 3.54777 22.601C3.6244 22.6302 3.70653 22.6452 3.78947 22.6452C3.87241 22.6452 3.95454 22.6302 4.03117 22.601C4.1078 22.5718 4.17742 22.529 4.23607 22.4751L5.77049 21.0644C6.5293 21.4757 7.35219 21.7777 8.21052 21.9598V23.8064C8.21052 23.9604 8.27706 24.1081 8.3955 24.217C8.51394 24.3259 8.67459 24.3871 8.84209 24.3871H11.0566C11.4611 25.8296 12.2371 27.1614 13.3192 28.2702C14.4013 29.379 15.7577 30.2321 17.2738 30.7577C18.79 31.2832 20.4214 31.4657 22.0304 31.2897C23.6393 31.1138 25.1787 30.5845 26.5184 29.7467L32.7654 35.4898C32.9413 35.6516 33.1502 35.7799 33.3801 35.8674C33.61 35.955 33.8564 36 34.1052 36C34.354 36 34.6004 35.955 34.8303 35.8674C35.0602 35.7799 35.2691 35.6516 35.445 35.4898C35.621 35.328 35.7605 35.136 35.8558 34.9247C35.951 34.7133 36 34.4868 36 34.258C36 34.0293 35.951 33.8028 35.8558 33.5914C35.7605 33.3801 35.621 33.188 35.445 33.0263L29.198 27.2831C30.583 25.413 31.1766 23.142 30.8673 20.8976C30.5579 18.6532 29.3668 16.5901 27.5183 15.0968H28.421C28.5885 15.0968 28.7492 15.0356 28.8676 14.9267C28.9861 14.8178 29.0526 14.6701 29.0526 14.5161V12.2995C29.1771 11.9961 30.9473 7.67353 30.9473 7.5484C30.9473 6.27156 30.5557 5.26414 29.7833 4.55401C29.011 3.84389 27.9151 3.48389 26.5263 3.48389C25.1374 3.48389 24.0417 3.84396 23.2692 4.55401C22.4968 5.26407 22.1052 6.27156 22.1052 7.5484C22.1052 7.618 24 12.2988 24 12.2988V13.2392C22.981 12.9305 21.9149 12.7735 20.8421 12.7742H18.2018C18.0038 11.9851 17.6753 11.2286 17.2279 10.531L18.7624 9.12027C18.821 9.06636 18.8675 9.00235 18.8993 8.9319C18.931 8.86145 18.9474 8.78594 18.9474 8.70969C18.9474 8.63343 18.931 8.55793 18.8993 8.48748C18.8675 8.41703 18.821 8.35302 18.7624 8.2991L16.8676 6.55717C16.809 6.50324 16.7394 6.46047 16.6627 6.43129C16.5861 6.40211 16.504 6.38709 16.421 6.38709C16.3381 6.38709 16.256 6.40211 16.1793 6.43129C16.1027 6.46047 16.0331 6.50324 15.9744 6.55717L14.44 7.96784C13.6812 7.55653 12.8583 7.25457 12 7.07249V5.22582C12 5.07182 11.9334 4.92413 11.815 4.81524C11.6966 4.70635 11.5359 4.64518 11.3684 4.64518H8.84209C8.67459 4.64518 8.51394 4.70635 8.3955 4.81524C8.27706 4.92413 8.21052 5.07182 8.21052 5.22582V7.07249C7.35219 7.25457 6.5293 7.55653 5.77049 7.96784L4.23607 6.55717C4.17742 6.50324 4.1078 6.46047 4.03117 6.43129C3.95454 6.40211 3.87241 6.38709 3.78947 6.38709C3.70653 6.38709 3.6244 6.40211 3.54777 6.43129C3.47114 6.46047 3.40151 6.50324 3.34286 6.55717L1.44813 8.2991C1.38948 8.35302 1.34295 8.41703 1.31121 8.48748C1.27947 8.55793 1.26313 8.63343 1.26313 8.70969C1.26313 8.78594 1.27947 8.86145 1.31121 8.9319C1.34295 9.00235 1.38948 9.06636 1.44813 9.12027L2.98255 10.531C2.53516 11.2286 2.20671 11.9851 2.00866 12.7742H0.631578ZM34.5518 33.8475C34.6119 33.9011 34.6597 33.9652 34.6926 34.036C34.7255 34.1068 34.7427 34.1829 34.7433 34.2598C34.744 34.3368 34.7279 34.4131 34.6962 34.4843C34.6644 34.5555 34.6176 34.6202 34.5584 34.6746C34.4992 34.7291 34.4288 34.7721 34.3513 34.8013C34.2739 34.8305 34.1909 34.8452 34.1071 34.8447C34.0234 34.8441 33.9407 34.8282 33.8637 34.798C33.7867 34.7678 33.717 34.7238 33.6587 34.6686L27.5232 29.028C27.8391 28.7716 28.1374 28.4973 28.4164 28.2069L34.5518 33.8475ZM23.3694 7.44562C23.4068 5.5872 24.4685 4.64518 26.5263 4.64518C28.5868 4.64518 29.6483 5.58945 29.6832 7.45237C29.5057 7.9007 28.6425 10.0091 27.9844 11.6129H25.0692L23.3694 7.44562ZM25.2631 12.7742H27.7894V13.9355H25.7295C25.5765 13.8574 25.421 13.7828 25.2631 13.7117V12.7742ZM29.6842 22.0645C29.6842 23.672 29.1657 25.2435 28.1944 26.5802C27.2231 27.9169 25.8425 28.9588 24.2272 29.5742C22.6119 30.1896 20.8343 30.3509 19.1193 30.0377C17.4043 29.7245 15.8288 28.9509 14.5919 27.8146C13.3551 26.6783 12.5125 25.2303 12.1706 23.6538C11.8288 22.0773 12.003 20.443 12.6713 18.9575C13.3396 17.4721 14.472 16.2021 15.9253 15.3082C17.3785 14.4143 19.0875 13.9366 20.836 13.9355H20.8421C23.1863 13.9379 25.4338 14.7952 27.0915 16.3191C28.7491 17.8431 29.6815 19.9093 29.6842 22.0645ZM10.1052 17.4194C9.48068 17.4194 8.87013 17.2491 8.35082 16.9301C7.83151 16.6111 7.42675 16.1576 7.18774 15.6271C6.94873 15.0967 6.88619 14.5129 7.00804 13.9497C7.12988 13.3866 7.43064 12.8693 7.87228 12.4632C8.31392 12.0572 8.8766 11.7807 9.48917 11.6687C10.1017 11.5567 10.7367 11.6142 11.3137 11.8339C11.8908 12.0536 12.3839 12.4258 12.7309 12.9032C13.0779 13.3806 13.2631 13.9419 13.2631 14.5161C13.2622 15.2858 12.9292 16.0238 12.3372 16.5681C11.7452 17.1123 10.9425 17.4185 10.1052 17.4194ZM3.14929 13.4504C3.32283 12.4956 3.71774 11.5863 4.3072 10.7842C4.3922 10.6724 4.43166 10.5366 4.41867 10.4007C4.40568 10.2648 4.34106 10.1375 4.23615 10.041L2.78786 8.70969L3.78947 7.78886L5.2376 9.12027C5.34253 9.21672 5.48104 9.27613 5.62885 9.28807C5.77666 9.30002 5.92432 9.26374 6.04594 9.1856C6.91843 8.64367 7.90751 8.28061 8.94607 8.12106C9.0935 8.09844 9.22742 8.02848 9.32403 7.92362C9.42063 7.81877 9.47366 7.68581 9.47367 7.5484V5.80646H10.7368V7.5484C10.7368 7.68582 10.7898 7.8188 10.8864 7.92367C10.9831 8.02854 11.117 8.09851 11.2644 8.12113C12.303 8.28068 13.2921 8.64374 14.1646 9.18567C14.2862 9.26381 14.4338 9.30009 14.5817 9.28815C14.7295 9.2762 14.868 9.2168 14.9729 9.12035L16.421 7.78886L17.4226 8.70969L15.9744 10.041C15.8695 10.1375 15.8049 10.2648 15.7919 10.4007C15.7789 10.5366 15.8184 10.6724 15.9034 10.7842C16.4926 11.586 16.8874 12.4948 17.0611 13.4492C16.1424 13.7915 15.2835 14.2562 14.5119 14.8282C14.5205 14.7249 14.5263 14.621 14.5263 14.5158C14.5267 13.6523 14.2281 12.8112 13.6738 12.1142C13.1195 11.4171 12.3383 10.9004 11.4433 10.6389C10.5482 10.3773 9.58583 10.3844 8.6955 10.6593C7.80517 10.9341 7.03312 11.4624 6.49115 12.1675C5.94918 12.8727 5.66544 13.7182 5.68102 14.5815C5.6966 15.4448 6.0107 16.2812 6.57781 16.9694C7.14493 17.6577 7.93562 18.1621 8.83538 18.4096C9.73513 18.6571 10.6972 18.6349 11.5824 18.3462C11.0233 19.5184 10.7354 20.7846 10.7368 22.0645C10.7369 22.4527 10.7633 22.8406 10.8158 23.2258H9.47367V21.4839C9.47367 21.3464 9.42066 21.2135 9.32405 21.1086C9.22744 21.0037 9.09351 20.9338 8.94607 20.9111C7.90751 20.7516 6.91843 20.3885 6.04594 19.8466C5.92432 19.7684 5.77666 19.7322 5.62885 19.7441C5.48104 19.7561 5.34253 19.8155 5.2376 19.9119L3.78947 21.2434L2.78786 20.3226L4.23607 18.9912C4.34098 18.8948 4.4056 18.7674 4.41859 18.6315C4.43158 18.4956 4.39212 18.3599 4.30713 18.2481C3.71766 17.4459 3.32276 16.5366 3.14921 15.5818C3.1246 15.4463 3.0485 15.3232 2.93445 15.2344C2.8204 15.1455 2.67578 15.0968 2.52631 15.0968H1.26316V13.9355H2.52631C2.67579 13.9355 2.82043 13.8867 2.9345 13.7979C3.04857 13.7091 3.12468 13.586 3.14929 13.4504Z"/>
<path d="M19.6457 3.22425C19.5708 3.36198 19.5584 3.52143 19.6114 3.66752C19.6643 3.81361 19.7783 3.93438 19.9281 4.00326L21.1912 4.5839C21.2655 4.61871 21.3465 4.63966 21.4296 4.64554C21.5127 4.65143 21.5963 4.64213 21.6754 4.61818C21.7546 4.59423 21.8279 4.55612 21.8909 4.50602C21.954 4.45593 22.0057 4.39485 22.043 4.32631C22.0803 4.25777 22.1024 4.18313 22.1082 4.10668C22.1139 4.03023 22.1032 3.95349 22.0765 3.88088C22.0498 3.80827 22.0078 3.74124 21.9528 3.68364C21.8978 3.62604 21.831 3.57901 21.7562 3.54527L20.493 2.96463C20.3432 2.89576 20.1698 2.88442 20.0109 2.93311C19.8519 2.9818 19.7206 3.08652 19.6457 3.22425Z"/>
<path d="M25.8947 0.580644V1.74193C25.8947 1.89593 25.9613 2.04362 26.0797 2.15251C26.1981 2.2614 26.3588 2.32258 26.5263 2.32258C26.6938 2.32258 26.8544 2.2614 26.9729 2.15251C27.0913 2.04362 27.1579 1.89593 27.1579 1.74193V0.580644C27.1579 0.426648 27.0913 0.278959 26.9729 0.170067C26.8544 0.0611749 26.6938 0 26.5263 0C26.3588 0 26.1981 0.0611749 26.0797 0.170067C25.9613 0.278959 25.8947 0.426648 25.8947 0.580644Z"/>
<path d="M22.4543 0.641874C22.3045 0.710752 22.1906 0.83152 22.1376 0.97761C22.0847 1.1237 22.097 1.28315 22.1719 1.42088L22.8035 2.58217C22.8402 2.65097 22.8913 2.71242 22.954 2.76297C23.0166 2.81351 23.0896 2.85215 23.1685 2.87666C23.2475 2.90118 23.331 2.91107 23.4141 2.90579C23.4973 2.9005 23.5785 2.88013 23.653 2.84586C23.7276 2.81158 23.794 2.76408 23.8485 2.70608C23.903 2.64809 23.9445 2.58076 23.9705 2.50796C23.9966 2.43517 24.0067 2.35835 24.0003 2.28195C23.9939 2.20554 23.9711 2.13105 23.9332 2.06278L23.3016 0.901494C23.2267 0.763767 23.0954 0.659041 22.9365 0.610353C22.7776 0.561666 22.6041 0.573004 22.4543 0.641874Z"/>
<path d="M29.7509 0.901661L29.1193 2.06295C29.0815 2.13122 29.0587 2.20571 29.0523 2.28211C29.0459 2.35852 29.056 2.43533 29.082 2.50813C29.1081 2.58092 29.1495 2.64826 29.204 2.70625C29.2585 2.76424 29.325 2.81175 29.3995 2.84602C29.4741 2.8803 29.5553 2.90067 29.6384 2.90595C29.7216 2.91124 29.805 2.90134 29.884 2.87683C29.963 2.85232 30.0359 2.81368 30.0986 2.76313C30.1612 2.71259 30.2124 2.65114 30.2491 2.58234L30.8806 1.42105C30.9185 1.35278 30.9413 1.27829 30.9477 1.20188C30.9541 1.12548 30.944 1.04866 30.9179 0.975869C30.8919 0.903074 30.8504 0.835738 30.7959 0.777746C30.7414 0.719753 30.675 0.67225 30.6005 0.637975C30.5259 0.6037 30.4447 0.583332 30.3616 0.578044C30.2784 0.572756 30.1949 0.582654 30.116 0.607167C30.037 0.631679 29.9641 0.670321 29.9014 0.720865C29.8388 0.771409 29.7876 0.832856 29.7509 0.901661Z"/>
<path d="M32.5596 2.96472L31.2964 3.54537C31.2216 3.57911 31.1548 3.62613 31.0998 3.68373C31.0448 3.74133 31.0028 3.80837 30.9761 3.88097C30.9495 3.95358 30.9387 4.03032 30.9444 4.10677C30.9502 4.18322 30.9723 4.25787 31.0096 4.32641C31.0469 4.39495 31.0986 4.45602 31.1617 4.50612C31.2247 4.55621 31.298 4.59433 31.3772 4.61828C31.4563 4.64222 31.5399 4.65152 31.623 4.64564C31.7061 4.63975 31.7871 4.6188 31.8614 4.58399L33.1245 4.00335C33.1994 3.96961 33.2662 3.92259 33.3212 3.86499C33.3762 3.80738 33.4182 3.74035 33.4449 3.66774C33.4715 3.59514 33.4823 3.5184 33.4765 3.44195C33.4708 3.3655 33.4486 3.29085 33.4114 3.22231C33.3741 3.15377 33.3224 3.09269 33.2593 3.0426C33.1962 2.99251 33.123 2.95439 33.0438 2.93044C32.9646 2.9065 32.8811 2.8972 32.798 2.90308C32.7149 2.90896 32.6339 2.92991 32.5596 2.96472Z"/>
<path d="M13.2631 22.0644C13.2631 23.4425 13.7076 24.7896 14.5404 25.9355C15.3732 27.0813 16.5569 27.9744 17.9417 28.5018C19.3266 29.0291 20.8505 29.1671 22.3206 28.8983C23.7908 28.6294 25.1412 27.9658 26.2012 26.9913C27.2611 26.0169 27.9829 24.7754 28.2754 23.4238C28.5678 22.0721 28.4177 20.6712 27.8441 19.398C27.2705 18.1248 26.299 17.0366 25.0527 16.271C23.8063 15.5053 22.341 15.0967 20.8421 15.0967C18.8327 15.0988 16.9063 15.8335 15.4854 17.1398C14.0646 18.446 13.2654 20.2171 13.2631 22.0644ZM27.1578 22.0644C27.1578 23.2128 26.7874 24.3354 26.0934 25.2903C25.3995 26.2452 24.4131 26.9894 23.259 27.4289C22.1049 27.8683 20.8351 27.9833 19.6099 27.7593C18.3848 27.5352 17.2594 26.9822 16.3761 26.1702C15.4929 25.3581 14.8913 24.3235 14.6476 23.1972C14.4039 22.0709 14.529 20.9034 15.007 19.8424C15.4851 18.7814 16.2946 17.8746 17.3332 17.2365C18.3718 16.5985 19.5929 16.258 20.8421 16.258C22.5165 16.2597 24.1219 16.872 25.3059 17.9606C26.4899 19.0491 27.1559 20.525 27.1578 22.0644Z"/>
<path d="M17.0526 22.0645C17.0526 21.9105 16.9861 21.7628 16.8677 21.654C16.7492 21.5451 16.5886 21.4839 16.4211 21.4839C16.2536 21.4839 16.0929 21.5451 15.9745 21.654C15.856 21.7628 15.7895 21.9105 15.7895 22.0645C15.791 23.2961 16.3238 24.4768 17.271 25.3476C18.2183 26.2185 19.5025 26.7083 20.8421 26.7097C21.0096 26.7097 21.1703 26.6485 21.2887 26.5396C21.4072 26.4307 21.4737 26.283 21.4737 26.129C21.4737 25.975 21.4072 25.8274 21.2887 25.7185C21.1703 25.6096 21.0096 25.5484 20.8421 25.5484C19.8374 25.5474 18.8742 25.18 18.1638 24.5269C17.4534 23.8737 17.0538 22.9882 17.0526 22.0645Z"/>
</svg>
