<svg width="37" height="37" viewBox="0 0 37 37" xmlns="http://www.w3.org/2000/svg">
<path d="M0.318306 26.2015L4.00831 24.3565L6.35674 18.2477C6.38439 18.1755 6.42663 18.1097 6.48083 18.0546C6.53503 17.9994 6.60002 17.956 6.67174 17.9271L21.2433 12.1024C21.3452 12.0618 21.4567 12.0519 21.5641 12.0739C21.6716 12.0959 21.7702 12.1488 21.848 12.2261L23.7914 14.1696C23.8677 14.2474 23.9198 14.3457 23.9412 14.4526C23.9627 14.5594 23.9527 14.6702 23.9124 14.7715L18.0877 29.343C18.0588 29.4147 18.0154 29.4797 17.9602 29.5339C17.905 29.5881 17.8393 29.6304 17.7671 29.658L11.6583 32.0065L9.81331 35.6965C9.77446 35.7778 9.71662 35.8486 9.64467 35.903C9.57271 35.9573 9.48876 35.9935 9.39987 36.0086C9.36993 36.0114 9.3398 36.0114 9.30987 36.0086C9.16093 36.008 9.01831 35.9483 8.91331 35.8427L0.172054 27.1015C0.107719 27.0394 0.0591087 26.9629 0.0302505 26.8782C0.00139427 26.7936 -0.00687981 26.7033 0.00611877 26.6149C0.0212116 26.526 0.0574512 26.442 0.111782 26.3701C0.166113 26.2981 0.236944 26.2403 0.318306 26.2015ZM22.7339 14.6983L22.4217 14.389L15.1683 21.6424C15.6463 22.3198 15.8528 23.1518 15.7468 23.9741C15.6409 24.7964 15.2303 25.5489 14.5962 26.083C13.9621 26.6171 13.1506 26.8938 12.3223 26.8584C11.494 26.823 10.7092 26.4781 10.1229 25.8918C9.5367 25.3056 9.19178 24.5207 9.15638 23.6924C9.12098 22.8641 9.39767 22.0527 9.93175 21.4186C10.4658 20.7845 11.2184 20.3739 12.0407 20.2679C12.8629 20.162 13.695 20.3684 14.3724 20.8465L21.6258 13.593L21.3164 13.2808L7.31862 18.8805L5.11081 24.6236L11.3911 30.904L17.1342 28.6961L22.7339 14.6983ZM12.4655 21.364C11.96 21.3647 11.4703 21.5407 11.08 21.862C10.6896 22.1833 10.4228 22.6299 10.3248 23.1259C10.2269 23.6219 10.3039 24.1364 10.5428 24.582C10.7817 25.0275 11.1677 25.3764 11.635 25.5693C12.1023 25.7622 12.6221 25.787 13.1056 25.6397C13.5892 25.4924 14.0068 25.1819 14.2872 24.7613C14.5676 24.3406 14.6934 23.8357 14.6433 23.3327C14.5932 22.8296 14.3702 22.3595 14.0124 22.0024C13.6017 21.593 13.0453 21.3634 12.4655 21.364ZM9.15518 34.4955L10.5614 31.683L4.33737 25.459L1.52487 26.8652L9.15518 34.4955Z"/>
<path d="M25.2483 30.1025C25.3558 30.0008 25.4982 29.9442 25.6462 29.9442C25.7942 29.9442 25.9366 30.0008 26.0442 30.1025L26.7586 30.8169C28.665 28.2295 29.7166 25.1118 29.767 21.8984C29.8175 18.685 28.8641 15.5359 27.0398 12.89C26.4933 13.1907 25.864 13.3062 25.2463 13.2192C24.6285 13.1322 24.0556 12.8474 23.6134 12.4074C23.1712 11.9674 22.8834 11.3959 22.7933 10.7786C22.7032 10.1613 22.8156 9.53147 23.1136 8.98342C20.4677 7.15915 17.3186 6.20579 14.1052 6.2562C10.8917 6.30662 7.77407 7.35829 5.18671 9.26467L5.91233 9.9706C6.01694 10.0761 6.07558 10.2186 6.07546 10.3672C6.07589 10.4412 6.0617 10.5146 6.0337 10.5831C6.00571 10.6516 5.96447 10.714 5.91233 10.7665L3.43171 13.2275C3.32632 13.3322 3.18375 13.391 3.03514 13.391C2.88654 13.391 2.74397 13.3322 2.63858 13.2275L0.17202 10.7609C0.11972 10.7087 0.0782318 10.6466 0.0499268 10.5784C0.0216179 10.5101 0.00704575 10.4369 0.00704575 10.3629C0.00704575 10.289 0.0216179 10.2158 0.0499268 10.1475C0.0782318 10.0793 0.11972 10.0172 0.17202 9.96498L2.63858 7.49842C2.74397 7.39365 2.88654 7.33485 3.03514 7.33485C3.18375 7.33485 3.32632 7.39365 3.43171 7.49842L4.38515 8.44623C6.73497 6.678 9.51309 5.56706 12.4342 5.2275C15.3554 4.88794 18.3142 5.33198 21.007 6.51404L17.7642 3.27967C17.3965 3.45536 16.9785 3.49512 16.5843 3.39192C16.19 3.28871 15.8451 3.0492 15.6107 2.71587C15.3763 2.38254 15.2675 1.97695 15.3036 1.57105C15.3398 1.16516 15.5186 0.785186 15.8083 0.498558C16.0979 0.21193 16.4798 0.0371718 16.886 0.00528763C17.2923 -0.0265965 17.6967 0.0864543 18.0275 0.324384C18.3584 0.562314 18.5942 0.909741 18.6933 1.30503C18.7923 1.70032 18.7481 2.11791 18.5686 2.48373L24.0417 7.96529C24.5974 7.59252 25.2653 7.42426 25.9313 7.48925C26.5973 7.55424 27.22 7.84844 27.6932 8.3216C28.1664 8.79476 28.4606 9.41753 28.5256 10.0835C28.5905 10.7495 28.4223 11.4174 28.0495 11.9731L33.5311 17.4462C33.8983 17.2673 34.3171 17.2243 34.7131 17.325C35.109 17.4257 35.4564 17.6634 35.6936 17.9961C35.9308 18.3287 36.0423 18.7346 36.0085 19.1418C35.9746 19.5489 35.7975 19.9308 35.5086 20.2197C35.2197 20.5086 34.8378 20.6857 34.4307 20.7195C34.0236 20.7534 33.6176 20.6418 33.285 20.4047C32.9523 20.1675 32.7146 19.8201 32.6139 19.4241C32.5132 19.0282 32.5562 18.6094 32.7351 18.2422L29.4923 15.0078C30.6756 17.6998 31.121 20.6583 30.7829 23.5794C30.4449 26.5005 29.3354 29.279 27.5686 31.6297L28.5192 32.5831C28.624 32.6885 28.6828 32.8311 28.6828 32.9797C28.6828 33.1283 28.624 33.2708 28.5192 33.3762L26.0526 35.8428C25.9476 35.9484 25.805 36.0081 25.6561 36.0087C25.5819 36.0088 25.5084 35.9942 25.4398 35.9657C25.3713 35.9372 25.309 35.8954 25.2567 35.8428L22.7873 33.3762C22.6826 33.2708 22.6238 33.1283 22.6238 32.9797C22.6238 32.8311 22.6826 32.6885 22.7873 32.5831L25.2483 30.1025ZM3.02952 8.68529L1.35889 10.3559L3.02952 12.0265L4.70015 10.3559L3.02952 8.68529ZM17.4436 1.31092C17.36 1.22665 17.2533 1.16911 17.1369 1.1456C17.0206 1.12209 16.8999 1.13367 16.7901 1.17886C16.6804 1.22406 16.5865 1.30084 16.5205 1.39946C16.4545 1.49808 16.4192 1.6141 16.4192 1.73279C16.4192 1.85148 16.4545 1.9675 16.5205 2.06612C16.5865 2.16474 16.6804 2.24152 16.7901 2.28672C16.8999 2.33192 17.0206 2.34349 17.1369 2.31998C17.2533 2.29647 17.36 2.23893 17.4436 2.15467C17.499 2.09929 17.543 2.03353 17.573 1.96114C17.603 1.88875 17.6185 1.81115 17.6185 1.73279C17.6185 1.65443 17.603 1.57683 17.573 1.50444C17.543 1.43206 17.499 1.36629 17.4436 1.31092ZM26.8936 9.12123C26.7302 8.95711 26.5361 8.82687 26.3223 8.73801C26.1085 8.64914 25.8792 8.60339 25.6476 8.60339C25.4161 8.60339 25.1868 8.64914 24.973 8.73801C24.7592 8.82687 24.565 8.95711 24.4017 9.12123C24.1548 9.36774 23.9866 9.68195 23.9183 10.0241C23.85 10.3662 23.8848 10.721 24.0182 11.0434C24.1516 11.3657 24.3776 11.6413 24.6676 11.8352C24.9577 12.0291 25.2987 12.1326 25.6476 12.1326C25.9965 12.1326 26.3376 12.0291 26.6277 11.8352C26.9177 11.6413 27.1437 11.3657 27.2771 11.0434C27.4105 10.721 27.4453 10.3662 27.377 10.0241C27.3087 9.68195 27.1405 9.36774 26.8936 9.12123ZM33.8573 19.415C33.9722 19.5107 34.1187 19.5601 34.268 19.5534C34.4174 19.5466 34.5589 19.4842 34.6646 19.3785C34.7703 19.2728 34.8327 19.1313 34.8395 18.9819C34.8462 18.8326 34.7968 18.6861 34.7011 18.5712C34.5885 18.4606 34.437 18.3986 34.2792 18.3986C34.1214 18.3986 33.9699 18.4606 33.8573 18.5712C33.8019 18.6266 33.7579 18.6924 33.7279 18.7648C33.6979 18.8371 33.6824 18.9147 33.6824 18.9931C33.6824 19.0715 33.6979 19.1491 33.7279 19.2215C33.7579 19.2938 33.8019 19.3596 33.8573 19.415ZM25.6476 34.639L27.3183 32.9684L25.6476 31.2978L23.977 32.9684L25.6476 34.639Z"/>
</svg>
