<svg width="36" height="36" viewBox="0 0 36 36" xmlns="http://www.w3.org/2000/svg">
<path d="M7.70972 34.3219C7.85713 34.8065 8.15587 35.231 8.56207 35.5331C8.96828 35.8351 9.46052 35.9988 9.9665 36C10.1958 36.0002 10.4239 35.9675 10.6439 35.9031L25.9807 31.2797L28.7407 30.9192C29.0476 30.8796 29.3437 30.7797 29.612 30.6253C29.8803 30.471 30.1156 30.2652 30.3043 30.0197C30.4931 29.7742 30.6316 29.4938 30.7121 29.1946C30.7925 28.8955 30.8132 28.5834 30.773 28.2762L29.3175 17.1535L33.9007 10.1157L35.031 8.40658L35.573 7.55785C35.9533 6.97506 36.0869 6.26487 35.9442 5.5835C35.8016 4.90213 35.3944 4.3054 34.8123 3.92459C34.2302 3.54377 33.5208 3.41007 32.8403 3.55288C32.1597 3.6957 31.5636 4.10333 31.1833 4.68612L30.6259 5.5426L29.511 7.24781L28.2607 9.1623L27.3278 2.05079C27.2877 1.74387 27.1876 1.44787 27.0332 1.17969C26.8788 0.911509 26.6732 0.67641 26.428 0.487824C26.1829 0.299238 25.903 0.16086 25.6044 0.0805966C25.3058 0.000333005 24.9943 -0.0202437 24.6878 0.0200423L8.39876 2.16318C7.80618 2.2398 7.26513 2.53991 6.88603 3.00227C6.50693 3.46464 6.31834 4.05442 6.35876 4.65124L1.67488 6.06192C1.07753 6.24202 0.57604 6.6522 0.280618 7.20231C-0.0148041 7.75242 -0.0799847 8.39745 0.0994001 8.99565L7.70972 34.3219ZM31.2801 6.66261L32.5033 7.46096L33.7226 8.25931L33.2426 8.99565L30.8001 7.39896L31.2801 6.66261ZM32.1549 5.31782C32.3669 4.99303 32.6991 4.76585 33.0784 4.68626C33.4577 4.60668 33.8531 4.68121 34.1775 4.89346C34.5019 5.10571 34.7288 5.43829 34.8083 5.81804C34.8878 6.19779 34.8133 6.5936 34.6013 6.9184L34.3613 7.28657L31.9342 5.68599L32.1549 5.31782ZM30.1652 8.3717L31.3884 9.17005L32.6078 9.9684L25.1562 21.3933L23.933 20.595L22.7136 19.7966L30.1652 8.3717ZM21.262 23.9938L21.4942 23.2497C21.8835 23.3505 22.229 23.5765 22.4775 23.893L21.8891 24.4046C21.8256 24.4623 21.7448 24.4973 21.6593 24.5041C21.5739 24.5109 21.4885 24.4891 21.4168 24.4421C21.345 24.3951 21.2909 24.3255 21.2629 24.2444C21.2349 24.1633 21.2345 24.0751 21.262 23.9938ZM23.3523 23.1295C22.9625 22.6482 22.4318 22.3012 21.8349 22.1374L22.222 20.8701L24.3471 22.2614L23.3523 23.1295ZM7.75618 3.77151C7.85197 3.64684 7.97136 3.54229 8.10751 3.46382C8.24367 3.38536 8.39394 3.33452 8.54972 3.3142L24.8388 1.17494C24.8916 1.17109 24.9446 1.17109 24.9975 1.17494C25.283 1.18074 25.5571 1.28865 25.7701 1.47915C25.983 1.66964 26.1209 1.93015 26.1588 2.21356L27.2891 10.6582L24.3239 15.1964L18.4942 15.9715C18.3402 15.9813 18.1964 16.0519 18.0944 16.1678C17.9924 16.2837 17.9406 16.4355 17.9504 16.5897C17.9601 16.7438 18.0307 16.8878 18.1464 16.9899C18.2622 17.092 18.4138 17.1439 18.5678 17.1342H18.6452L23.4878 16.4715L21.4246 19.6377C21.4239 19.6506 21.4239 19.6636 21.4246 19.6765C21.4098 19.7008 21.3981 19.7268 21.3897 19.754L21.0297 20.9166L12.7768 22.0289C12.7006 22.034 12.6261 22.0541 12.5576 22.088C12.4891 22.1219 12.4279 22.169 12.3776 22.2266C12.3273 22.2841 12.2888 22.3511 12.2643 22.4236C12.2398 22.496 12.2298 22.5726 12.2349 22.649C12.24 22.7253 12.26 22.7999 12.2939 22.8685C12.3278 22.9371 12.3748 22.9983 12.4323 23.0487C12.4898 23.0991 12.5567 23.1376 12.6291 23.1621C12.7015 23.1866 12.778 23.1966 12.8542 23.1915H12.9278L20.6194 22.1839L20.1626 23.6643C20.0632 23.9859 20.0709 24.3311 20.1848 24.6478C20.2986 24.9645 20.5123 25.2356 20.7936 25.4199C21.0453 25.586 21.3399 25.6749 21.6413 25.6757C22.015 25.6733 22.3753 25.5357 22.6555 25.2882L25.7059 22.6451L25.7368 22.6102C25.7604 22.5883 25.7813 22.5636 25.7988 22.5366L28.3226 18.6611L29.6117 28.4273C29.6325 28.5829 29.6223 28.7411 29.5818 28.8927C29.5413 29.0444 29.4712 29.1865 29.3755 29.3109C29.283 29.4341 29.1668 29.5376 29.0339 29.6155C28.901 29.6933 28.754 29.7439 28.6013 29.7644L12.2968 31.9075C12.1415 31.9276 11.9838 31.9169 11.8326 31.876C11.6814 31.8351 11.5398 31.7647 11.4158 31.669C11.2918 31.5733 11.1878 31.454 11.1098 31.3181C11.0319 31.1821 10.9814 31.0321 10.9613 30.8766L7.52005 4.65512C7.47888 4.3409 7.56379 4.02316 7.75618 3.77151ZM2.01166 7.1703L6.50198 5.81776L9.80779 31.0278C9.88254 31.5926 10.1589 32.1113 10.5857 32.4881C11.0126 32.8649 11.5613 33.0744 12.1304 33.0779C12.234 33.0778 12.3375 33.0701 12.44 33.0546L18.8194 32.2175L10.3033 34.7831C10.002 34.8736 9.6771 34.8408 9.39991 34.6918C9.12272 34.5429 8.91582 34.29 8.82456 33.9886L1.21037 8.66236C1.16508 8.51172 1.14988 8.35362 1.16564 8.19709C1.1814 8.04056 1.22782 7.88868 1.30223 7.75012C1.37664 7.61156 1.4776 7.48903 1.59932 7.38954C1.72105 7.29006 1.86116 7.21556 2.01166 7.1703ZM13.7175 6.55023C13.6977 6.39763 13.7391 6.24341 13.8327 6.12136C13.9263 5.99932 14.0645 5.91941 14.2168 5.89915L23.5071 4.67449C23.5834 4.66457 23.6609 4.66978 23.7351 4.68982C23.8093 4.70987 23.8789 4.74436 23.9398 4.79132C24.0008 4.83828 24.0519 4.8968 24.0902 4.96353C24.1285 5.03027 24.1534 5.1039 24.1633 5.18024C24.1732 5.25658 24.168 5.33413 24.148 5.40846C24.1279 5.48279 24.0935 5.55244 24.0466 5.61344C23.9997 5.67443 23.9412 5.72558 23.8746 5.76397C23.8079 5.80235 23.7344 5.82721 23.6581 5.83714L14.3678 7.05791H14.2942C14.1531 7.05729 14.0169 7.00553 13.9109 6.91221C13.8049 6.81889 13.7362 6.69031 13.7175 6.55023ZM10.9071 12.2317C10.8974 12.1553 10.903 12.0777 10.9235 12.0034C10.944 11.9291 10.979 11.8597 11.0266 11.7991C11.0741 11.7385 11.1332 11.688 11.2004 11.6505C11.2676 11.613 11.3416 11.5892 11.4181 11.5806L24.1923 9.88314C24.3463 9.8631 24.5019 9.90512 24.625 9.99997C24.748 10.0948 24.8284 10.2347 24.8484 10.3889C24.8685 10.5431 24.8265 10.6989 24.7317 10.8221C24.637 10.9453 24.4973 11.0257 24.3433 11.0458L11.5575 12.7355H11.4839C11.3433 12.735 11.2076 12.6838 11.1017 12.5913C10.9958 12.4987 10.9267 12.3711 10.9071 12.2317ZM15.2465 16.9753C15.2574 17.0514 15.2531 17.129 15.2338 17.2034C15.2146 17.2779 15.1807 17.3478 15.1343 17.4091C15.0878 17.4704 15.0297 17.5218 14.9632 17.5605C14.8968 17.5991 14.8233 17.6241 14.7471 17.6341L12.2426 17.9635H12.1691C12.0151 17.9738 11.8633 17.9224 11.7472 17.8207C11.631 17.7189 11.56 17.5751 11.5497 17.4209C11.5395 17.2668 11.5908 17.1148 11.6924 16.9985C11.7941 16.8823 11.9377 16.8111 12.0917 16.8009L14.5962 16.4715C14.6719 16.4617 14.7489 16.467 14.8226 16.487C14.8963 16.507 14.9654 16.5415 15.0258 16.5883C15.0862 16.6351 15.1368 16.6933 15.1746 16.7597C15.2125 16.8262 15.2369 16.8994 15.2465 16.9753ZM12.9665 27.9041C12.9467 27.7515 12.9882 27.5973 13.0818 27.4753C13.1754 27.3532 13.3135 27.2733 13.4659 27.253L17.9213 26.6678C17.9976 26.6577 18.0751 26.6626 18.1494 26.6824C18.2238 26.7022 18.2935 26.7365 18.3546 26.7833C18.4157 26.8301 18.467 26.8885 18.5056 26.9551C18.5442 27.0217 18.5692 27.0953 18.5794 27.1717C18.5896 27.248 18.5846 27.3256 18.5648 27.4C18.545 27.4744 18.5108 27.5442 18.4641 27.6054C18.4174 27.6666 18.359 27.718 18.2925 27.7566C18.2259 27.7952 18.1524 27.8203 18.0762 27.8305L13.613 28.4041H13.5394C13.3998 28.4036 13.2651 28.3528 13.1599 28.261C13.0547 28.1692 12.986 28.0425 12.9665 27.9041Z"/>
</svg>
