<svg width="35" height="35" viewBox="0 0 35 35" xmlns="http://www.w3.org/2000/svg">
<path d="M30.375 24.7534V22.5C30.3741 21.7544 30.0775 21.0395 29.5503 20.5122C29.023 19.985 28.3081 19.6884 27.5625 19.6875H22.8274C23.348 18.7271 23.768 17.7154 24.0806 16.6686L26.2181 14.958C26.5504 14.6927 26.7933 14.332 26.914 13.9243C27.0348 13.5167 27.0276 13.0818 26.8934 12.6784C26.7592 12.275 26.5046 11.9224 26.1637 11.6683C25.8229 11.4142 25.4123 11.2707 24.9874 11.2573L26.2406 7.81144C26.5604 6.93203 26.6635 5.98851 26.5412 5.0608C26.4188 4.13309 26.0747 3.24853 25.5379 2.48207C25.0011 1.71562 24.2875 1.08985 23.4574 0.657779C22.6274 0.225712 21.7055 7.98567e-05 20.7698 5.92673e-07H15.9941C12.4207 -0.000890628 8.91914 1.00335 5.88938 2.898C5.79834 2.95439 5.7253 3.03559 5.67882 3.13206C5.63235 3.22853 5.61438 3.33626 5.62702 3.4426C5.63966 3.54893 5.68239 3.64945 5.75019 3.73233C5.81799 3.81522 5.90803 3.87703 6.00975 3.9105L7.36594 4.3605C7.5526 4.42277 7.72457 4.52252 7.8713 4.65362C8.01803 4.78473 8.13642 4.94444 8.21922 5.12294C8.30202 5.30144 8.34748 5.49498 8.3528 5.69168C8.35813 5.88838 8.32321 6.08409 8.25019 6.26681C8.11541 6.60367 8.0535 6.96524 8.06853 7.32774C8.08355 7.69025 8.17518 8.04546 8.33737 8.37L9.7875 11.2674C9.37265 11.3005 8.97732 11.4575 8.65284 11.718C8.32837 11.9786 8.08974 12.3307 7.96795 12.7287C7.84616 13.1266 7.84684 13.552 7.96989 13.9495C8.09295 14.3471 8.3327 14.6985 8.658 14.958L10.7955 16.6686C11.1078 17.7153 11.5274 18.727 12.0476 19.6875H7.3125C6.56685 19.6884 5.852 19.985 5.32475 20.5122C4.7975 21.0395 4.50089 21.7544 4.5 22.5V24.7534C3.1687 25.3095 2.03136 26.2466 1.23076 27.4469C0.430167 28.6472 0.00199487 30.0572 0 31.5V34.3125C0 34.4617 0.0592632 34.6048 0.164752 34.7102C0.270242 34.8157 0.413316 34.875 0.5625 34.875H34.3125C34.4617 34.875 34.6048 34.8157 34.7102 34.7102C34.8157 34.6048 34.875 34.4617 34.875 34.3125V31.5C34.873 30.0572 34.4448 28.6472 33.6442 27.4469C32.8436 26.2466 31.7063 25.3095 30.375 24.7534ZM21.9375 11.25H18.5625C18.4133 11.25 18.2702 11.3093 18.1648 11.4148C18.0593 11.5202 18 11.6633 18 11.8125V12.375H16.875V11.8125C16.875 11.6633 16.8157 11.5202 16.7102 11.4148C16.6048 11.3093 16.4617 11.25 16.3125 11.25H11.25V10.4259L14.7611 8.08537C15.5167 7.58062 16.4051 7.31162 17.3138 7.3125C18.6137 7.31098 19.8747 6.86857 20.8907 6.05756L21.8098 5.32238L22.7745 6.77025C23.3299 7.60133 23.6259 8.57866 23.625 9.57825V11.25H21.9375ZM21.375 12.375V14.0625C21.375 14.2117 21.3157 14.3548 21.2102 14.4602C21.1048 14.5657 20.9617 14.625 20.8125 14.625H19.6875C19.5383 14.625 19.3952 14.5657 19.2898 14.4602C19.1843 14.3548 19.125 14.2117 19.125 14.0625V12.375H21.375ZM15.75 12.375V14.0625C15.75 14.2117 15.6907 14.3548 15.5852 14.4602C15.4798 14.5657 15.3367 14.625 15.1875 14.625H14.0625C13.9133 14.625 13.7702 14.5657 13.6648 14.4602C13.5593 14.3548 13.5 14.2117 13.5 14.0625V12.375H15.75ZM25.875 13.3313C25.8753 13.4748 25.8432 13.6165 25.781 13.7458C25.7189 13.8752 25.6283 13.9888 25.5161 14.0783L24.4963 14.8939C24.645 14.0621 24.7268 13.2198 24.741 12.375H24.9187C25.0443 12.375 25.1687 12.3997 25.2847 12.4478C25.4007 12.4958 25.5061 12.5663 25.5949 12.6551C25.6837 12.7439 25.7542 12.8493 25.8022 12.9653C25.8503 13.0813 25.875 13.2057 25.875 13.3313ZM9.29419 6.68475C9.42415 6.35975 9.48634 6.01163 9.47694 5.66173C9.46754 5.31184 9.38676 4.96756 9.23954 4.65C9.09232 4.33245 8.88178 4.04832 8.62083 3.81504C8.35987 3.58177 8.05401 3.40427 7.722 3.29344L7.54987 3.23719C10.1483 1.84994 13.0486 1.12448 15.9941 1.125H20.7698C21.5245 1.12514 22.268 1.30714 22.9375 1.6556C23.6069 2.00405 24.1825 2.50869 24.6156 3.12678C25.0486 3.74488 25.3264 4.45822 25.4252 5.20642C25.5241 5.95461 25.4413 6.71562 25.1837 7.425L24.6949 8.76938C24.5727 7.83016 24.2359 6.93169 23.7105 6.14363L22.4055 4.18556C22.3622 4.12071 22.3059 4.06557 22.2401 4.02364C22.1744 3.98171 22.1006 3.95391 22.0236 3.942C21.9465 3.93037 21.8679 3.9347 21.7926 3.95473C21.7174 3.97476 21.647 4.01006 21.5859 4.05844L20.1881 5.1795C19.3715 5.8307 18.3583 6.18602 17.3138 6.1875C16.1829 6.18647 15.0771 6.52124 14.1368 7.14938L10.3753 9.657C10.3404 9.68068 10.3084 9.70823 10.2797 9.73913L9.34369 7.86656C9.25247 7.68423 9.2009 7.48465 9.19237 7.28096C9.18384 7.07726 9.21854 6.87407 9.29419 6.68475ZM9.35944 14.0794C9.20418 13.9558 9.09122 13.7869 9.03623 13.5963C8.98123 13.4056 8.98692 13.2025 9.0525 13.0152C9.11809 12.8279 9.24032 12.6657 9.40226 12.551C9.56419 12.4362 9.7578 12.3747 9.95625 12.375H10.1329C10.147 13.2202 10.2288 14.0629 10.3776 14.895L9.35944 14.0794ZM11.259 12.375H12.375V14.0625C12.375 14.5101 12.5528 14.9393 12.8693 15.2557C13.1857 15.5722 13.6149 15.75 14.0625 15.75H15.1875C15.6351 15.75 16.0643 15.5722 16.3807 15.2557C16.6972 14.9393 16.875 14.5101 16.875 14.0625V13.5H18V14.0625C18 14.5101 18.1778 14.9393 18.4943 15.2557C18.8107 15.5722 19.2399 15.75 19.6875 15.75H20.8125C21.2601 15.75 21.6893 15.5722 22.0057 15.2557C22.3222 14.9393 22.5 14.5101 22.5 14.0625V12.375H23.616C23.5723 14.9532 22.8525 17.4748 21.5286 19.6875H13.3464C12.0225 17.4748 11.3027 14.9532 11.259 12.375ZM7.3125 20.8125H27.5625C28.0101 20.8125 28.4393 20.9903 28.7557 21.3068C29.0722 21.6232 29.25 22.0524 29.25 22.5V33.75H5.625V22.5C5.625 22.0524 5.80279 21.6232 6.11926 21.3068C6.43572 20.9903 6.86495 20.8125 7.3125 20.8125ZM1.125 31.5C1.12653 30.3602 1.44239 29.243 2.03783 28.2711C2.63328 27.2992 3.48524 26.5104 4.5 25.9914V33.75H1.125V31.5ZM33.75 33.75H30.375V25.9914C31.3897 26.5105 32.2416 27.2993 32.8371 28.2711C33.4325 29.243 33.7484 30.3602 33.75 31.5V33.75Z"/>
<path d="M17.4375 32.0625C17.8825 32.0625 18.3175 31.9305 18.6875 31.6833C19.0575 31.4361 19.3459 31.0847 19.5162 30.6735C19.6865 30.2624 19.7311 29.81 19.6443 29.3735C19.5575 28.9371 19.3432 28.5362 19.0285 28.2215C18.7138 27.9068 18.3129 27.6926 17.8765 27.6057C17.44 27.5189 16.9876 27.5635 16.5765 27.7338C16.1653 27.9041 15.8139 28.1925 15.5667 28.5625C15.3195 28.9325 15.1875 29.3675 15.1875 29.8125C15.1875 30.4092 15.4246 30.9815 15.8465 31.4035C16.2685 31.8254 16.8408 32.0625 17.4375 32.0625ZM17.4375 28.6875C17.66 28.6875 17.8775 28.7535 18.0625 28.8771C18.2475 29.0007 18.3917 29.1764 18.4769 29.382C18.562 29.5875 18.5843 29.8138 18.5409 30.032C18.4975 30.2502 18.3903 30.4507 18.233 30.608C18.0757 30.7653 17.8752 30.8725 17.657 30.9159C17.4387 30.9593 17.2125 30.937 17.007 30.8519C16.8014 30.7667 16.6257 30.6225 16.5021 30.4375C16.3785 30.2525 16.3125 30.035 16.3125 29.8125C16.3125 29.5141 16.431 29.228 16.642 29.017C16.853 28.806 17.1391 28.6875 17.4375 28.6875Z"/>
<path d="M13.6648 26.8352L14.4602 26.0398L12.6079 24.1875L14.4602 22.3352L13.6648 21.5398L11.4148 23.7898C11.3094 23.8953 11.2501 24.0383 11.2501 24.1875C11.2501 24.3366 11.3094 24.4797 11.4148 24.5852L13.6648 26.8352Z"/>
<path d="M21.2102 26.8352L23.4602 24.5852C23.5656 24.4797 23.6249 24.3366 23.6249 24.1875C23.6249 24.0383 23.5656 23.8953 23.4602 23.7898L21.2102 21.5398L20.4148 22.3352L22.2671 24.1875L20.4148 26.0398L21.2102 26.8352Z"/>
<path d="M18.6754 21.6L15.2996 26.0994L16.1994 26.7745L19.5753 22.2752L18.6754 21.6Z"/>
</svg>
