<svg width="89" height="68" viewBox="0 0 89 68" fill="none" xmlns="http://www.w3.org/2000/svg">
<path d="M41.6555 48.1191C40.1588 48.1191 38.6516 47.995 37.1461 47.7424C30.0552 46.556 23.8526 42.6843 19.6805 36.8415C15.7308 31.313 14.0333 24.5615 14.9016 17.8301C15.7647 11.1359 19.079 5.06316 24.2316 0.730575C24.4958 0.508391 24.7722 0.285338 25.0521 0.0674934C25.1921 -0.0418628 25.3946 -0.0166914 25.5032 0.123909C25.6127 0.263642 25.5875 0.465859 25.4467 0.574347C25.1729 0.786984 24.9035 1.00483 24.6453 1.2218C14.268 9.94686 12.3166 25.4294 20.2029 36.4683C25.3216 43.6372 33.419 47.4612 41.6321 47.4612C46.9072 47.4612 52.2293 45.8842 56.8439 42.6027C62.5589 38.5374 66.346 32.4951 67.5063 25.5891C68.6667 18.6832 67.063 11.7391 62.9909 6.03608C62.8874 5.89114 62.9213 5.69065 63.0656 5.58824C63.2108 5.48496 63.4107 5.51881 63.5141 5.66288C67.6863 11.5065 69.3299 18.6207 68.14 25.695C66.9509 32.7702 63.0708 38.9601 57.2159 43.126C52.6083 46.4058 47.2062 48.1191 41.6555 48.1191Z" fill="#00EF7D"/>
<path d="M0.634645 32.213C0.554679 31.8979 0.12008 31.8823 0.0166453 32.1904C-0.00247705 32.2485 -0.00595384 32.3058 0.0105609 32.3674L0.0522824 32.5376L0.0974807 32.7077L0.139202 32.8743L0.1844 33.0444L0.229599 33.2145L0.274797 33.3812L0.342594 33.6155C0.416476 33.8759 0.758071 33.9366 0.915396 33.7153C0.970155 33.6355 0.985801 33.5382 0.960594 33.4454L0.896273 33.2145L0.851075 33.0479L0.805877 32.8812L0.764155 32.7146L0.718957 32.548L0.677236 32.3805L0.634645 32.213ZM28.376 62.7424C28.6593 62.8327 28.9036 62.5211 28.7488 62.2703C28.7071 62.2 28.6489 62.1548 28.5715 62.1288L28.2856 62.0385L28.1152 61.9804L27.9414 61.9222L27.7675 61.8641L27.5972 61.8033L27.3625 61.7235C27.0956 61.6306 26.8505 61.8936 26.96 62.154C26.9957 62.2373 27.06 62.2989 27.1469 62.3276L27.3851 62.4109L27.5624 62.4716L27.7362 62.5298L27.9135 62.5905L28.0874 62.6487L28.376 62.7424ZM25.3277 61.6402C25.6076 61.753 25.8718 61.457 25.7336 61.1906C25.6954 61.1264 25.6406 61.0752 25.5693 61.0457L25.399 60.9754L25.2312 60.9077L25.0669 60.8374L24.8992 60.7671L24.7349 60.6968L24.5706 60.6265L24.3933 60.5492C24.1039 60.4242 23.824 60.7419 23.9874 61.0118C24.023 61.07 24.0682 61.1081 24.1291 61.1368L24.3125 61.2175L24.4802 61.2878L24.648 61.3581L24.8157 61.4319L24.9835 61.4996L25.1538 61.5699L25.3277 61.6402ZM22.3698 60.3105C22.6401 60.4451 22.9296 60.1656 22.8105 59.8931C22.7783 59.8228 22.727 59.7707 22.6592 59.736L22.4689 59.6431L22.3116 59.5633L22.1542 59.4799L21.9969 59.3992L21.8396 59.3194L21.6823 59.2361L21.5276 59.1528C21.4119 59.0885 21.2668 59.1041 21.1668 59.1883C20.993 59.3333 21.0191 59.6093 21.2181 59.7152L21.3789 59.8019L21.5397 59.8853L21.6979 59.9686L21.8587 60.0519L22.0195 60.1352L22.1803 60.2151L22.3698 60.3105ZM19.5275 58.7553C19.6405 58.8229 19.7787 58.816 19.8848 58.7362C20.0682 58.6016 20.0525 58.3222 19.8587 58.2059L19.6849 58.1L19.5336 58.0097L19.3824 57.9169L19.2346 57.824L19.0868 57.7337L18.9356 57.6374L18.7713 57.535C18.6653 57.4647 18.5271 57.4673 18.4176 57.5384C18.2272 57.6669 18.2272 57.9498 18.4236 58.0748L18.5914 58.1807L18.7426 58.277L18.8939 58.3699L19.0451 58.4662L19.1998 58.5591L19.3511 58.6494L19.5275 58.7553ZM16.8104 56.9891C16.9165 57.0628 17.0547 57.0698 17.1677 56.9986C17.3606 56.8762 17.3702 56.6002 17.1833 56.4657L17.0451 56.3694L16.9034 56.2661L16.7617 56.1637L16.6235 56.0613L16.4819 55.9589L16.3402 55.8564L16.1507 55.715C15.916 55.5379 15.5875 55.741 15.6422 56.03C15.6587 56.1107 15.697 56.175 15.7613 56.2262L15.9577 56.3711L16.0994 56.477L16.2411 56.5829L16.3862 56.6862L16.5279 56.7886L16.6731 56.8945L16.8104 56.9891ZM14.2385 55.0163C14.3349 55.097 14.4671 55.1161 14.5827 55.0614C14.7947 54.959 14.8278 54.6761 14.6505 54.5251L14.4314 54.342L14.2993 54.2291L14.1672 54.1172L14.0351 54.0043L13.9029 53.8924L13.6778 53.6936C13.4657 53.507 13.1302 53.6676 13.1433 53.954C13.1494 54.0408 13.185 54.118 13.2528 54.1753L13.4814 54.3775L13.6135 54.493L13.7491 54.6058L13.8812 54.7212L14.0159 54.8341L14.2385 55.0163ZM11.8238 52.8578C11.9012 52.9316 12.0038 52.9611 12.1098 52.9411C12.3645 52.8899 12.4575 52.5784 12.2706 52.3952L12.1194 52.2503L11.9968 52.1279L11.8742 52.0055L11.7517 51.8832L11.5074 51.6393L11.3658 51.4944C11.1441 51.2696 10.7634 51.4622 10.8182 51.7738C10.8312 51.838 10.8564 51.8927 10.9016 51.9405L11.0494 52.088L11.1719 52.213L11.2945 52.338L11.4197 52.4603L11.5448 52.5853L11.67 52.7077L11.8238 52.8578ZM9.58043 50.5197C9.78991 50.754 10.1724 50.5839 10.1437 50.2723C10.1341 50.2046 10.108 50.1439 10.0628 50.0953L9.86639 49.8705L9.7534 49.7421L9.6404 49.6101L9.52741 49.4817L9.41441 49.3498L9.22753 49.1284C9.05022 48.9132 8.70254 49.0095 8.66082 49.2855C8.64778 49.3784 8.67385 49.4652 8.73209 49.5364L8.92505 49.7646L9.03805 49.8965L9.15104 50.0311L9.26665 50.163L9.38225 50.2949L9.58043 50.5197ZM7.52391 48.0201C7.71426 48.264 8.10627 48.1295 8.10018 47.8179C8.10018 47.7502 8.07759 47.686 8.03586 47.6313C7.96198 47.5315 7.88462 47.4326 7.81074 47.3327L7.70731 47.1947L7.60387 47.0568L7.50392 46.9153L7.40135 46.7773L7.27879 46.6037C7.20143 46.4978 7.07279 46.4492 6.94415 46.4787C6.71903 46.5299 6.62255 46.7868 6.7538 46.9769L6.87983 47.154L6.9824 47.2954L7.08496 47.4369L7.1884 47.5784L7.29444 47.7164L7.397 47.8578L7.52391 48.0201ZM5.65948 45.3704C5.79768 45.5856 6.11667 45.5596 6.22619 45.3253C6.26792 45.2255 6.25835 45.1161 6.20012 45.0232L6.04888 44.7889L5.95848 44.644L5.86548 44.499L5.77508 44.3541L5.68468 44.2065L5.59429 44.0616L5.52041 43.9392C5.36569 43.6919 4.99541 43.7561 4.93109 44.039C4.91457 44.1224 4.925 44.2031 4.96933 44.2734L5.13361 44.5433L5.22662 44.6908L5.31962 44.8384L5.41263 44.9859C5.4952 45.1161 5.57603 45.2446 5.65948 45.3704ZM4.00192 42.5914C4.0532 42.6912 4.16272 42.758 4.27571 42.758C4.52344 42.7615 4.68424 42.5011 4.56516 42.2824L4.48171 42.1279L4.31744 41.8259L4.24008 41.6714L4.15924 41.5204C4.09492 41.398 4.03408 41.2765 3.96976 41.1541C3.8472 40.9102 3.49344 40.9224 3.38739 41.1767C3.35176 41.267 3.35176 41.3598 3.39696 41.4431L3.50647 41.6618L3.58731 41.8163L3.66815 41.9708L3.75159 42.1253L3.83242 42.2798L3.91587 42.4343L4.00192 42.5914ZM2.55644 39.6943C2.65292 39.9061 2.92672 39.9512 3.08404 39.7811C3.17444 39.6848 3.19356 39.5494 3.14228 39.4313L3.03972 39.2031L2.96931 39.046L2.90151 38.8889L2.83372 38.7318L2.76592 38.5747L2.69812 38.4176L2.6338 38.2631C2.58252 38.1408 2.45996 38.0609 2.32784 38.0644C2.10272 38.0739 1.95148 38.3022 2.0384 38.5105L2.1062 38.665L2.17399 38.8255L2.24179 38.9861L2.3122 39.1467L2.37999 39.3072L2.45127 39.4643L2.55644 39.6943ZM1.33348 36.6966C1.3752 36.8085 1.47516 36.8927 1.59772 36.9057C1.83588 36.9344 2.01928 36.7035 1.93931 36.4787L1.88455 36.3338L1.82632 36.1697L1.77156 36.0092L1.71332 35.8451L1.65856 35.6811L1.60032 35.5205L1.51949 35.2732C1.42648 34.9937 1.03621 34.9746 0.917134 35.2472C0.884974 35.3209 0.881497 35.3947 0.907573 35.4719L0.991016 35.7254L1.04578 35.8894L1.10401 36.0534L1.16225 36.2209L1.22048 36.385L1.27872 36.549L1.33348 36.6966Z" fill="#FF166A"/>
<path d="M40.4536 57.548C40.3285 57.5446 40.2215 57.6062 40.1607 57.7121C40.0416 57.9238 40.1859 58.1807 40.4275 58.1903L40.6596 58.1998L40.8882 58.2059L41.1203 58.212L41.3489 58.2154L41.5775 58.2189H41.7253C41.9956 58.2189 42.1468 57.9108 41.9799 57.6956C41.9156 57.6183 41.8287 57.5767 41.7287 57.5767H41.5836L41.3585 57.5732L41.1333 57.5697L40.9047 57.5636L40.6796 57.5567L40.4536 57.548ZM76.5992 14.4001C76.5731 14.2847 76.4836 14.1944 76.3671 14.1623C76.1325 14.1041 75.916 14.3133 75.9743 14.5476C76.0325 14.808 76.0899 15.0649 76.1481 15.3253C76.2124 15.6273 76.6183 15.675 76.7531 15.3956C76.7817 15.3314 76.7913 15.2637 76.7757 15.1934C76.7218 14.9278 76.6609 14.6639 76.5992 14.4001ZM77.1277 17.1088C77.1086 16.9838 77.0216 16.884 76.8991 16.8485C76.674 16.7808 76.4549 16.9734 76.4906 17.2052C76.5549 17.6261 76.6131 18.0436 76.6644 18.4671C76.6774 18.5895 76.7574 18.6884 76.8739 18.7309C77.1025 18.8117 77.3276 18.6285 77.3024 18.3907C77.2494 17.9628 77.192 17.5358 77.1277 17.1088ZM77.4754 20.327C77.4597 20.0311 77.0764 19.9156 76.8956 20.1569C76.8504 20.2177 76.8278 20.2914 76.8348 20.3687C76.8608 20.7931 76.8765 21.2166 76.8895 21.641C76.8991 21.9587 77.3146 22.0715 77.4849 21.8016C77.5171 21.7469 77.5336 21.6862 77.5336 21.6245C77.5197 21.1915 77.5006 20.761 77.4754 20.327ZM77.5301 23.5687C77.5336 23.4367 77.4597 23.3213 77.3398 23.2666C77.1303 23.1737 76.8956 23.3213 76.8861 23.5496C76.8826 23.7613 76.873 23.974 76.8634 24.1823L76.8539 24.4105L76.8409 24.6353L76.8278 24.8219C76.8217 24.9538 76.8921 25.0788 77.0112 25.1335C77.2172 25.2298 77.4554 25.0883 77.4719 24.8636L77.4814 24.6709L77.4945 24.4426L77.5075 24.2109C77.5171 23.9991 77.5232 23.7839 77.5301 23.5687ZM77.2946 26.7999C77.3302 26.5143 76.9921 26.3312 76.7696 26.5143C76.7053 26.569 76.6661 26.6393 76.654 26.7235L76.6375 26.865L76.6114 27.0863L76.5827 27.305L76.5505 27.5263L76.5184 27.745L76.4827 27.9863C76.4636 28.1147 76.521 28.2397 76.6305 28.3109C76.8269 28.4298 77.0807 28.3144 77.1164 28.0861L77.1546 27.8387L77.1868 27.6174L77.219 27.3926L77.2476 27.1679L77.2763 26.9431L77.2946 26.7999ZM76.767 29.9964C76.7896 29.8965 76.7635 29.7976 76.6931 29.7169C76.5158 29.5207 76.1976 29.6049 76.1394 29.8644L76.0812 30.1248L76.0334 30.34L75.9847 30.5518L75.9369 30.7636L75.8856 30.9754L75.8534 31.1038C75.783 31.3737 76.0751 31.5985 76.3202 31.464C76.3976 31.4223 76.4558 31.3451 76.4775 31.2618L76.5097 31.1298L76.561 30.9146L76.6123 30.6959L76.6601 30.4807L76.7113 30.2619L76.767 29.9964ZM75.9525 33.1347C76.036 32.8613 75.7526 32.6235 75.4953 32.752C75.418 32.7936 75.3632 32.8578 75.338 32.9412L75.2998 33.0661L75.2354 33.2718L75.1676 33.4775L75.0998 33.6832L75.0294 33.8854L74.939 34.1519C74.8356 34.4504 75.1737 34.7013 75.4319 34.5181C75.4866 34.4765 75.5223 34.4279 75.5449 34.3637L75.6414 34.0937L75.7092 33.8846L75.7796 33.6754L75.8474 33.4662L75.9152 33.2571L75.9525 33.1347ZM74.8513 36.1828C74.9512 35.9415 74.7357 35.6846 74.4775 35.7462C74.3775 35.7749 74.2976 35.8391 74.2559 35.9354L74.1915 36.0925L74.1081 36.2913L74.0247 36.4874L73.9377 36.6836L73.8508 36.8762L73.7474 37.101C73.6283 37.3614 73.8795 37.6339 74.1498 37.5411C74.2307 37.509 74.295 37.4508 74.3332 37.3709L74.4366 37.1401L74.527 36.9405L74.614 36.7417L74.7009 36.543L74.7843 36.3442L74.8513 36.1828ZM73.4736 39.1189C73.6092 38.8681 73.371 38.5791 73.0972 38.6598C73.0138 38.6884 72.9495 38.7396 72.9069 38.8169L72.8199 38.9809L72.72 39.1675L72.6174 39.3541L72.514 39.5407L72.4105 39.7273L72.2915 39.9365C72.1498 40.1804 72.3723 40.4728 72.6487 40.4086C72.7356 40.3861 72.8034 40.3348 72.8486 40.2576L72.9712 40.0424L73.0772 39.8532L73.1833 39.664L73.2867 39.4748L73.3893 39.2856L73.4736 39.1189ZM71.8351 41.917C71.896 41.8242 71.9055 41.7114 71.8612 41.6089C71.7552 41.3772 71.4397 41.3555 71.298 41.5673L71.2015 41.7148L71.0859 41.8919L70.9703 42.0655L70.8512 42.2425L70.7321 42.4161L70.587 42.6218C70.5061 42.7372 70.5061 42.8882 70.5931 43.0011C70.7217 43.1746 70.9859 43.1712 71.1111 42.995L71.2589 42.7797L71.3814 42.6027L71.504 42.4256L71.6231 42.246L71.7387 42.0663L71.8351 41.917ZM69.949 44.5546C70.1359 44.3203 69.9264 43.9827 69.6335 44.0408C69.5596 44.0573 69.4918 44.0955 69.4466 44.1562L69.3501 44.2786L69.218 44.4427L69.0859 44.6067L68.9538 44.7707L68.819 44.9313L68.6391 45.143C68.4557 45.3583 68.6235 45.6924 68.9059 45.6733C68.9963 45.6673 69.0737 45.6282 69.1311 45.5614L69.1763 45.5067L69.3145 45.3427L69.4492 45.1786L69.5848 45.012L69.7195 44.8454L69.8551 44.6787L69.949 44.5546ZM67.8342 47.0117C68.0237 46.806 67.8855 46.4788 67.6091 46.4692C67.5161 46.4657 67.4318 46.5013 67.3675 46.569L67.2805 46.6593L67.1354 46.8103L66.9902 46.9613L66.8425 47.1123L66.6938 47.2599L66.5461 47.4109L66.4757 47.4812C66.2636 47.6869 66.4209 48.0436 66.7173 48.0306C66.7947 48.0271 66.8685 47.995 66.9268 47.9377L67.0007 47.8665L67.1519 47.7155L67.3031 47.561L67.4509 47.41L67.5987 47.2555L67.7464 47.101L67.8342 47.0117ZM65.5039 49.2665C65.7455 49.0478 65.5526 48.6494 65.2301 48.7075C65.1719 48.7206 65.1206 48.7431 65.0754 48.7848L65.0111 48.8429L64.8503 48.9809L64.6921 49.1189L64.5313 49.2534L64.3705 49.388L64.2097 49.5225L64.1062 49.6093C63.8846 49.7924 63.9967 50.1552 64.2836 50.1778C64.367 50.1838 64.4478 50.1621 64.5156 50.1075L64.6217 50.0172L64.7859 49.8827L64.9502 49.7447L65.111 49.6032L65.2753 49.4652L65.4361 49.3238L65.5039 49.2665ZM62.9763 51.3034C63.0728 51.2331 63.124 51.1108 63.1049 50.9919C63.0632 50.7541 62.7894 50.6421 62.5964 50.7827L62.3809 50.9398L62.2105 51.0622L62.0367 51.1845L61.8663 51.3069L61.6925 51.4258L61.5543 51.5187C61.3161 51.6862 61.3969 52.055 61.6864 52.1036C61.7672 52.1167 61.8472 52.0976 61.9185 52.0524L62.0567 51.9561L62.234 51.8337L62.4113 51.7114L62.5851 51.5864L62.759 51.4614L62.9763 51.3034ZM60.2757 53.1017C60.546 52.9351 60.4434 52.5272 60.1279 52.5046C60.0636 52.5011 60.0019 52.5176 59.9445 52.5524L59.7385 52.6747L59.5586 52.7806L59.3752 52.8865L59.1918 52.9924L59.0084 53.0983L58.8415 53.1885C58.5999 53.33 58.6294 53.6832 58.8928 53.7735C58.9832 53.8056 59.0701 53.7961 59.1535 53.7509L59.3239 53.6581L59.5108 53.5522L59.6977 53.4428L59.8845 53.3369L60.0679 53.2276L60.2757 53.1017ZM57.4238 54.6501C57.5429 54.5919 57.6133 54.467 57.6038 54.335C57.5846 54.1103 57.3465 53.9723 57.144 54.0721L56.9414 54.1684L56.7485 54.2613L56.5555 54.3515L56.3626 54.4383L56.1696 54.5251L55.9862 54.6084C55.8993 54.6466 55.8384 54.7178 55.8089 54.8072C55.728 55.071 55.9957 55.3054 56.2469 55.196L56.4338 55.1127L56.6303 55.0224L56.8267 54.9322L57.0231 54.8419L57.2196 54.749L57.4238 54.6501ZM54.4434 55.932C54.7102 55.8287 54.7232 55.4633 54.4625 55.3409C54.3817 55.3054 54.2982 55.2993 54.2148 55.3314L53.9992 55.4121L53.7993 55.4859L53.5994 55.5562L53.3968 55.6265L53.1943 55.6968L53.0144 55.7575C52.7371 55.8539 52.718 56.2358 52.9857 56.3547C53.0631 56.3902 53.1404 56.3937 53.2204 56.3677L53.4038 56.3034L53.6098 56.2332L53.8158 56.1628L54.0183 56.0891L54.2243 56.0118L54.4434 55.932ZM51.356 56.9379C51.4655 56.9092 51.5489 56.8225 51.5811 56.7096C51.6419 56.4683 51.4238 56.2531 51.1856 56.3182L50.9344 56.3859L50.7249 56.444L50.5155 56.4953L50.306 56.5499L50.0965 56.6011L49.9487 56.6367C49.6523 56.707 49.6106 57.1054 49.8844 57.2373C49.9522 57.2694 50.0226 57.279 50.0974 57.2599L50.2486 57.2243L50.4642 57.1731L50.6763 57.1184L50.8883 57.0637L51.1004 57.0091L51.356 56.9379ZM48.1886 57.6574C48.4685 57.6096 48.5493 57.2399 48.3173 57.0794C48.2469 57.0282 48.1599 57.0117 48.0756 57.0247L47.9722 57.0438L47.7566 57.0794L47.5411 57.1175L47.3255 57.1497L47.1099 57.1852L46.8944 57.2174L46.817 57.2269C46.5371 57.2651 46.4407 57.6157 46.6597 57.7954C46.7301 57.8501 46.8144 57.8752 46.9039 57.8631L46.9874 57.8535L47.2064 57.8179L47.4255 57.7858L47.6471 57.7502L47.8661 57.7121L48.0852 57.6765L48.1886 57.6574ZM44.9691 58.0844C45.2585 58.0618 45.3715 57.6895 45.1369 57.509C45.076 57.4612 44.9952 57.4387 44.9152 57.4447L44.7057 57.4612L44.4867 57.4803L44.2651 57.4934L44.0425 57.509L43.8209 57.522L43.641 57.5315C43.355 57.5446 43.229 57.9039 43.448 58.0939C43.5123 58.1486 43.5932 58.1773 43.6731 58.1747L43.8565 58.1651L44.0817 58.1521L44.3103 58.1356L44.5354 58.1191L44.7579 58.1026L44.9691 58.0844Z" fill="#FF7222"/>
<path d="M58.5727 66.9691C58.3059 67.075 58.3059 67.4569 58.5762 67.5636C58.6536 67.5957 58.737 67.5957 58.8144 67.5636C59.2168 67.4031 59.6123 67.2364 60.0087 67.0654C60.2729 66.95 60.2694 66.5838 60.0026 66.4709C59.9226 66.4388 59.8383 66.4388 59.7549 66.4744C59.3646 66.6454 58.9691 66.8085 58.5727 66.9691ZM88.8382 38.9774C88.8834 38.8681 88.8704 38.7466 88.8 38.6494C88.6487 38.4602 88.3462 38.4949 88.2498 38.717C88.1915 38.842 88.1368 38.9679 88.0794 39.0929C87.9664 39.3402 88.1915 39.6067 88.4523 39.539C88.5488 39.5129 88.6227 39.4487 88.6652 39.3593C88.7217 39.2343 88.78 39.1059 88.8382 38.9774ZM87.8273 41.1107C87.8856 40.9953 87.8691 40.8573 87.7856 40.7601C87.6344 40.5839 87.3545 40.6152 87.2511 40.8208C87.0616 41.2027 86.8651 41.5794 86.6652 41.9552C86.6044 42.0741 86.6165 42.2086 86.6974 42.3119C86.8451 42.489 87.1224 42.4629 87.2319 42.2607C87.4345 41.878 87.6344 41.4961 87.8273 41.1107ZM86.2854 43.9531C86.4331 43.6928 86.1854 43.3942 85.9021 43.4871C85.8282 43.5131 85.7699 43.5608 85.7282 43.6285C85.5161 43.9983 85.2971 44.3645 85.072 44.7238C84.9268 44.9616 85.1302 45.2602 85.4066 45.209C85.497 45.1899 85.5709 45.1413 85.6187 45.064C85.8473 44.6952 86.0663 44.3263 86.2854 43.9531ZM84.5731 46.6966C84.6443 46.5907 84.6443 46.4553 84.5765 46.3468C84.454 46.1507 84.1671 46.1446 84.0359 46.3373C83.8012 46.694 83.5596 47.0437 83.3153 47.3944C83.238 47.5037 83.2345 47.6478 83.3119 47.7606C83.437 47.9438 83.7108 47.9472 83.8395 47.7641C84.0863 47.41 84.3314 47.0533 84.5731 46.6966ZM82.6965 49.3281C82.8868 49.0772 82.6356 48.7309 82.3357 48.8299C82.2714 48.8524 82.2236 48.888 82.181 48.9392C81.9237 49.2795 81.663 49.6171 81.3987 49.9512C81.2058 50.1951 81.4344 50.5423 81.7395 50.4589C81.8038 50.4398 81.8586 50.4043 81.9003 50.3496C82.1715 50.012 82.4357 49.6718 82.6965 49.3281ZM80.6651 51.8459C80.8651 51.6176 80.6617 51.2644 80.3627 51.3225C80.2923 51.3355 80.2245 51.3737 80.1793 51.4284C79.8994 51.753 79.6195 52.0706 79.3361 52.3918C79.1397 52.607 79.317 52.9542 79.6099 52.9247C79.6908 52.9151 79.7612 52.8795 79.8159 52.8188C80.1019 52.4985 80.3844 52.1739 80.6651 51.8459ZM78.4956 54.2421C78.6277 54.1041 78.6112 53.8794 78.4574 53.7639C78.3253 53.6641 78.1453 53.6771 78.0289 53.796C77.7359 54.1041 77.4369 54.4062 77.1336 54.7082C77.0336 54.808 77.011 54.9556 77.0727 55.0779C77.1727 55.2767 77.43 55.3192 77.5882 55.1647C77.8933 54.8592 78.1958 54.5537 78.4956 54.2421ZM76.187 56.5074C76.2644 56.4371 76.3 56.3407 76.2905 56.2375C76.2583 55.9745 75.9463 55.8582 75.7498 56.0387C75.4378 56.3277 75.1223 56.6141 74.8033 56.8962C74.5712 57.1054 74.739 57.4872 75.051 57.4586C75.1188 57.4491 75.1796 57.423 75.2309 57.3779C75.5534 57.0915 75.8715 56.8025 76.187 56.5074ZM73.7568 58.6398C73.9688 58.4662 73.8758 58.1226 73.6055 58.0748C73.509 58.0618 73.4186 58.0844 73.3448 58.1451C73.0162 58.4185 72.685 58.685 72.3504 58.9479C72.1279 59.1241 72.2278 59.4878 72.5147 59.5199C72.5981 59.5294 72.6824 59.5069 72.7494 59.4522C73.0875 59.1857 73.4256 58.9167 73.7568 58.6398ZM71.2074 60.6317C71.4421 60.4616 71.343 60.0892 71.0527 60.0536C70.9719 60.0441 70.8919 60.0667 70.8276 60.1144C70.4834 60.3652 70.1357 60.6152 69.788 60.8599C69.695 60.9276 69.6463 61.03 69.6524 61.1429C69.6689 61.3963 69.9514 61.5317 70.1574 61.3867C70.5086 61.1394 70.8597 60.8851 71.2074 60.6317ZM68.552 62.4751C68.6355 62.4204 68.6902 62.3276 68.6972 62.2277C68.7137 61.9648 68.4234 61.7938 68.1982 61.9353C67.841 62.1696 67.4838 62.4013 67.1196 62.6226C66.9814 62.7094 66.9301 62.8856 66.997 63.034C67.0805 63.2076 67.2934 63.2718 67.4577 63.1685C67.8245 62.9446 68.1878 62.7103 68.552 62.4751ZM65.7932 64.1649C66.0279 64.0304 65.9992 63.6763 65.7419 63.5869C65.655 63.5548 65.555 63.5643 65.4716 63.6095C65.1013 63.8212 64.731 64.0304 64.3547 64.2361C64.2451 64.2942 64.1773 64.4157 64.1904 64.5442C64.2069 64.7759 64.4607 64.9104 64.6641 64.7976C65.0431 64.5928 65.4194 64.3802 65.7932 64.1649ZM62.9413 65.7002C63.1152 65.6134 63.1734 65.3982 63.07 65.2376C62.9796 65.0996 62.8031 65.051 62.6545 65.1257C62.2747 65.3149 61.8913 65.5015 61.5054 65.6846C61.229 65.8165 61.2733 66.2184 61.5697 66.2887C61.6436 66.3052 61.7114 66.2982 61.7792 66.2661C62.1686 66.0795 62.558 65.8938 62.9413 65.7002Z" fill="#FF166A"/>
</svg>
