<svg width="21" height="124" viewBox="0 0 21 124" fill="none" xmlns="http://www.w3.org/2000/svg">
<path d="M0 34V28L21 48V54L0 34Z" fill="#FFF2E8"/>
<path d="M0 48V42L21 62V68L0 48Z" fill="#FFF2E8"/>
<path d="M0 6V0L21 20V26L0 6Z" fill="#FFF2E8"/>
<path d="M0 20V14L21 34V40L0 20Z" fill="#FFF2E8"/>
<path d="M0 62V56L21 76V82L0 62Z" fill="#FFF2E8"/>
<path d="M0 76V70L21 90V96L0 76Z" fill="#FFF2E8"/>
<path d="M0 90V84L21 104V110L0 90Z" fill="#FFF2E8"/>
<path d="M0 104V98L21 118V124L0 104Z" fill="#FFF2E8"/>
</svg>
