<svg width="302" height="306" viewBox="0 0 302 306" fill="none" xmlns="http://www.w3.org/2000/svg">
<path fill-rule="evenodd" clip-rule="evenodd" d="M150.452 1.43726C68.1125 1.72348 1.42216 68.5823 1.39161 151.003C1.36107 233.423 68.0016 300.257 150.341 300.513C150.617 300.514 150.844 300.738 150.844 301.014C150.844 301.29 150.617 301.514 150.341 301.513C67.449 301.257 0.360863 233.975 0.391613 151.003C0.422363 68.0305 67.5602 0.723786 150.452 0.43726C150.728 0.436306 150.955 0.660315 150.955 0.936529C150.955 1.2126 150.728 1.4363 150.452 1.43726ZM300.435 150.502C300.436 150.778 300.66 151.005 300.936 151.005C301.212 151.005 301.436 150.778 301.435 150.502C301.433 149.667 301.423 148.832 301.407 148H300.407C300.423 148.832 300.433 149.667 300.435 150.502ZM293.866 107H294.912C276.151 45.4807 219.055 0.687679 151.458 0.466179C151.182 0.465274 150.955 0.689214 150.955 0.965357C150.955 1.2415 151.182 1.46527 151.458 1.46618C218.497 1.68732 275.139 46.0407 293.866 107Z" fill="url(#paint0_linear_2032_6)"/>
<ellipse cx="293" cy="104.002" rx="5.00033" ry="5.0017" fill="url(#paint1_linear_2032_6)"/>
<ellipse cx="153.04" cy="301.088" rx="3.99983" ry="4.00136" fill="url(#paint2_linear_2032_6)"/>
<defs>
<linearGradient id="paint0_linear_2032_6" x1="150.942" y1="0.437256" x2="150.942" y2="602.589" gradientUnits="userSpaceOnUse">
<stop stop-color="#F86CA7"/>
<stop offset="1" stop-color="#FF7F18"/>
</linearGradient>
<linearGradient id="paint1_linear_2032_6" x1="293" y1="99" x2="293" y2="109.003" gradientUnits="userSpaceOnUse">
<stop stop-color="#F86CA7"/>
<stop offset="1" stop-color="#FF7F18"/>
</linearGradient>
<linearGradient id="paint2_linear_2032_6" x1="153.04" y1="297.087" x2="153.04" y2="305.09" gradientUnits="userSpaceOnUse">
<stop stop-color="#F86CA7"/>
<stop offset="1" stop-color="#FF7F18"/>
</linearGradient>
</defs>
</svg>
