<svg width="186" height="65" viewBox="0 0 186 65" fill="none" xmlns="http://www.w3.org/2000/svg">
<path d="M55.858 60.216C54.622 60.216 53.554 59.946 52.654 59.406C51.766 58.854 51.076 58.092 50.584 57.12C50.092 56.136 49.846 54.996 49.846 53.7C49.846 52.416 50.092 51.288 50.584 50.316C51.076 49.332 51.766 48.564 52.654 48.012C53.554 47.46 54.622 47.184 55.858 47.184C57.298 47.184 58.468 47.532 59.368 48.228C60.28 48.912 60.862 49.872 61.114 51.108H59.44C59.248 50.328 58.852 49.704 58.252 49.236C57.664 48.756 56.866 48.516 55.858 48.516C54.958 48.516 54.172 48.726 53.5 49.146C52.828 49.554 52.306 50.148 51.934 50.928C51.574 51.696 51.394 52.62 51.394 53.7C51.394 54.78 51.574 55.71 51.934 56.49C52.306 57.258 52.828 57.852 53.5 58.272C54.172 58.68 54.958 58.884 55.858 58.884C56.866 58.884 57.664 58.656 58.252 58.2C58.852 57.732 59.248 57.114 59.44 56.346H61.114C60.862 57.558 60.28 58.506 59.368 59.19C58.468 59.874 57.298 60.216 55.858 60.216ZM63.1971 60V51.072H64.5651L64.6911 52.782C64.9671 52.194 65.3871 51.726 65.9511 51.378C66.5151 51.03 67.2111 50.856 68.0391 50.856V52.44H67.6251C67.0971 52.44 66.6111 52.536 66.1671 52.728C65.7231 52.908 65.3691 53.22 65.1051 53.664C64.8411 54.108 64.7091 54.72 64.7091 55.5V60H63.1971ZM73.4162 60.216C72.5642 60.216 71.8082 60.024 71.1482 59.64C70.4882 59.244 69.9662 58.698 69.5822 58.002C69.2102 57.306 69.0242 56.484 69.0242 55.536C69.0242 54.6 69.2102 53.784 69.5822 53.088C69.9542 52.38 70.4702 51.834 71.1302 51.45C71.8022 51.054 72.5762 50.856 73.4522 50.856C74.3162 50.856 75.0602 51.054 75.6842 51.45C76.3202 51.834 76.8062 52.344 77.1422 52.98C77.4782 53.616 77.6462 54.3 77.6462 55.032C77.6462 55.164 77.6402 55.296 77.6282 55.428C77.6282 55.56 77.6282 55.71 77.6282 55.878H70.5182C70.5542 56.562 70.7102 57.132 70.9862 57.588C71.2742 58.032 71.6282 58.368 72.0482 58.596C72.4802 58.824 72.9362 58.938 73.4162 58.938C74.0402 58.938 74.5622 58.794 74.9822 58.506C75.4022 58.218 75.7082 57.828 75.9002 57.336H77.3942C77.1542 58.164 76.6922 58.854 76.0082 59.406C75.3362 59.946 74.4722 60.216 73.4162 60.216ZM73.4162 52.134C72.6962 52.134 72.0542 52.356 71.4902 52.8C70.9382 53.232 70.6202 53.868 70.5362 54.708H76.1522C76.1162 53.904 75.8402 53.274 75.3242 52.818C74.8082 52.362 74.1722 52.134 73.4162 52.134ZM82.6202 60.216C81.8762 60.216 81.2582 60.09 80.7662 59.838C80.2742 59.586 79.9082 59.25 79.6682 58.83C79.4282 58.41 79.3082 57.954 79.3082 57.462C79.3082 56.55 79.6562 55.848 80.3522 55.356C81.0482 54.864 81.9962 54.618 83.1962 54.618H85.6082V54.51C85.6082 53.73 85.4042 53.142 84.9962 52.746C84.5882 52.338 84.0422 52.134 83.3582 52.134C82.7702 52.134 82.2602 52.284 81.8282 52.584C81.4082 52.872 81.1442 53.298 81.0362 53.862H79.4882C79.5482 53.214 79.7642 52.668 80.1362 52.224C80.5202 51.78 80.9942 51.444 81.5582 51.216C82.1222 50.976 82.7222 50.856 83.3582 50.856C84.6062 50.856 85.5422 51.192 86.1662 51.864C86.8022 52.524 87.1202 53.406 87.1202 54.51V60H85.7702L85.6802 58.398C85.4282 58.902 85.0562 59.334 84.5642 59.694C84.0842 60.042 83.4362 60.216 82.6202 60.216ZM82.8542 58.938C83.4302 58.938 83.9222 58.788 84.3302 58.488C84.7502 58.188 85.0682 57.798 85.2842 57.318C85.5002 56.838 85.6082 56.334 85.6082 55.806V55.788H83.3222C82.4342 55.788 81.8042 55.944 81.4322 56.256C81.0722 56.556 80.8922 56.934 80.8922 57.39C80.8922 57.858 81.0602 58.236 81.3962 58.524C81.7442 58.8 82.2302 58.938 82.8542 58.938ZM92.6704 60C91.8544 60 91.2124 59.802 90.7444 59.406C90.2764 59.01 90.0424 58.296 90.0424 57.264V52.35H88.4944V51.072H90.0424L90.2404 48.93H91.5544V51.072H94.1824V52.35H91.5544V57.264C91.5544 57.828 91.6684 58.212 91.8964 58.416C92.1244 58.608 92.5264 58.704 93.1024 58.704H94.0384V60H92.6704ZM97.0213 49.092C96.7213 49.092 96.4693 48.996 96.2653 48.804C96.0733 48.6 95.9773 48.348 95.9773 48.048C95.9773 47.76 96.0733 47.52 96.2653 47.328C96.4693 47.136 96.7213 47.04 97.0213 47.04C97.3093 47.04 97.5553 47.136 97.7593 47.328C97.9633 47.52 98.0653 47.76 98.0653 48.048C98.0653 48.348 97.9633 48.6 97.7593 48.804C97.5553 48.996 97.3093 49.092 97.0213 49.092ZM96.2653 60V51.072H97.7773V60H96.2653ZM102.984 60L99.6 51.072H101.184L103.866 58.542L106.566 51.072H108.114L104.73 60H102.984ZM113.354 60.216C112.502 60.216 111.746 60.024 111.086 59.64C110.426 59.244 109.904 58.698 109.52 58.002C109.148 57.306 108.962 56.484 108.962 55.536C108.962 54.6 109.148 53.784 109.52 53.088C109.892 52.38 110.408 51.834 111.068 51.45C111.74 51.054 112.514 50.856 113.39 50.856C114.254 50.856 114.998 51.054 115.622 51.45C116.258 51.834 116.744 52.344 117.08 52.98C117.416 53.616 117.584 54.3 117.584 55.032C117.584 55.164 117.578 55.296 117.566 55.428C117.566 55.56 117.566 55.71 117.566 55.878H110.456C110.492 56.562 110.648 57.132 110.924 57.588C111.212 58.032 111.566 58.368 111.986 58.596C112.418 58.824 112.874 58.938 113.354 58.938C113.978 58.938 114.5 58.794 114.92 58.506C115.34 58.218 115.646 57.828 115.838 57.336H117.332C117.092 58.164 116.63 58.854 115.946 59.406C115.274 59.946 114.41 60.216 113.354 60.216ZM113.354 52.134C112.634 52.134 111.992 52.356 111.428 52.8C110.876 53.232 110.558 53.868 110.474 54.708H116.09C116.054 53.904 115.778 53.274 115.262 52.818C114.746 52.362 114.11 52.134 113.354 52.134ZM123.649 60L128.293 47.4H129.895L134.521 60H132.919L131.767 56.76H126.403L125.233 60H123.649ZM126.853 55.536H131.317L129.085 49.308L126.853 55.536ZM139.833 57.192C139.329 57.192 138.867 57.126 138.447 56.994L137.547 57.84C137.679 57.936 137.841 58.02 138.033 58.092C138.237 58.152 138.525 58.212 138.897 58.272C139.269 58.32 139.791 58.374 140.463 58.434C141.663 58.518 142.521 58.794 143.037 59.262C143.553 59.73 143.811 60.342 143.811 61.098C143.811 61.614 143.667 62.106 143.379 62.574C143.103 63.042 142.671 63.426 142.083 63.726C141.507 64.026 140.763 64.176 139.851 64.176C139.047 64.176 138.333 64.068 137.708 63.852C137.085 63.648 136.599 63.33 136.25 62.898C135.903 62.478 135.729 61.944 135.729 61.296C135.729 60.96 135.819 60.594 135.999 60.198C136.179 59.814 136.515 59.448 137.007 59.1C136.743 58.992 136.515 58.878 136.323 58.758C136.143 58.626 135.975 58.482 135.819 58.326V57.912L137.349 56.4C136.641 55.8 136.287 55.008 136.287 54.024C136.287 53.436 136.425 52.902 136.701 52.422C136.977 51.942 137.379 51.564 137.907 51.288C138.435 51 139.077 50.856 139.833 50.856C140.349 50.856 140.817 50.928 141.237 51.072H144.531V52.206L142.857 52.278C143.205 52.782 143.379 53.364 143.379 54.024C143.379 54.612 143.235 55.146 142.947 55.626C142.671 56.106 142.269 56.49 141.741 56.778C141.225 57.054 140.589 57.192 139.833 57.192ZM139.833 55.95C140.469 55.95 140.973 55.788 141.345 55.464C141.729 55.128 141.921 54.648 141.921 54.024C141.921 53.412 141.729 52.944 141.345 52.62C140.973 52.284 140.469 52.116 139.833 52.116C139.185 52.116 138.669 52.284 138.285 52.62C137.913 52.944 137.727 53.412 137.727 54.024C137.727 54.648 137.913 55.128 138.285 55.464C138.669 55.788 139.185 55.95 139.833 55.95ZM137.205 61.152C137.205 61.752 137.457 62.196 137.961 62.484C138.465 62.784 139.095 62.934 139.851 62.934C140.595 62.934 141.189 62.772 141.633 62.448C142.089 62.124 142.317 61.692 142.317 61.152C142.317 60.768 142.161 60.432 141.849 60.144C141.537 59.868 140.961 59.706 140.121 59.658C139.461 59.61 138.891 59.55 138.411 59.478C137.919 59.742 137.595 60.024 137.438 60.324C137.283 60.636 137.205 60.912 137.205 61.152ZM149.899 60.216C149.047 60.216 148.291 60.024 147.631 59.64C146.971 59.244 146.449 58.698 146.065 58.002C145.693 57.306 145.507 56.484 145.507 55.536C145.507 54.6 145.693 53.784 146.065 53.088C146.437 52.38 146.953 51.834 147.613 51.45C148.285 51.054 149.059 50.856 149.935 50.856C150.799 50.856 151.543 51.054 152.167 51.45C152.803 51.834 153.289 52.344 153.625 52.98C153.961 53.616 154.129 54.3 154.129 55.032C154.129 55.164 154.123 55.296 154.111 55.428C154.111 55.56 154.111 55.71 154.111 55.878H147.001C147.037 56.562 147.193 57.132 147.469 57.588C147.757 58.032 148.111 58.368 148.531 58.596C148.963 58.824 149.419 58.938 149.899 58.938C150.523 58.938 151.045 58.794 151.465 58.506C151.885 58.218 152.191 57.828 152.383 57.336H153.877C153.637 58.164 153.175 58.854 152.491 59.406C151.819 59.946 150.955 60.216 149.899 60.216ZM149.899 52.134C149.179 52.134 148.537 52.356 147.973 52.8C147.421 53.232 147.103 53.868 147.019 54.708H152.635C152.599 53.904 152.323 53.274 151.807 52.818C151.291 52.362 150.655 52.134 149.899 52.134ZM156.133 60V51.072H157.501L157.591 52.674C157.879 52.11 158.293 51.666 158.833 51.342C159.373 51.018 159.985 50.856 160.669 50.856C161.725 50.856 162.565 51.18 163.189 51.828C163.825 52.464 164.143 53.448 164.143 54.78V60H162.631V54.942C162.631 53.082 161.863 52.152 160.327 52.152C159.559 52.152 158.917 52.434 158.401 52.998C157.897 53.55 157.645 54.342 157.645 55.374V60H156.133ZM170.537 60.216C169.685 60.216 168.917 60.024 168.233 59.64C167.561 59.244 167.027 58.698 166.631 58.002C166.247 57.294 166.055 56.472 166.055 55.536C166.055 54.6 166.247 53.784 166.631 53.088C167.027 52.38 167.561 51.834 168.233 51.45C168.917 51.054 169.685 50.856 170.537 50.856C171.593 50.856 172.481 51.132 173.201 51.684C173.933 52.236 174.395 52.974 174.587 53.898H173.039C172.919 53.346 172.625 52.92 172.157 52.62C171.689 52.308 171.143 52.152 170.519 52.152C170.015 52.152 169.541 52.278 169.097 52.53C168.653 52.782 168.293 53.16 168.017 53.664C167.741 54.168 167.603 54.792 167.603 55.536C167.603 56.28 167.741 56.904 168.017 57.408C168.293 57.912 168.653 58.296 169.097 58.56C169.541 58.812 170.015 58.938 170.519 58.938C171.143 58.938 171.689 58.788 172.157 58.488C172.625 58.176 172.919 57.738 173.039 57.174H174.587C174.407 58.074 173.951 58.806 173.219 59.37C172.487 59.934 171.593 60.216 170.537 60.216ZM177.671 63.96L179.885 59.136H179.363L175.817 51.072H177.455L180.407 58.02L183.539 51.072H185.105L179.255 63.96H177.671Z" fill="white"/>
<path d="M30.3091 1.34229V5.02148H21.3125V38H10.0332V5.02148H0.98291V1.34229H30.3091ZM32.8604 25.915L37.7749 25.6465C37.3631 27.0609 37.1304 28.3231 37.0767 29.4331C36.8976 33.354 38.9655 35.3145 43.2803 35.3145C47.5234 35.3145 49.645 32.9243 49.645 28.144C49.645 23.3101 47.1117 20.8931 42.0449 20.8931L39.1445 20.9468V16.623L41.2393 16.6499C46.5745 16.6499 49.2422 14.394 49.2422 9.88232C49.2422 5.96143 47.3534 4.00098 43.5757 4.00098C39.8517 4.00098 37.9897 5.72868 37.9897 9.18408C37.9897 10.0256 38.0972 11.0013 38.312 12.1113L33.3975 11.0908C33.3975 4.16211 37.4258 0.697754 45.4824 0.697754C54.7744 0.697754 59.4204 3.8667 59.4204 10.2046C59.4204 14.3582 56.7975 17.1781 51.5518 18.6641C57.4958 20.0247 60.4678 23.1042 60.4678 27.9023C60.4678 35.0459 55.5174 38.6177 45.6167 38.6177C36.8081 38.6177 32.4038 35.6636 32.4038 29.7554C32.4038 28.6453 32.556 27.3652 32.8604 25.915ZM91.0562 23.2832L95.5947 24.4648C95.6663 25.3958 95.7021 26.2015 95.7021 26.8818C95.7021 30.4447 94.4131 33.2913 91.835 35.4219C89.2568 37.5524 85.8014 38.6177 81.4688 38.6177C70.6012 38.6177 65.1675 32.5036 65.1675 20.2754C65.1675 14.4746 66.752 9.7749 69.9209 6.17627C73.0898 2.55973 77.2166 0.751465 82.3013 0.751465C90.2326 0.751465 94.1982 4.56494 94.1982 12.1919L89.6328 14.2866C89.6865 13.2124 89.7134 12.3799 89.7134 11.7891C89.7134 6.38216 87.547 3.67871 83.2144 3.67871C78.631 3.67871 76.3394 9.41683 76.3394 20.8931C76.3394 30.758 78.8996 35.6904 84.02 35.6904C86.1326 35.6904 87.8872 34.849 89.2837 33.166C90.6981 31.4831 91.4053 29.3794 91.4053 26.855C91.4053 26.0493 91.2889 24.8587 91.0562 23.2832Z" fill="url(#paint0_linear_1429_6188)"/>
<path d="M110.365 19.7651V38H99.7305V1.34229H110.365V16.0859H119.04V1.34229H129.674V38H119.04V19.7651H110.365ZM146.674 1.34229V38H136.039V1.34229H146.674ZM168.024 0.697754C178.694 0.697754 184.03 7.01774 184.03 19.6577C184.03 32.2977 178.596 38.6177 167.729 38.6177C156.861 38.6177 151.427 32.1545 151.427 19.228C151.427 6.87451 156.959 0.697754 168.024 0.697754ZM167.729 3.625C165.723 3.625 164.363 4.73503 163.646 6.95508C162.948 9.15723 162.599 13.3914 162.599 19.6577C162.599 25.924 162.948 30.1672 163.646 32.3872C164.363 34.5894 165.723 35.6904 167.729 35.6904C169.734 35.6904 171.085 34.5894 171.784 32.3872C172.5 30.1672 172.858 25.924 172.858 19.6577C172.858 13.4093 172.5 9.17513 171.784 6.95508C171.085 4.73503 169.734 3.625 167.729 3.625Z" fill="white"/>
<defs>
<linearGradient id="paint0_linear_1429_6188" x1="11.5114" y1="20" x2="93.5" y2="20" gradientUnits="userSpaceOnUse">
<stop stop-color="#F86CA7"/>
<stop offset="1" stop-color="#FF7F18"/>
</linearGradient>
</defs>
</svg>
