<svg width="148" height="52" viewBox="0 0 148 52" fill="none" xmlns="http://www.w3.org/2000/svg">
<path d="M1.23088 48V36.8H5.16688C5.95621 36.8 6.60688 36.928 7.11888 37.184C7.64154 37.4293 8.03088 37.7707 8.28688 38.208C8.54288 38.6347 8.67088 39.1147 8.67088 39.648C8.67088 40.3733 8.47354 40.944 8.07888 41.36C7.69488 41.776 7.23088 42.064 6.68688 42.224C7.10288 42.2987 7.48154 42.464 7.82288 42.72C8.16421 42.976 8.43088 43.296 8.62288 43.68C8.82554 44.064 8.92688 44.4853 8.92688 44.944C8.92688 45.5093 8.78821 46.0267 8.51088 46.496C8.23354 46.9547 7.82288 47.3227 7.27888 47.6C6.73488 47.8667 6.07354 48 5.29488 48H1.23088ZM2.57488 41.696H5.07088C5.78554 41.696 6.33488 41.5307 6.71888 41.2C7.10288 40.8587 7.29488 40.3893 7.29488 39.792C7.29488 39.2267 7.10288 38.7733 6.71888 38.432C6.34554 38.0907 5.78021 37.92 5.02288 37.92H2.57488V41.696ZM2.57488 46.88H5.15088C5.91888 46.88 6.51088 46.704 6.92688 46.352C7.34288 45.9893 7.55088 45.488 7.55088 44.848C7.55088 44.2187 7.33221 43.7173 6.89488 43.344C6.45754 42.96 5.86554 42.768 5.11888 42.768H2.57488V46.88ZM13.6719 48.192C12.7332 48.192 11.9865 47.9093 11.4319 47.344C10.8772 46.768 10.5999 45.888 10.5999 44.704V40.064H11.9439V44.56C11.9439 46.2133 12.6212 47.04 13.9759 47.04C14.6692 47.04 15.2399 46.7947 15.6879 46.304C16.1465 45.8027 16.3759 45.0933 16.3759 44.176V40.064H17.7199V48H16.5039L16.4079 46.576C16.1625 47.0773 15.7945 47.472 15.3039 47.76C14.8239 48.048 14.2799 48.192 13.6719 48.192ZM22.9721 48.192C22.0228 48.192 21.2335 47.952 20.6041 47.472C19.9748 46.992 19.6068 46.3413 19.5001 45.52H20.8761C20.9615 45.936 21.1801 46.2987 21.5321 46.608C21.8948 46.9067 22.3801 47.056 22.9881 47.056C23.5535 47.056 23.9695 46.9387 24.2361 46.704C24.5028 46.4587 24.6361 46.1707 24.6361 45.84C24.6361 45.36 24.4601 45.04 24.1081 44.88C23.7668 44.72 23.2815 44.576 22.6521 44.448C22.2255 44.3627 21.7988 44.24 21.3721 44.08C20.9455 43.92 20.5881 43.696 20.3001 43.408C20.0121 43.1093 19.8681 42.72 19.8681 42.24C19.8681 41.5467 20.1241 40.9813 20.6361 40.544C21.1588 40.096 21.8628 39.872 22.7481 39.872C23.5908 39.872 24.2788 40.0853 24.8121 40.512C25.3561 40.928 25.6708 41.5253 25.7561 42.304H24.4281C24.3748 41.8987 24.1988 41.584 23.9001 41.36C23.6121 41.1253 23.2228 41.008 22.7321 41.008C22.2521 41.008 21.8788 41.1093 21.6121 41.312C21.3561 41.5147 21.2281 41.7813 21.2281 42.112C21.2281 42.432 21.3935 42.6827 21.7241 42.864C22.0655 43.0453 22.5241 43.2 23.1001 43.328C23.5908 43.4347 24.0548 43.568 24.4921 43.728C24.9401 43.8773 25.3028 44.1067 25.5801 44.416C25.8681 44.7147 26.0121 45.152 26.0121 45.728C26.0228 46.4427 25.7508 47.0347 25.1961 47.504C24.6521 47.9627 23.9108 48.192 22.9721 48.192ZM28.7481 38.304C28.4815 38.304 28.2575 38.2187 28.0761 38.048C27.9055 37.8667 27.8201 37.6427 27.8201 37.376C27.8201 37.12 27.9055 36.9067 28.0761 36.736C28.2575 36.5653 28.4815 36.48 28.7481 36.48C29.0041 36.48 29.2228 36.5653 29.4041 36.736C29.5855 36.9067 29.6761 37.12 29.6761 37.376C29.6761 37.6427 29.5855 37.8667 29.4041 38.048C29.2228 38.2187 29.0041 38.304 28.7481 38.304ZM28.0761 48V40.064H29.4201V48H28.0761ZM31.7603 48V40.064H32.9763L33.0563 41.488C33.3123 40.9867 33.6803 40.592 34.1603 40.304C34.6403 40.016 35.1843 39.872 35.7923 39.872C36.7309 39.872 37.4776 40.16 38.0323 40.736C38.5976 41.3013 38.8802 42.176 38.8802 43.36V48H37.5363V43.504C37.5363 41.8507 36.8536 41.024 35.4883 41.024C34.8056 41.024 34.2349 41.2747 33.7763 41.776C33.3283 42.2667 33.1043 42.9707 33.1043 43.888V48H31.7603ZM44.4845 48.192C43.7272 48.192 43.0552 48.0213 42.4685 47.68C41.8818 47.328 41.4178 46.8427 41.0765 46.224C40.7458 45.6053 40.5805 44.8747 40.5805 44.032C40.5805 43.2 40.7458 42.4747 41.0765 41.856C41.4072 41.2267 41.8658 40.7413 42.4525 40.4C43.0498 40.048 43.7378 39.872 44.5165 39.872C45.2845 39.872 45.9458 40.048 46.5005 40.4C47.0658 40.7413 47.4978 41.1947 47.7965 41.76C48.0952 42.3253 48.2445 42.9333 48.2445 43.584C48.2445 43.7013 48.2392 43.8187 48.2285 43.936C48.2285 44.0533 48.2285 44.1867 48.2285 44.336H41.9085C41.9405 44.944 42.0792 45.4507 42.3245 45.856C42.5805 46.2507 42.8952 46.5493 43.2685 46.752C43.6525 46.9547 44.0578 47.056 44.4845 47.056C45.0392 47.056 45.5032 46.928 45.8765 46.672C46.2498 46.416 46.5218 46.0693 46.6925 45.632H48.0205C47.8072 46.368 47.3965 46.9813 46.7885 47.472C46.1912 47.952 45.4232 48.192 44.4845 48.192ZM44.4845 41.008C43.8445 41.008 43.2738 41.2053 42.7725 41.6C42.2818 41.984 41.9992 42.5493 41.9245 43.296H46.9165C46.8845 42.5813 46.6392 42.0213 46.1805 41.616C45.7218 41.2107 45.1565 41.008 44.4845 41.008ZM53.0659 48.192C52.1165 48.192 51.3272 47.952 50.6979 47.472C50.0685 46.992 49.7005 46.3413 49.5939 45.52H50.9699C51.0552 45.936 51.2739 46.2987 51.6259 46.608C51.9885 46.9067 52.4739 47.056 53.0819 47.056C53.6472 47.056 54.0632 46.9387 54.3299 46.704C54.5965 46.4587 54.7299 46.1707 54.7299 45.84C54.7299 45.36 54.5539 45.04 54.2019 44.88C53.8605 44.72 53.3752 44.576 52.7459 44.448C52.3192 44.3627 51.8925 44.24 51.4659 44.08C51.0392 43.92 50.6819 43.696 50.3939 43.408C50.1059 43.1093 49.9619 42.72 49.9619 42.24C49.9619 41.5467 50.2179 40.9813 50.7299 40.544C51.2525 40.096 51.9565 39.872 52.8419 39.872C53.6845 39.872 54.3725 40.0853 54.9059 40.512C55.4499 40.928 55.7645 41.5253 55.8499 42.304H54.5219C54.4685 41.8987 54.2925 41.584 53.9939 41.36C53.7059 41.1253 53.3165 41.008 52.8259 41.008C52.3459 41.008 51.9725 41.1093 51.7059 41.312C51.4499 41.5147 51.3219 41.7813 51.3219 42.112C51.3219 42.432 51.4872 42.6827 51.8179 42.864C52.1592 43.0453 52.6179 43.2 53.1939 43.328C53.6845 43.4347 54.1485 43.568 54.5859 43.728C55.0339 43.8773 55.3965 44.1067 55.6739 44.416C55.9619 44.7147 56.1059 45.152 56.1059 45.728C56.1165 46.4427 55.8445 47.0347 55.2899 47.504C54.7459 47.9627 54.0045 48.192 53.0659 48.192ZM61.0659 48.192C60.1165 48.192 59.3272 47.952 58.6979 47.472C58.0685 46.992 57.7005 46.3413 57.5939 45.52H58.9699C59.0552 45.936 59.2739 46.2987 59.6259 46.608C59.9885 46.9067 60.4739 47.056 61.0819 47.056C61.6472 47.056 62.0632 46.9387 62.3299 46.704C62.5965 46.4587 62.7299 46.1707 62.7299 45.84C62.7299 45.36 62.5539 45.04 62.2019 44.88C61.8605 44.72 61.3752 44.576 60.7459 44.448C60.3192 44.3627 59.8925 44.24 59.4659 44.08C59.0392 43.92 58.6819 43.696 58.3939 43.408C58.1059 43.1093 57.9619 42.72 57.9619 42.24C57.9619 41.5467 58.2179 40.9813 58.7299 40.544C59.2525 40.096 59.9565 39.872 60.8419 39.872C61.6845 39.872 62.3725 40.0853 62.9059 40.512C63.4499 40.928 63.7645 41.5253 63.8499 42.304H62.5219C62.4685 41.8987 62.2925 41.584 61.9939 41.36C61.7059 41.1253 61.3165 41.008 60.8259 41.008C60.3459 41.008 59.9725 41.1093 59.7059 41.312C59.4499 41.5147 59.3219 41.7813 59.3219 42.112C59.3219 42.432 59.4872 42.6827 59.8179 42.864C60.1592 43.0453 60.6179 43.2 61.1939 43.328C61.6845 43.4347 62.1485 43.568 62.5859 43.728C63.0339 43.8773 63.3965 44.1067 63.6739 44.416C63.9619 44.7147 64.1059 45.152 64.1059 45.728C64.1165 46.4427 63.8445 47.0347 63.2899 47.504C62.7459 47.9627 62.0045 48.192 61.0659 48.192ZM75.2523 48.192C74.1536 48.192 73.2043 47.952 72.4043 47.472C71.6149 46.9813 71.0016 46.304 70.5643 45.44C70.1269 44.5653 69.9083 43.552 69.9083 42.4C69.9083 41.2587 70.1269 40.256 70.5643 39.392C71.0016 38.5173 71.6149 37.8347 72.4043 37.344C73.2043 36.8533 74.1536 36.608 75.2523 36.608C76.5323 36.608 77.5723 36.9173 78.3723 37.536C79.1829 38.144 79.7003 38.9973 79.9243 40.096H78.4363C78.2656 39.4027 77.9136 38.848 77.3802 38.432C76.8576 38.0053 76.1483 37.792 75.2523 37.792C74.4523 37.792 73.7536 37.9787 73.1562 38.352C72.5589 38.7147 72.0949 39.2427 71.7643 39.936C71.4443 40.6187 71.2843 41.44 71.2843 42.4C71.2843 43.36 71.4443 44.1867 71.7643 44.88C72.0949 45.5627 72.5589 46.0907 73.1562 46.464C73.7536 46.8267 74.4523 47.008 75.2523 47.008C76.1483 47.008 76.8576 46.8053 77.3802 46.4C77.9136 45.984 78.2656 45.4347 78.4363 44.752H79.9243C79.7003 45.8293 79.1829 46.672 78.3723 47.28C77.5723 47.888 76.5323 48.192 75.2523 48.192ZM85.3919 48.192C84.6452 48.192 83.9732 48.0213 83.3759 47.68C82.7785 47.3387 82.3039 46.8587 81.9519 46.24C81.6105 45.6107 81.4399 44.8747 81.4399 44.032C81.4399 43.1893 81.6159 42.4587 81.9679 41.84C82.3199 41.2107 82.7945 40.7253 83.3919 40.384C83.9999 40.0427 84.6772 39.872 85.4239 39.872C86.1705 39.872 86.8425 40.0427 87.4399 40.384C88.0372 40.7253 88.5065 41.2107 88.8479 41.84C89.1999 42.4587 89.3759 43.1893 89.3759 44.032C89.3759 44.8747 89.1999 45.6107 88.8479 46.24C88.4959 46.8587 88.0159 47.3387 87.4079 47.68C86.8105 48.0213 86.1385 48.192 85.3919 48.192ZM85.3919 47.04C85.8505 47.04 86.2772 46.928 86.6719 46.704C87.0665 46.48 87.3865 46.144 87.6319 45.696C87.8772 45.248 87.9999 44.6933 87.9999 44.032C87.9999 43.3707 87.8772 42.816 87.6319 42.368C87.3972 41.92 87.0825 41.584 86.6879 41.36C86.2932 41.136 85.8719 41.024 85.4239 41.024C84.9652 41.024 84.5385 41.136 84.1439 41.36C83.7492 41.584 83.4292 41.92 83.1839 42.368C82.9385 42.816 82.8159 43.3707 82.8159 44.032C82.8159 44.6933 82.9385 45.248 83.1839 45.696C83.4292 46.144 83.7439 46.48 84.1279 46.704C84.5225 46.928 84.9439 47.04 85.3919 47.04ZM91.2446 48V40.064H92.4606L92.5406 41.488C92.7966 40.9867 93.1646 40.592 93.6446 40.304C94.1246 40.016 94.6686 39.872 95.2766 39.872C96.2153 39.872 96.962 40.16 97.5166 40.736C98.082 41.3013 98.3646 42.176 98.3646 43.36V48H97.0206V43.504C97.0206 41.8507 96.338 41.024 94.9726 41.024C94.29 41.024 93.7193 41.2747 93.2606 41.776C92.8126 42.2667 92.5886 42.9707 92.5886 43.888V48H91.2446ZM103.441 48.192C102.492 48.192 101.702 47.952 101.073 47.472C100.444 46.992 100.076 46.3413 99.9689 45.52H101.345C101.43 45.936 101.649 46.2987 102.001 46.608C102.364 46.9067 102.849 47.056 103.457 47.056C104.022 47.056 104.438 46.9387 104.705 46.704C104.972 46.4587 105.105 46.1707 105.105 45.84C105.105 45.36 104.929 45.04 104.577 44.88C104.236 44.72 103.75 44.576 103.121 44.448C102.694 44.3627 102.268 44.24 101.841 44.08C101.414 43.92 101.057 43.696 100.769 43.408C100.481 43.1093 100.337 42.72 100.337 42.24C100.337 41.5467 100.593 40.9813 101.105 40.544C101.628 40.096 102.332 39.872 103.217 39.872C104.06 39.872 104.748 40.0853 105.281 40.512C105.825 40.928 106.14 41.5253 106.225 42.304H104.897C104.844 41.8987 104.668 41.584 104.369 41.36C104.081 41.1253 103.692 41.008 103.201 41.008C102.721 41.008 102.348 41.1093 102.081 41.312C101.825 41.5147 101.697 41.7813 101.697 42.112C101.697 42.432 101.862 42.6827 102.193 42.864C102.534 43.0453 102.993 43.2 103.569 43.328C104.06 43.4347 104.524 43.568 104.961 43.728C105.409 43.8773 105.772 44.1067 106.049 44.416C106.337 44.7147 106.481 45.152 106.481 45.728C106.492 46.4427 106.22 47.0347 105.665 47.504C105.121 47.9627 104.38 48.192 103.441 48.192ZM111.297 48.192C110.358 48.192 109.612 47.9093 109.057 47.344C108.502 46.768 108.225 45.888 108.225 44.704V40.064H109.569V44.56C109.569 46.2133 110.246 47.04 111.601 47.04C112.294 47.04 112.865 46.7947 113.313 46.304C113.772 45.8027 114.001 45.0933 114.001 44.176V40.064H115.345V48H114.129L114.033 46.576C113.788 47.0773 113.42 47.472 112.929 47.76C112.449 48.048 111.905 48.192 111.297 48.192ZM117.557 48V36.48H118.901V48H117.557ZM124.24 48C123.515 48 122.944 47.824 122.528 47.472C122.112 47.12 121.904 46.4853 121.904 45.568V41.2H120.528V40.064H121.904L122.08 38.16H123.248V40.064H125.584V41.2H123.248V45.568C123.248 46.0693 123.349 46.4107 123.552 46.592C123.755 46.7627 124.112 46.848 124.624 46.848H125.456V48H124.24ZM128.108 38.304C127.841 38.304 127.617 38.2187 127.436 38.048C127.265 37.8667 127.18 37.6427 127.18 37.376C127.18 37.12 127.265 36.9067 127.436 36.736C127.617 36.5653 127.841 36.48 128.108 36.48C128.364 36.48 128.582 36.5653 128.764 36.736C128.945 36.9067 129.036 37.12 129.036 37.376C129.036 37.6427 128.945 37.8667 128.764 38.048C128.582 38.2187 128.364 38.304 128.108 38.304ZM127.436 48V40.064H128.78V48H127.436ZM131.12 48V40.064H132.336L132.416 41.488C132.672 40.9867 133.04 40.592 133.52 40.304C134 40.016 134.544 39.872 135.152 39.872C136.09 39.872 136.837 40.16 137.392 40.736C137.957 41.3013 138.24 42.176 138.24 43.36V48H136.896V43.504C136.896 41.8507 136.213 41.024 134.848 41.024C134.165 41.024 133.594 41.2747 133.136 41.776C132.688 42.2667 132.464 42.9707 132.464 43.888V48H131.12ZM143.412 45.504C142.964 45.504 142.553 45.4453 142.18 45.328L141.38 46.08C141.497 46.1653 141.641 46.24 141.812 46.304C141.993 46.3573 142.249 46.4107 142.58 46.464C142.911 46.5067 143.375 46.5547 143.972 46.608C145.039 46.6827 145.801 46.928 146.26 47.344C146.719 47.76 146.948 48.304 146.948 48.976C146.948 49.4347 146.82 49.872 146.564 50.288C146.319 50.704 145.935 51.0453 145.412 51.312C144.9 51.5787 144.239 51.712 143.428 51.712C142.713 51.712 142.079 51.616 141.524 51.424C140.969 51.2427 140.537 50.96 140.228 50.576C139.919 50.2027 139.764 49.728 139.764 49.152C139.764 48.8533 139.844 48.528 140.004 48.176C140.164 47.8347 140.463 47.5093 140.9 47.2C140.665 47.104 140.463 47.0027 140.292 46.896C140.132 46.7787 139.983 46.6507 139.844 46.512V46.144L141.204 44.8C140.575 44.2667 140.26 43.5627 140.26 42.688C140.26 42.1653 140.383 41.6907 140.628 41.264C140.873 40.8373 141.231 40.5013 141.7 40.256C142.169 40 142.74 39.872 143.412 39.872C143.871 39.872 144.287 39.936 144.66 40.064H147.588V41.072L146.1 41.136C146.409 41.584 146.564 42.1013 146.564 42.688C146.564 43.2107 146.436 43.6853 146.18 44.112C145.935 44.5387 145.577 44.88 145.108 45.136C144.649 45.3813 144.084 45.504 143.412 45.504ZM143.412 44.4C143.977 44.4 144.425 44.256 144.756 43.968C145.097 43.6693 145.268 43.2427 145.268 42.688C145.268 42.144 145.097 41.728 144.756 41.44C144.425 41.1413 143.977 40.992 143.412 40.992C142.836 40.992 142.377 41.1413 142.036 41.44C141.705 41.728 141.54 42.144 141.54 42.688C141.54 43.2427 141.705 43.6693 142.036 43.968C142.377 44.256 142.836 44.4 143.412 44.4ZM141.076 49.024C141.076 49.5573 141.3 49.952 141.748 50.208C142.196 50.4747 142.756 50.608 143.428 50.608C144.089 50.608 144.617 50.464 145.012 50.176C145.417 49.888 145.62 49.504 145.62 49.024C145.62 48.6827 145.481 48.384 145.204 48.128C144.927 47.8827 144.415 47.7387 143.668 47.696C143.081 47.6533 142.575 47.6 142.148 47.536C141.711 47.7707 141.423 48.0213 141.284 48.288C141.145 48.5653 141.076 48.8107 141.076 49.024Z" fill="#160803"/>
<path d="M37.3711 1.33984V4.01562H30.8281V28H22.625V4.01562H16.043V1.33984H37.3711ZM56.668 1.33984V4.01562H47.1172V12.082H55.1445V14.7578H47.1172V25.3242H58.2891V28H39.3828V1.33984H56.668ZM60.5547 19.2109L64.1289 19.0156C63.8294 20.0443 63.6602 20.9622 63.6211 21.7695C63.4909 24.6211 64.9948 26.0469 68.1328 26.0469C71.2188 26.0469 72.7617 24.3086 72.7617 20.832C72.7617 17.3164 70.9193 15.5586 67.2344 15.5586L65.125 15.5977V12.4531L66.6484 12.4727C70.5286 12.4727 72.4688 10.832 72.4688 7.55078C72.4688 4.69922 71.0951 3.27344 68.3477 3.27344C65.6393 3.27344 64.2852 4.52995 64.2852 7.04297C64.2852 7.65495 64.3633 8.36458 64.5195 9.17188L60.9453 8.42969C60.9453 3.39062 63.875 0.871094 69.7344 0.871094C76.4922 0.871094 79.8711 3.17578 79.8711 7.78516C79.8711 10.806 77.9635 12.8568 74.1484 13.9375C78.4714 14.9271 80.6328 17.1667 80.6328 20.6562C80.6328 25.8516 77.0326 28.4492 69.832 28.4492C63.4258 28.4492 60.2227 26.3008 60.2227 22.0039C60.2227 21.1966 60.3333 20.2656 60.5547 19.2109Z" fill="#160803"/>
<path d="M92.9375 14.7383V28H85.2031V1.33984H92.9375V12.0625H99.2461V1.33984H106.98V28H99.2461V14.7383H92.9375ZM119.344 1.33984V28H111.609V1.33984H119.344ZM134.871 0.871094C142.632 0.871094 146.512 5.46745 146.512 14.6602C146.512 23.8529 142.56 28.4492 134.656 28.4492C126.753 28.4492 122.801 23.7487 122.801 14.3477C122.801 5.36328 126.824 0.871094 134.871 0.871094ZM134.656 3C133.198 3 132.208 3.80729 131.688 5.42188C131.18 7.02344 130.926 10.1029 130.926 14.6602C130.926 19.2174 131.18 22.3034 131.688 23.918C132.208 25.5195 133.198 26.3203 134.656 26.3203C136.115 26.3203 137.098 25.5195 137.605 23.918C138.126 22.3034 138.387 19.2174 138.387 14.6602C138.387 10.1159 138.126 7.03646 137.605 5.42188C137.098 3.80729 136.115 3 134.656 3Z" fill="url(#paint0_linear_623_167)"/>
<defs>
<linearGradient id="paint0_linear_623_167" x1="86" y1="15" x2="148" y2="15" gradientUnits="userSpaceOnUse">
<stop stop-color="#F86CA7"/>
<stop offset="1" stop-color="#FF7F18"/>
</linearGradient>
</defs>
</svg>
