<?xml version="1.0" standalone="no"?>
<!DOCTYPE svg PUBLIC "-//W3C//DTD SVG 20010904//EN"
 "http://www.w3.org/TR/2001/REC-SVG-20010904/DTD/svg10.dtd">
<svg version="1.0" xmlns="http://www.w3.org/2000/svg"
 width="120.000000pt" height="120.000000pt" viewBox="0 0 120.000000 120.000000"
 preserveAspectRatio="xMidYMid meet">
<metadata>
Created by potrace 1.16, written by Peter Selinger 2001-2019
</metadata>
<g transform="translate(0.000000,120.000000) scale(0.100000,-0.100000)"
fill="#000000" stroke="none">
<path d="M658 1115 c-3 -3 -62 -8 -130 -9 -141 -3 -187 -18 -259 -83 -79 -71
-123 -174 -117 -275 3 -49 5 -53 30 -56 26 -3 26 -2 25 55 -3 156 117 295 263
305 l44 3 41 -113 c22 -63 45 -113 50 -113 5 0 27 51 49 113 40 109 42 113 72
116 28 3 32 0 38 -29 3 -17 6 -46 6 -63 0 -66 8 -76 59 -76 106 0 161 -39 161
-112 0 -31 -7 -46 -30 -69 l-29 -30 27 -49 c15 -27 31 -50 35 -50 4 0 18 21
30 48 31 67 31 207 0 274 -58 128 -156 197 -300 213 -32 4 -61 4 -65 0z"/>
<path d="M401 956 c-39 -63 -55 -132 -49 -221 6 -94 41 -168 109 -229 l50 -45
-38 6 c-21 3 -54 12 -73 18 -29 10 -45 9 -96 -5 l-61 -18 13 56 13 55 -37 46
c-20 25 -38 48 -39 50 -2 2 -6 2 -9 -2 -3 -3 1 -28 9 -56 13 -45 13 -59 -3
-136 -13 -62 -14 -85 -6 -85 7 0 49 11 94 24 77 22 86 23 130 9 33 -10 68 -13
117 -8 39 3 86 5 105 3 73 -5 117 -2 170 10 50 11 62 10 135 -11 54 -17 81
-21 83 -13 1 6 -3 40 -11 76 -12 60 -15 65 -40 68 -22 3 -33 15 -57 63 l-30
59 -46 0 -47 0 7 -60 7 -60 -29 0 c-30 0 -30 0 -36 73 -3 39 -9 129 -12 200
-4 70 -9 127 -13 127 -3 0 -23 -49 -45 -110 -34 -97 -41 -110 -61 -110 -20 0
-27 12 -51 78 -15 42 -34 93 -42 112 l-15 35 -7 -40 c-4 -22 -11 -75 -15 -117
l-7 -78 -30 0 c-27 0 -29 2 -24 28 11 57 28 244 23 249 -3 3 -19 -16 -36 -41z"/>
<path d="M780 818 c0 -13 3 -40 6 -61 l7 -38 61 3 c55 3 62 6 74 30 10 22 10
32 1 50 -17 33 -28 38 -91 38 -54 0 -58 -2 -58 -22z"/>
</g>
</svg>
